<svg width="27" height="19" viewBox="0 0 27 19" fill="none" xmlns="http://www.w3.org/2000/svg">
<path d="M10.6392 18.4747L10.6431 18.4757C10.7151 18.4966 10.7906 18.5028 10.8651 18.4942C10.9396 18.4856 11.0117 18.4623 11.0771 18.4256C11.1425 18.3889 11.2 18.3395 11.2461 18.2804C11.2923 18.2213 11.3263 18.1536 11.3461 18.0813L11.3469 18.0783L16.0659 1.23127L16.066 1.2308C16.0865 1.15809 16.0924 1.08207 16.0835 1.00707C16.0745 0.932074 16.0509 0.859573 16.0139 0.793706C15.977 0.727838 15.9274 0.669895 15.8681 0.623184C15.8087 0.576473 15.7407 0.54191 15.668 0.521468C15.5953 0.501025 15.5193 0.495104 15.4443 0.504041C15.3693 0.512979 15.2968 0.536601 15.2309 0.573558C15.0981 0.648109 15.0002 0.772331 14.9588 0.918949L10.6392 18.4747ZM10.6392 18.4747C10.5665 18.4543 10.4985 18.4198 10.4392 18.3732C10.3799 18.3265 10.3303 18.2686 10.2934 18.2028C10.2564 18.137 10.2329 18.0645 10.224 17.9895C10.2151 17.9146 10.221 17.8386 10.2416 17.766L10.2418 17.7649L14.9587 0.919463L10.6392 18.4747ZM19.5441 15.5777L19.5025 15.5362C19.4209 15.434 19.3758 15.3066 19.3758 15.1746C19.3758 15.0217 19.4363 14.875 19.544 14.7666C19.5442 14.7664 19.5444 14.7662 19.5446 14.766L24.1489 10.1617L24.5023 9.80832L24.1491 9.45477L19.5441 4.84477L19.544 4.84469C19.4362 4.7368 19.3757 4.59048 19.3757 4.43794C19.3758 4.2854 19.4364 4.13913 19.5443 4.0313C19.6522 3.92347 19.7985 3.86292 19.9511 3.86297C20.1036 3.86302 20.2499 3.92367 20.3577 4.03157L20.3579 4.03175L25.7229 9.39475L25.7234 9.39532C25.7771 9.44874 25.8196 9.51222 25.8486 9.58211C25.8776 9.65201 25.8926 9.72695 25.8926 9.80263C25.8926 9.87831 25.8776 9.95325 25.8486 10.0232C25.8196 10.093 25.7771 10.1565 25.7234 10.2099L25.7227 10.2106L20.3577 15.5776L20.3576 15.5777C20.3042 15.6312 20.2408 15.6736 20.171 15.7025C20.1012 15.7315 20.0264 15.7464 19.9509 15.7464C19.8753 15.7464 19.8005 15.7315 19.7307 15.7025C19.6609 15.6736 19.5975 15.6312 19.5441 15.5777ZM6.90347 15.708C6.84367 15.6834 6.78863 15.6487 6.74076 15.6054L6.71785 15.5825L1.34998 10.2166C1.34994 10.2166 1.34989 10.2166 1.34985 10.2165C1.24214 10.1087 1.18164 9.96253 1.18164 9.81013C1.18164 9.65771 1.24216 9.51154 1.34988 9.40372C1.34991 9.40368 1.34995 9.40365 1.34998 9.40362L6.7067 4.0479C6.81477 3.95492 6.95371 3.9054 7.09649 3.90924C7.24313 3.91319 7.38269 3.97313 7.48652 4.07675C7.59035 4.18038 7.65057 4.31982 7.6548 4.46645C7.65893 4.60918 7.60971 4.74817 7.51701 4.85641L2.92831 9.45808L2.57556 9.81182L2.929 10.1649L7.534 14.7649L7.53402 14.7649C7.61481 14.8456 7.66984 14.9484 7.69214 15.0604C7.71444 15.1724 7.70302 15.2885 7.65931 15.394C7.61559 15.4995 7.54156 15.5896 7.44659 15.653C7.35161 15.7164 7.23996 15.7502 7.12578 15.7501L7.12136 15.7501C7.04665 15.7507 6.97257 15.7364 6.90347 15.708Z" fill="#0069E6" stroke="#0069E6"/>
</svg>
