<svg width="28" height="21" viewBox="0 0 28 21" fill="none" xmlns="http://www.w3.org/2000/svg">
<path d="M20.4157 17.045L20.4626 17.0923C20.5248 17.155 20.5985 17.2046 20.6793 17.2384C20.76 17.2721 20.8465 17.2894 20.9337 17.2894C21.0209 17.2894 21.1073 17.2721 21.1881 17.2384C21.2689 17.2046 21.3426 17.155 21.4048 17.0923L21.4049 17.0922L27.2333 11.2154L27.234 11.2147C27.2965 11.152 27.3462 11.0772 27.3802 10.9946C27.4143 10.912 27.4318 10.8233 27.4318 10.7337C27.4318 10.644 27.4143 10.5553 27.3802 10.4727C27.3462 10.3901 27.2965 10.3154 27.234 10.2526L27.2334 10.2521L21.405 4.3797L21.4048 4.37952C21.2793 4.25289 21.1098 4.18245 20.9339 4.18239C20.758 4.18233 20.5885 4.25266 20.4629 4.3792C20.3371 4.50588 20.2657 4.67855 20.2657 4.85944C20.2656 5.04033 20.3369 5.21305 20.4626 5.33981L20.4626 5.33988L25.4654 10.3877L25.8144 10.7399L25.4652 11.0919L20.4631 16.1336L20.4157 17.045ZM20.4157 17.045C20.3194 16.9245 20.2658 16.7733 20.2658 16.6159C20.2658 16.4347 20.3369 16.2616 20.4624 16.1342L20.4157 17.045ZM10.3444 19.4395L10.3447 19.4385L15.469 0.992953C15.469 0.992924 15.469 0.992895 15.469 0.992865C15.5175 0.819065 15.6322 0.672994 15.7864 0.585791C15.8628 0.542607 15.9466 0.515104 16.0332 0.504704C16.1198 0.494303 16.2076 0.501186 16.2916 0.524999C16.3756 0.548814 16.4544 0.589142 16.5234 0.643867C16.5924 0.698599 16.6503 0.766687 16.6935 0.844388C16.7368 0.922096 16.7645 1.00781 16.775 1.09664C16.7855 1.18548 16.7786 1.2755 16.7546 1.36154L16.7545 1.362L11.6278 19.8091L11.627 19.8121C11.6038 19.8978 11.5639 19.9778 11.5099 20.0474C11.456 20.117 11.389 20.1749 11.3131 20.2179C11.2372 20.2608 11.1537 20.288 11.0676 20.298C10.9815 20.3081 10.8943 20.3008 10.8109 20.2765L10.6712 20.7566L10.807 20.2754C10.723 20.2517 10.6442 20.2114 10.5752 20.1567C10.5062 20.1021 10.4484 20.034 10.4051 19.9564C10.3619 19.8787 10.3342 19.793 10.3238 19.7042C10.3133 19.6154 10.3203 19.5254 10.3444 19.4395ZM6.55415 17.1234L6.52847 17.0975L0.696915 11.222C0.696872 11.2219 0.696828 11.2219 0.696785 11.2219C0.57123 11.0952 0.5 10.9226 0.5 10.7419C0.5 10.5611 0.571243 10.3886 0.696818 10.2619C0.69685 10.2619 0.696882 10.2618 0.696915 10.2618L6.51753 4.3962C6.64339 4.2865 6.80479 4.22858 6.97002 4.23306C7.13915 4.23765 7.30089 4.30732 7.4218 4.42895C7.54283 4.55069 7.61368 4.7153 7.61867 4.88919C7.62354 5.05905 7.56515 5.22385 7.4562 5.35139L2.46993 10.3913L2.12134 10.7437L2.47062 11.0953L7.47339 16.1322L7.47341 16.1323C7.56753 16.227 7.63208 16.3482 7.65828 16.4808C7.68448 16.6135 7.67102 16.7509 7.61976 16.8756C7.56852 17.0002 7.482 17.1061 7.37177 17.1803C7.26158 17.2544 7.13246 17.2937 7.00074 17.2935L6.99629 17.2936C6.90994 17.2943 6.82422 17.2776 6.74413 17.2444C6.67445 17.2155 6.61016 17.1746 6.55415 17.1234Z" fill="#403D3B" stroke="#403D3B"/>
</svg>
