<svg xmlns="http://www.w3.org/2000/svg" width="173" height="144" viewBox="0 0 173 144">
  <g id="Group_11360" data-name="Group 11360" transform="translate(-345 -467)">
    <rect id="Rectangle_3885" data-name="Rectangle 3885" width="173" height="144" rx="4" transform="translate(345 467)" fill="#0dbe79"/>
    <path id="Rectangle_3893" data-name="Rectangle 3893" d="M0,0H173a0,0,0,0,1,0,0V104a4,4,0,0,1-4,4H4a4,4,0,0,1-4-4V0A0,0,0,0,1,0,0Z" transform="translate(345 503)" fill="#f5f5f5"/>
    <path id="Rectangle_3880" data-name="Rectangle 3880" d="M4,0H99a4,4,0,0,1,4,4V124a0,0,0,0,1,0,0H0a0,0,0,0,1,0,0V4A4,4,0,0,1,4,0Z" transform="translate(380 487)" fill="#fff"/>
    <g id="Component_41_142" data-name="Component 41 – 142" transform="translate(395 506)">
      <g id="Group_11245" data-name="Group 11245" transform="translate(9.358)">
        <g id="Group_10588" data-name="Group 10588" transform="translate(0 4.682)">
          <path id="Path_19830" data-name="Path 19830" d="M7.133,0H57.871A4.133,4.133,0,0,1,62,4.133v9.625a4.133,4.133,0,0,1-4.133,4.133H7.133A4.133,4.133,0,0,1,3,13.758V4.133A4.133,4.133,0,0,1,7.133,0Z" transform="translate(-3 0)" fill="#f5f5f5"/>
        </g>
        <g id="Rectangle_3408" data-name="Rectangle 3408" transform="translate(35.74 11.272)">
          <path id="Path_162" data-name="Path 162" d="M-461.009,53.94h14.734a.968.968,0,0,1,.967.967h0a.968.968,0,0,1-.967.967h-14.734a.968.968,0,0,1-.967-.967h0A.968.968,0,0,1-461.009,53.94Z" transform="translate(461.976 -53.94)" fill="#b6bbbe"/>
        </g>
        <g id="Rectangle_3407" data-name="Rectangle 3407" transform="translate(4.908 15.141)">
          <path id="Path_164" data-name="Path 164" d="M-461.009,66.114h45.684a.967.967,0,0,1,.967.967h0a.968.968,0,0,1-.967.969h-45.684a.968.968,0,0,1-.967-.967h0a.968.968,0,0,1,.967-.969Z" transform="translate(461.976 -66.114)" fill="#b6bbbe"/>
        </g>
        <path id="Path_167" data-name="Path 167" d="M-523.963,10.629a4.885,4.885,0,0,1-4.885-4.885A4.885,4.885,0,0,1-523.963.858a4.885,4.885,0,0,1,4.885,4.885h0A4.892,4.892,0,0,1-523.963,10.629Z" transform="translate(582.524 -0.858)" fill="#fff"/>
        <path id="Path_167-2" data-name="Path 167" d="M-525.125,8.3a3.723,3.723,0,0,1-3.723-3.723A3.723,3.723,0,0,1-525.125.858,3.723,3.723,0,0,1-521.4,4.581h0A3.727,3.727,0,0,1-525.125,8.3Z" transform="translate(583.776 0.276)" fill="#f5f5f5"/>
      </g>
      <g id="Group_11250" data-name="Group 11250" transform="translate(9.358 47.96)">
        <g id="Group_10588-2" data-name="Group 10588" transform="translate(0 4.682)">
          <path id="Path_19830-2" data-name="Path 19830" d="M7.133,0H57.871A4.133,4.133,0,0,1,62,4.133v9.625a4.133,4.133,0,0,1-4.133,4.133H7.133A4.133,4.133,0,0,1,3,13.758V4.133A4.133,4.133,0,0,1,7.133,0Z" transform="translate(-3 0)" fill="#f5f5f5"/>
        </g>
        <g id="Rectangle_3408-2" data-name="Rectangle 3408" transform="translate(35.74 11.272)">
          <path id="Path_162-2" data-name="Path 162" d="M-461.009,53.94h14.734a.968.968,0,0,1,.967.967h0a.968.968,0,0,1-.967.967h-14.734a.968.968,0,0,1-.967-.967h0A.968.968,0,0,1-461.009,53.94Z" transform="translate(461.976 -53.94)" fill="#b6bbbe"/>
        </g>
        <g id="Rectangle_3408-3" data-name="Rectangle 3408" transform="translate(24.092 11.272)">
          <path id="Path_162-3" data-name="Path 162" d="M-451.009,53.94h7.882a.968.968,0,0,1,.967.967h0a.968.968,0,0,1-.967.967h-7.882a.968.968,0,0,1-.967-.967h0A.968.968,0,0,1-451.009,53.94Z" transform="translate(451.976 -53.94)" fill="#b6bbbe"/>
        </g>
        <g id="Rectangle_3408-4" data-name="Rectangle 3408" transform="translate(30.259 15.383)">
          <path id="Path_162-4" data-name="Path 162" d="M-469.009,53.94h20.215a.968.968,0,0,1,.967.967h0a.968.968,0,0,1-.967.967h-20.215a.968.968,0,0,1-.967-.967h0A.968.968,0,0,1-469.009,53.94Z" transform="translate(469.976 -53.94)" fill="#b6bbbe"/>
        </g>
        <g id="Rectangle_3408-5" data-name="Rectangle 3408" transform="translate(11.76 15.383)">
          <path id="Path_162-5" data-name="Path 162" d="M-461.009,53.94h14.734a.968.968,0,0,1,.967.967h0a.968.968,0,0,1-.967.967h-14.734a.968.968,0,0,1-.967-.967h0A.968.968,0,0,1-461.009,53.94Z" transform="translate(461.976 -53.94)" fill="#b6bbbe"/>
        </g>
        <path id="Path_167-3" data-name="Path 167" d="M-523.963,10.629a4.885,4.885,0,0,1-4.885-4.885A4.885,4.885,0,0,1-523.963.858a4.885,4.885,0,0,1,4.885,4.885h0A4.892,4.892,0,0,1-523.963,10.629Z" transform="translate(582.524 -0.858)" fill="#fff"/>
        <path id="Path_167-4" data-name="Path 167" d="M-525.125,8.3a3.723,3.723,0,0,1-3.723-3.723A3.723,3.723,0,0,1-525.125.858,3.723,3.723,0,0,1-521.4,4.581h0A3.727,3.727,0,0,1-525.125,8.3Z" transform="translate(583.776 0.276)" fill="#f5f5f5"/>
      </g>
      <g id="Group_11249" data-name="Group 11249" transform="translate(0 23.295)">
        <g id="Group_10588-3" data-name="Group 10588" transform="translate(3.336 4.682)">
          <path id="Path_19830-3" data-name="Path 19830" d="M28.344,0H57.7a4.133,4.133,0,0,1,4.133,4.133v9.625A4.133,4.133,0,0,1,57.7,17.891H28.344a4.133,4.133,0,0,1-4.133-4.133V4.133A4.133,4.133,0,0,1,28.344,0Z" transform="translate(-24.211 0)" fill="#f5f5f5"/>
        </g>
        <g id="Rectangle_3408-6" data-name="Rectangle 3408" transform="translate(8.785 11.272)">
          <path id="Path_162-6" data-name="Path 162" d="M-461.009,53.94h14.734a.968.968,0,0,1,.967.967h0a.968.968,0,0,1-.967.967h-14.734a.968.968,0,0,1-.967-.967h0A.968.968,0,0,1-461.009,53.94Z" transform="translate(461.976 -53.94)" fill="#b6bbbe"/>
        </g>
        <g id="Rectangle_3407-2" data-name="Rectangle 3407" transform="translate(8.731 15.141)">
          <path id="Path_164-2" data-name="Path 164" d="M-428.087,66.114h23.128a.967.967,0,0,1,.967.967h0a.968.968,0,0,1-.967.969h-23.128a.968.968,0,0,1-.967-.967h0a.968.968,0,0,1,.967-.969Z" transform="translate(429.055 -66.114)" fill="#b6bbbe"/>
        </g>
        <path id="Path_167-5" data-name="Path 167" d="M-523.963,10.629a4.885,4.885,0,0,1-4.885-4.885A4.885,4.885,0,0,1-523.963.858a4.885,4.885,0,0,1,4.885,4.885h0A4.892,4.892,0,0,1-523.963,10.629Z" transform="translate(528.848 -0.858)" fill="#fff"/>
        <path id="Path_167-6" data-name="Path 167" d="M-525.125,8.3a3.723,3.723,0,0,1-3.723-3.723A3.723,3.723,0,0,1-525.125.858,3.723,3.723,0,0,1-521.4,4.581h0A3.727,3.727,0,0,1-525.125,8.3Z" transform="translate(530.1 0.276)" fill="#f5f5f5"/>
      </g>
      <g id="Group_11251" data-name="Group 11251" transform="translate(0 74.681)">
        <g id="Group_10588-4" data-name="Group 10588" transform="translate(3.336 4.682)">
          <path id="Path_19830-4" data-name="Path 19830" d="M28.344,0H49.811a4.133,4.133,0,0,1,4.133,4.133v9.625a4.133,4.133,0,0,1-4.133,4.133H28.344a4.133,4.133,0,0,1-4.133-4.133V4.133A4.133,4.133,0,0,1,28.344,0Z" transform="translate(-24.211 0)" fill="#f5f5f5"/>
        </g>
        <g id="Rectangle_3408-7" data-name="Rectangle 3408" transform="translate(8.785 11.272)">
          <path id="Path_162-7" data-name="Path 162" d="M-461.009,53.94h14.734a.968.968,0,0,1,.967.967h0a.968.968,0,0,1-.967.967h-14.734a.968.968,0,0,1-.967-.967h0A.968.968,0,0,1-461.009,53.94Z" transform="translate(461.976 -53.94)" fill="#b6bbbe"/>
        </g>
        <g id="Rectangle_3407-3" data-name="Rectangle 3407" transform="translate(8.731 15.141)">
          <path id="Path_164-3" data-name="Path 164" d="M-428.087,66.114l5.821,0a.967.967,0,0,1,.967.967h0a.968.968,0,0,1-.967.969h0l-5.821,0a.968.968,0,0,1-.967-.967h0a.968.968,0,0,1,.967-.969Z" transform="translate(429.055 -66.114)" fill="#b6bbbe"/>
        </g>
        <g id="Rectangle_3407-4" data-name="Rectangle 3407" transform="translate(18.368 15.141)">
          <path id="Path_164-4" data-name="Path 164" d="M-428.087,66.114l1.314,0a.967.967,0,0,1,.967.967h0a.968.968,0,0,1-.967.969h0l-1.314,0a.968.968,0,0,1-.967-.967h0a.968.968,0,0,1,.967-.969Z" transform="translate(429.055 -66.114)" fill="#b6bbbe"/>
        </g>
        <path id="Path_167-7" data-name="Path 167" d="M-523.963,10.629a4.885,4.885,0,0,1-4.885-4.885A4.885,4.885,0,0,1-523.963.858a4.885,4.885,0,0,1,4.885,4.885h0A4.892,4.892,0,0,1-523.963,10.629Z" transform="translate(528.848 -0.858)" fill="#fff"/>
        <path id="Path_167-8" data-name="Path 167" d="M-525.125,8.3a3.723,3.723,0,0,1-3.723-3.723A3.723,3.723,0,0,1-525.125.858,3.723,3.723,0,0,1-521.4,4.581h0A3.727,3.727,0,0,1-525.125,8.3Z" transform="translate(530.1 0.276)" fill="#f5f5f5"/>
      </g>
    </g>
  </g>
</svg>
