<svg xmlns="http://www.w3.org/2000/svg" width="45.004" height="45" viewBox="0 0 45.004 45">
  <g id="Component_40_9" data-name="Component 40 – 9" transform="translate(0.5 0.5)">
    <path id="Subtraction_70" data-name="Subtraction 70" d="M752.291-15126.128H725.709a8.72,8.72,0,0,1-8.711-8.711v-26.578a8.72,8.72,0,0,1,8.711-8.711h26.582a8.72,8.72,0,0,1,8.711,8.711v26.578A8.72,8.72,0,0,1,752.291-15126.128Zm-16.242-20.779v12.67h5.1v-12.67H745.4l.64-4.938h-4.892V-15155c0-1.442.416-2.4,2.448-2.4l2.616,0v-4.417a35.71,35.71,0,0,0-3.811-.194,6.354,6.354,0,0,0-4.592,1.679,6.627,6.627,0,0,0-1.762,4.851v3.644h-4.264v4.938Z" transform="translate(-716.999 15170.128)" fill="#9ba7b3" stroke="rgba(0,0,0,0)" stroke-miterlimit="10" stroke-width="1"/>
  </g>
</svg>
