<svg width="19" height="24" viewBox="0 0 19 24" fill="none" xmlns="http://www.w3.org/2000/svg">
<g opacity="0.96">
<path opacity="0.96" d="M16.514 24.001H1.982C1.4565 24.0005 0.952682 23.7915 0.581099 23.4199C0.209517 23.0483 0.000529468 22.5445 0 22.019V1.98199C0.000529468 1.4565 0.209517 0.952675 0.581099 0.581093C0.952682 0.20951 1.4565 0.000529468 1.982 0H11.24L18.496 7.256V22.019C18.4955 22.5445 18.2865 23.0483 17.9149 23.4199C17.5433 23.7915 17.0395 24.0005 16.514 24.001Z" fill="white"/>
<path opacity="0.96" d="M18.4863 7.27852V13.4785L11.6753 6.55052L18.4863 7.27852Z" fill="#EFEFEF"/>
<path opacity="0.96" d="M13.2085 7.2666C12.6833 7.26581 12.1798 7.05664 11.8086 6.68506C11.4374 6.31348 11.2288 5.8099 11.2285 5.28467V0.00976562L18.4834 7.2666H13.2085Z" fill="#BAA6DE"/>
<path opacity="0.96" d="M3.52148 17.0642C3.52148 16.8682 3.57961 16.6766 3.6885 16.5136C3.79739 16.3507 3.95216 16.2236 4.13325 16.1486C4.31433 16.0736 4.51358 16.054 4.70582 16.0922C4.89805 16.1305 5.07463 16.2249 5.21323 16.3635C5.35182 16.5021 5.4462 16.6786 5.48444 16.8709C5.52268 17.0631 5.50306 17.2624 5.42805 17.4434C5.35304 17.6245 5.22602 17.7793 5.06305 17.8882C4.90009 17.9971 4.70849 18.0552 4.51248 18.0552C4.24965 18.0552 3.99759 17.9508 3.81174 17.7649C3.62589 17.5791 3.52148 17.327 3.52148 17.0642V17.0642ZM6.38348 17.8352V16.5132H13.4295V17.8352H6.38348ZM6.38348 14.9732V13.6512H13.4295V14.9722L6.38348 14.9732ZM3.52148 13.9812C3.52148 13.7852 3.57961 13.5936 3.6885 13.4306C3.79739 13.2677 3.95216 13.1406 4.13325 13.0656C4.31433 12.9906 4.51358 12.971 4.70582 13.0092C4.89805 13.0475 5.07463 13.1419 5.21323 13.2805C5.35182 13.4191 5.4462 13.5956 5.48444 13.7879C5.52268 13.9801 5.50306 14.1794 5.42805 14.3604C5.35304 14.5415 5.22602 14.6963 5.06305 14.8052C4.90009 14.9141 4.70849 14.9722 4.51248 14.9722C4.24965 14.9722 3.99759 14.8678 3.81174 14.6819C3.62589 14.4961 3.52148 14.244 3.52148 13.9812V13.9812ZM3.52148 10.8992C3.52148 10.7032 3.57961 10.5116 3.6885 10.3486C3.79739 10.1857 3.95216 10.0586 4.13325 9.98364C4.31433 9.90863 4.51358 9.88901 4.70582 9.92725C4.89805 9.96548 5.07463 10.0599 5.21323 10.1985C5.35182 10.3371 5.4462 10.5136 5.48444 10.7059C5.52268 10.8981 5.50306 11.0974 5.42805 11.2784C5.35304 11.4595 5.22602 11.6143 5.06305 11.7232C4.90009 11.8321 4.70849 11.8902 4.51248 11.8902C4.24965 11.8902 3.99759 11.7858 3.81174 11.5999C3.62589 11.4141 3.52148 11.162 3.52148 10.8992V10.8992ZM6.38348 11.4502V10.1282H13.4295V11.4492L6.38348 11.4502Z" fill="#764EBE"/>
</g>
</svg>
