<svg xmlns="http://www.w3.org/2000/svg" width="19.156" height="24.857" viewBox="0 0 19.156 24.857">
  <g id="Group_11428" data-name="Group 11428" transform="translate(-7412 -3969)">
    <path id="Path_212" data-name="Path 212" d="M17.1,119.81H2.052A2.055,2.055,0,0,1,0,117.758V97.006a2.055,2.055,0,0,1,2.052-2.052h9.589l7.515,7.515v15.29A2.055,2.055,0,0,1,17.1,119.81Z" transform="translate(7412 3874.047)" fill="#764dbe"/>
    <path id="Path_210" data-name="Path 210" d="M0,6.424V0L7.055,7.175Z" transform="translate(7431.145 3982.96) rotate(180)" fill="#6e48b8"/>
    <path id="Path_213" data-name="Path 213" d="M-7383.994-4225.439a2.053,2.053,0,0,1-2.053-2.053v-5.462l7.515,7.515Z" transform="translate(14809.677 8201.965)" fill="#baa6de"/>
    <path id="Union_4" data-name="Union 4" d="M0,7.411A1.026,1.026,0,1,1,1.026,8.438,1.026,1.026,0,0,1,0,7.411Zm2.964.8V6.841h7.3V8.21Zm0-2.964V3.877h7.3V5.245ZM0,4.219A1.026,1.026,0,1,1,1.026,5.245,1.026,1.026,0,0,1,0,4.219ZM0,1.026A1.026,1.026,0,1,1,1.026,2.052,1.026,1.026,0,0,1,0,1.026Zm2.964.57V.228h7.3V1.6Z" transform="translate(7415.649 3979.262)" fill="#fff"/>
  </g>
</svg>
