<svg xmlns="http://www.w3.org/2000/svg" width="2233" height="358" viewBox="0 0 2233 358">
  <g id="Group_11439" data-name="Group 11439" transform="translate(796.489 -420)" opacity="0.17">
    <path id="Rectangle_3937" data-name="Rectangle 3937" d="M40,0H487a40,40,0,0,1,40,40V68a40,40,0,0,1-40,40H1a1,1,0,0,1-1-1V40A40,40,0,0,1,40,0Z" transform="translate(720.511 462)" fill="#004faf" opacity="0.235"/>
    <path id="Rectangle_3958" data-name="Rectangle 3958" d="M40,0H487a40,40,0,0,1,40,40V68a40,40,0,0,1-40,40H1a1,1,0,0,1-1-1V40A40,40,0,0,1,40,0Z" transform="translate(-796.489 420)" fill="#004faf" opacity="0.241"/>
    <g id="Rectangle_3930" data-name="Rectangle 3930" transform="translate(1335.511 529) rotate(180)" fill="none" stroke="#000" stroke-width="6" opacity="0.1">
      <path d="M40,0H211a1,1,0,0,1,1,1V67a40,40,0,0,1-40,40H40A40,40,0,0,1,0,67V40A40,40,0,0,1,40,0Z" stroke="none"/>
      <path d="M40,3H207a2,2,0,0,1,2,2V67a37,37,0,0,1-37,37H40A37,37,0,0,1,3,67V40A37,37,0,0,1,40,3Z" fill="none"/>
    </g>
    <g id="Rectangle_3942" data-name="Rectangle 3942" transform="translate(-126.489 528)" fill="none" stroke="#004faf" stroke-width="6" opacity="0.432">
      <path d="M40,0h96a40,40,0,0,1,40,40V83a1,1,0,0,1-1,1H40A40,40,0,0,1,0,44V40A40,40,0,0,1,40,0Z" stroke="none"/>
      <path d="M40,3h96a37,37,0,0,1,37,37V79a2,2,0,0,1-2,2H40A37,37,0,0,1,3,44V40A37,37,0,0,1,40,3Z" fill="none"/>
    </g>
    <g id="Path_19933" data-name="Path 19933" transform="translate(-223.489 681.903) rotate(180)" fill="none" opacity="0.432">
      <path d="M26.574,0h89.689a.664.664,0,0,1,.664.664V29.232A26.574,26.574,0,0,1,90.353,55.806H26.574A26.574,26.574,0,0,1,0,29.232V26.574A26.574,26.574,0,0,1,26.574,0Z" stroke="none"/>
      <path d="M 26.57443237304688 6.000007629394531 C 15.22963714599609 6.000007629394531 5.999992370605469 15.22965240478516 5.999992370605469 26.57442283630371 L 5.999992370605469 29.23188209533691 C 5.999992370605469 40.57665252685547 15.22963714599609 49.80629730224609 26.57443237304688 49.80629730224609 L 90.35305786132812 49.80629730224609 C 101.6978454589844 49.80629730224609 110.9274978637695 40.57665252685547 110.9274978637695 29.23188209533691 L 110.9274978637695 6.000007629394531 L 26.57443237304688 6.000007629394531 M 26.57443237304688 7.62939453125e-06 L 116.2631225585938 7.62939453125e-06 C 116.6300582885742 7.62939453125e-06 116.9274978637695 0.2974433898925781 116.9274978637695 0.6643600463867188 L 116.9274978637695 29.23188209533691 C 116.9274978637695 43.90852737426758 105.0297241210938 55.80629730224609 90.35305786132812 55.80629730224609 L 26.57443237304688 55.80629730224609 C 11.89778900146484 55.80629730224609 -7.62939453125e-06 43.90852737426758 -7.62939453125e-06 29.23188209533691 L -7.62939453125e-06 26.57442283630371 C -7.62939453125e-06 11.89777755737305 11.89778900146484 7.62939453125e-06 26.57443237304688 7.62939453125e-06 Z" stroke="none" fill="#004faf"/>
    </g>
    <g id="Rectangle_3960" data-name="Rectangle 3960" transform="translate(562.511 626)" fill="none" stroke="#004faf" stroke-width="6" opacity="0.29">
      <path d="M40,0h96a40,40,0,0,1,40,40V83a1,1,0,0,1-1,1H40A40,40,0,0,1,0,44V40A40,40,0,0,1,40,0Z" stroke="none"/>
      <path d="M40,3h96a37,37,0,0,1,37,37V79a2,2,0,0,1-2,2H40A37,37,0,0,1,3,44V40A37,37,0,0,1,40,3Z" fill="none"/>
    </g>
    <g id="Rectangle_3932" data-name="Rectangle 3932" transform="translate(253.511 504)" fill="none" stroke="#004faf" stroke-width="4">
      <path d="M25,0H89a25,25,0,0,1,25,25v0A25,25,0,0,1,89,50H.625A.625.625,0,0,1,0,49.375V25A25,25,0,0,1,25,0Z" stroke="none"/>
      <path d="M25,2H89a23,23,0,0,1,23,23v0A23,23,0,0,1,89,48H2.605A.605.605,0,0,1,2,47.395V25A23,23,0,0,1,25,2Z" fill="none"/>
    </g>
    <g id="Rectangle_3992" data-name="Rectangle 3992" transform="translate(561.511 442)" fill="none" stroke="#004faf" stroke-width="4">
      <path d="M34,0H186a34,34,0,0,1,34,34V67.15a.85.85,0,0,1-.85.85H34A34,34,0,0,1,0,34v0A34,34,0,0,1,34,0Z" stroke="none"/>
      <path d="M34,2H186a32,32,0,0,1,32,32V65.158a.842.842,0,0,1-.842.842H34A32,32,0,0,1,2,34v0A32,32,0,0,1,34,2Z" fill="none"/>
    </g>
    <g id="Rectangle_3993" data-name="Rectangle 3993" transform="translate(476.511 486)" fill="#004faf" stroke="#004faf" stroke-width="4" opacity="0.355">
      <path d="M34,0H186a34,34,0,0,1,34,34V67.15a.85.85,0,0,1-.85.85H34A34,34,0,0,1,0,34v0A34,34,0,0,1,34,0Z" stroke="none"/>
      <path d="M34,2H186a32,32,0,0,1,32,32V65.158a.842.842,0,0,1-.842.842H34A32,32,0,0,1,2,34v0A32,32,0,0,1,34,2Z" fill="none"/>
    </g>
    <g id="Rectangle_3939" data-name="Rectangle 3939" transform="translate(1163.511 576)" fill="none" stroke="#000" stroke-width="6" opacity="0.1">
      <path d="M40,0H233a40,40,0,0,1,40,40V61a40,40,0,0,1-40,40H1a1,1,0,0,1-1-1V40A40,40,0,0,1,40,0Z" stroke="none"/>
      <path d="M40,3H233a37,37,0,0,1,37,37V61a37,37,0,0,1-37,37H5a2,2,0,0,1-2-2V40A37,37,0,0,1,40,3Z" fill="none"/>
    </g>
    <g id="Rectangle_3959" data-name="Rectangle 3959" transform="translate(664.511 677)" fill="none" stroke="#004faf" stroke-width="6" opacity="0.38">
      <path d="M40,0H233a40,40,0,0,1,40,40V61a40,40,0,0,1-40,40H1a1,1,0,0,1-1-1V40A40,40,0,0,1,40,0Z" stroke="none"/>
      <path d="M40,3H233a37,37,0,0,1,37,37V61a37,37,0,0,1-37,37H5a2,2,0,0,1-2-2V40A37,37,0,0,1,40,3Z" fill="none"/>
    </g>
    <path id="Rectangle_3941" data-name="Rectangle 3941" d="M40,0H172a40,40,0,0,1,40,40v4a40,40,0,0,1-40,40H1a1,1,0,0,1-1-1V40A40,40,0,0,1,40,0Z" transform="translate(-13.489 559)" fill="#004faf" opacity="0.301"/>
    <path id="Rectangle_3995" data-name="Rectangle 3995" d="M1,0H172a40,40,0,0,1,40,40v4a40,40,0,0,1-40,40H40A40,40,0,0,1,0,44V1A1,1,0,0,1,1,0Z" transform="translate(-269.489 732) rotate(180)" fill="#004faf" opacity="0.301"/>
  </g>
</svg>
