<svg xmlns="http://www.w3.org/2000/svg" width="30.523" height="30.523" viewBox="0 0 30.523 30.523">
  <path id="Subtraction_36" data-name="Subtraction 36" d="M15.262,30.523A15.262,15.262,0,1,1,30.523,15.262,15.279,15.279,0,0,1,15.262,30.523Zm-.614-18.756H9.46a4.373,4.373,0,0,0,0,8.747h11.7a4.373,4.373,0,0,0,0-8.747H15.972V9.3a1.78,1.78,0,1,0-1.323,0ZM15.3,19.1h-.043a1.8,1.8,0,0,1-1.721-1.868l3.5-.034-.007.068v.02A1.773,1.773,0,0,1,15.3,19.1Zm4.589-.823a2.085,2.085,0,1,1,2.087-2.085A2.088,2.088,0,0,1,19.886,18.278Zm-9.154,0a2.085,2.085,0,1,1,2.086-2.085A2.087,2.087,0,0,1,10.731,18.278Z" fill="#fff"/>
</svg>
