<svg width="197" height="146" viewBox="0 0 197 146" fill="none" xmlns="http://www.w3.org/2000/svg">
<g filter="url(#filter0_d)">
<path d="M12.0557 23.2162C12.0557 17.3399 16.8194 12.5762 22.6957 12.5762H136.544C142.42 12.5762 147.184 17.3399 147.184 23.2162V44.4962H22.6957C16.8194 44.4962 12.0557 39.7325 12.0557 33.8562V23.2162Z" fill="white"/>
</g>
<g filter="url(#filter1_d)">
<path d="M36.5283 66.8401C36.5283 62.1391 40.3393 58.3281 45.0403 58.3281H176.976C181.677 58.3281 185.488 62.1391 185.488 66.8401V81.7361C185.488 86.4372 181.677 90.2481 176.976 90.2481H45.0403C40.3393 90.2481 36.5283 86.4372 36.5283 81.7361V66.8401Z" fill="white"/>
</g>
<path d="M34.1514 24.0616V32.9609H32.9895V28.9262H28.4569V32.9609H27.295V24.0616H28.4569V27.9686H32.9895V24.0616H34.1514ZM39.1869 33.0758C38.5315 33.0758 37.9356 32.9269 37.3994 32.629C36.8716 32.331 36.4545 31.9097 36.1481 31.3649C35.8502 30.8117 35.7012 30.1733 35.7012 29.4497C35.7012 28.7347 35.8544 28.1048 36.1609 27.5601C36.4758 27.0068 36.9014 26.5854 37.4377 26.296C37.9739 25.9981 38.574 25.8492 39.2379 25.8492C39.9019 25.8492 40.502 25.9981 41.0382 26.296C41.5745 26.5854 41.9958 27.0025 42.3023 27.5473C42.6172 28.0921 42.7747 28.7262 42.7747 29.4497C42.7747 30.1733 42.613 30.8117 42.2895 31.3649C41.9746 31.9097 41.5447 32.331 40.9999 32.629C40.4552 32.9269 39.8508 33.0758 39.1869 33.0758ZM39.1869 32.0544C39.604 32.0544 39.9955 31.9565 40.3615 31.7607C40.7275 31.565 41.0212 31.2713 41.2425 30.8798C41.4723 30.4882 41.5873 30.0115 41.5873 29.4497C41.5873 28.8879 41.4766 28.4113 41.2553 28.0197C41.034 27.6282 40.7446 27.3388 40.3871 27.1515C40.0296 26.9557 39.6423 26.8578 39.2252 26.8578C38.7996 26.8578 38.408 26.9557 38.0505 27.1515C37.7015 27.3388 37.4206 27.6282 37.2078 28.0197C36.995 28.4113 36.8886 28.8879 36.8886 29.4497C36.8886 30.02 36.9908 30.501 37.1951 30.8925C37.4079 31.2841 37.6888 31.5777 38.0378 31.7735C38.3867 31.9608 38.7698 32.0544 39.1869 32.0544ZM45.4642 23.5126V32.9609H44.3024V23.5126H45.4642ZM47.0104 29.437C47.0104 28.722 47.1551 28.0963 47.4445 27.5601C47.7339 27.0153 48.1297 26.594 48.6319 26.296C49.1426 25.9981 49.7087 25.8492 50.33 25.8492C50.9429 25.8492 51.4749 25.9811 51.926 26.245C52.3772 26.5088 52.7134 26.8408 52.9347 27.2409V25.9641H54.1094V32.9609H52.9347V31.6586C52.7049 32.0672 52.3602 32.4077 51.9005 32.68C51.4494 32.9439 50.9216 33.0758 50.3173 33.0758C49.6959 33.0758 49.1341 32.9226 48.6319 32.6162C48.1297 32.3098 47.7339 31.8799 47.4445 31.3266C47.1551 30.7734 47.0104 30.1435 47.0104 29.437ZM52.9347 29.4497C52.9347 28.922 52.8283 28.4623 52.6155 28.0708C52.4027 27.6792 52.1133 27.3813 51.7473 27.177C51.3898 26.9642 50.994 26.8578 50.5599 26.8578C50.1258 26.8578 49.73 26.96 49.3724 27.1643C49.0149 27.3686 48.7298 27.6665 48.517 28.058C48.3042 28.4496 48.1978 28.9092 48.1978 29.437C48.1978 29.9732 48.3042 30.4414 48.517 30.8414C48.7298 31.233 49.0149 31.5352 49.3724 31.748C49.73 31.9523 50.1258 32.0544 50.5599 32.0544C50.994 32.0544 51.3898 31.9523 51.7473 31.748C52.1133 31.5352 52.4027 31.233 52.6155 30.8414C52.8283 30.4414 52.9347 29.9775 52.9347 29.4497ZM59.0427 29.4497C59.0427 28.7262 59.1874 28.0963 59.4768 27.5601C59.7662 27.0153 60.1663 26.594 60.677 26.296C61.1962 25.9981 61.7878 25.8492 62.4518 25.8492C63.3115 25.8492 64.018 26.0577 64.5713 26.4748C65.133 26.8919 65.5033 27.4707 65.6821 28.2112H64.4308C64.3116 27.7856 64.0776 27.4494 63.7286 27.2026C63.3881 26.9557 62.9625 26.8323 62.4518 26.8323C61.7878 26.8323 61.2516 27.0621 60.843 27.5218C60.4344 27.9729 60.2301 28.6156 60.2301 29.4497C60.2301 30.2924 60.4344 30.9436 60.843 31.4032C61.2516 31.8629 61.7878 32.0927 62.4518 32.0927C62.9625 32.0927 63.3881 31.9735 63.7286 31.7352C64.069 31.4969 64.3031 31.1564 64.4308 30.7138H65.6821C65.4948 31.4288 65.1203 32.0033 64.5585 32.4374C63.9967 32.863 63.2945 33.0758 62.4518 33.0758C61.7878 33.0758 61.1962 32.9269 60.677 32.629C60.1663 32.331 59.7662 31.9097 59.4768 31.3649C59.1874 30.8202 59.0427 30.1818 59.0427 29.4497ZM70.2839 33.0758C69.6285 33.0758 69.0327 32.9269 68.4964 32.629C67.9687 32.331 67.5516 31.9097 67.2452 31.3649C66.9472 30.8117 66.7983 30.1733 66.7983 29.4497C66.7983 28.7347 66.9515 28.1048 67.2579 27.5601C67.5729 27.0068 67.9985 26.5854 68.5347 26.296C69.071 25.9981 69.6711 25.8492 70.335 25.8492C70.9989 25.8492 71.599 25.9981 72.1353 26.296C72.6716 26.5854 73.0929 27.0025 73.3993 27.5473C73.7143 28.0921 73.8717 28.7262 73.8717 29.4497C73.8717 30.1733 73.71 30.8117 73.3866 31.3649C73.0716 31.9097 72.6418 32.331 72.097 32.629C71.5522 32.9269 70.9479 33.0758 70.2839 33.0758ZM70.2839 32.0544C70.701 32.0544 71.0926 31.9565 71.4586 31.7607C71.8246 31.565 72.1183 31.2713 72.3396 30.8798C72.5694 30.4882 72.6843 30.0115 72.6843 29.4497C72.6843 28.8879 72.5737 28.4113 72.3524 28.0197C72.131 27.6282 71.8416 27.3388 71.4841 27.1515C71.1266 26.9557 70.7393 26.8578 70.3222 26.8578C69.8966 26.8578 69.5051 26.9557 69.1476 27.1515C68.7986 27.3388 68.5177 27.6282 68.3049 28.0197C68.0921 28.4113 67.9857 28.8879 67.9857 29.4497C67.9857 30.02 68.0878 30.501 68.2921 30.8925C68.5049 31.2841 68.7858 31.5777 69.1348 31.7735C69.4838 31.9608 69.8668 32.0544 70.2839 32.0544ZM83.8135 25.8364C84.3583 25.8364 84.8435 25.9513 85.2691 26.1811C85.6947 26.4024 86.0309 26.7387 86.2778 27.1898C86.5246 27.6409 86.648 28.19 86.648 28.8369V32.9609H85.4989V29.0029C85.4989 28.3049 85.3244 27.7729 84.9754 27.4069C84.6349 27.0323 84.171 26.8451 83.5837 26.8451C82.9794 26.8451 82.4984 27.0408 82.1409 27.4324C81.7834 27.8154 81.6047 28.373 81.6047 29.105V32.9609H80.4555V29.0029C80.4555 28.3049 80.2811 27.7729 79.9321 27.4069C79.5916 27.0323 79.1277 26.8451 78.5403 26.8451C77.936 26.8451 77.4551 27.0408 77.0976 27.4324C76.7401 27.8154 76.5613 28.373 76.5613 29.105V32.9609H75.3994V25.9641H76.5613V26.9727C76.7911 26.6067 77.0976 26.3258 77.4806 26.1301C77.8722 25.9343 78.302 25.8364 78.7702 25.8364C79.3575 25.8364 79.8767 25.9683 80.3279 26.2322C80.779 26.4961 81.1152 26.8834 81.3365 27.3941C81.5323 26.9004 81.8558 26.5174 82.3069 26.245C82.758 25.9726 83.2603 25.8364 83.8135 25.8364ZM91.6055 33.0758C90.9501 33.0758 90.3542 32.9269 89.818 32.629C89.2902 32.331 88.8732 31.9097 88.5667 31.3649C88.2688 30.8117 88.1198 30.1733 88.1198 29.4497C88.1198 28.7347 88.2731 28.1048 88.5795 27.5601C88.8944 27.0068 89.32 26.5854 89.8563 26.296C90.3925 25.9981 90.9926 25.8492 91.6566 25.8492C92.3205 25.8492 92.9206 25.9981 93.4569 26.296C93.9931 26.5854 94.4145 27.0025 94.7209 27.5473C95.0358 28.0921 95.1933 28.7262 95.1933 29.4497C95.1933 30.1733 95.0316 30.8117 94.7081 31.3649C94.3932 31.9097 93.9633 32.331 93.4186 32.629C92.8738 32.9269 92.2694 33.0758 91.6055 33.0758ZM91.6055 32.0544C92.0226 32.0544 92.4141 31.9565 92.7802 31.7607C93.1462 31.565 93.4398 31.2713 93.6612 30.8798C93.891 30.4882 94.0059 30.0115 94.0059 29.4497C94.0059 28.8879 93.8952 28.4113 93.6739 28.0197C93.4526 27.6282 93.1632 27.3388 92.8057 27.1515C92.4482 26.9557 92.0609 26.8578 91.6438 26.8578C91.2182 26.8578 90.8267 26.9557 90.4692 27.1515C90.1202 27.3388 89.8393 27.6282 89.6265 28.0197C89.4137 28.4113 89.3073 28.8879 89.3073 29.4497C89.3073 30.02 89.4094 30.501 89.6137 30.8925C89.8265 31.2841 90.1074 31.5777 90.4564 31.7735C90.8054 31.9608 91.1884 32.0544 91.6055 32.0544ZM106.509 29.1944C106.509 29.4157 106.496 29.6498 106.471 29.8966H100.878C100.921 30.5861 101.155 31.1266 101.58 31.5182C102.015 31.9012 102.538 32.0927 103.151 32.0927C103.653 32.0927 104.07 31.9778 104.402 31.748C104.743 31.5096 104.981 31.1947 105.117 30.8031H106.368C106.181 31.4756 105.807 32.0246 105.245 32.4502C104.683 32.8673 103.985 33.0758 103.151 33.0758C102.487 33.0758 101.891 32.9269 101.363 32.629C100.844 32.331 100.436 31.9097 100.138 31.3649C99.8398 30.8117 99.6908 30.1733 99.6908 29.4497C99.6908 28.7262 99.8355 28.0921 100.125 27.5473C100.414 27.0025 100.819 26.5854 101.338 26.296C101.866 25.9981 102.47 25.8492 103.151 25.8492C103.815 25.8492 104.402 25.9939 104.913 26.2833C105.424 26.5727 105.815 26.9727 106.088 27.4835C106.368 27.9857 106.509 28.556 106.509 29.1944ZM105.309 28.9518C105.309 28.5092 105.211 28.1304 105.015 27.8154C104.819 27.492 104.551 27.2494 104.211 27.0877C103.879 26.9174 103.508 26.8323 103.1 26.8323C102.513 26.8323 102.01 27.0196 101.593 27.3941C101.185 27.7686 100.951 28.2878 100.891 28.9518H105.309ZM110.52 33.0758C109.983 33.0758 109.502 32.9865 109.077 32.8077C108.651 32.6205 108.315 32.3651 108.068 32.0416C107.821 31.7097 107.685 31.3309 107.66 30.9053H108.86C108.894 31.2543 109.056 31.5394 109.345 31.7607C109.643 31.9821 110.03 32.0927 110.507 32.0927C110.949 32.0927 111.298 31.9948 111.554 31.799C111.809 31.6033 111.937 31.3564 111.937 31.0585C111.937 30.7521 111.801 30.5265 111.528 30.3818C111.256 30.2286 110.835 30.0796 110.264 29.9349C109.745 29.7987 109.319 29.6625 108.987 29.5263C108.664 29.3816 108.383 29.1731 108.145 28.9007C107.915 28.6198 107.8 28.2538 107.8 27.8027C107.8 27.4452 107.906 27.1174 108.119 26.8195C108.332 26.5216 108.634 26.2875 109.026 26.1173C109.417 25.9385 109.864 25.8492 110.366 25.8492C111.141 25.8492 111.767 26.0449 112.243 26.4365C112.72 26.828 112.975 27.3643 113.009 28.0453H111.847C111.822 27.6792 111.673 27.3856 111.401 27.1643C111.137 26.943 110.779 26.8323 110.328 26.8323C109.911 26.8323 109.579 26.9217 109.332 27.1004C109.085 27.2792 108.962 27.5133 108.962 27.8027C108.962 28.0325 109.034 28.224 109.179 28.3772C109.332 28.5219 109.519 28.6411 109.741 28.7347C109.971 28.8198 110.286 28.9177 110.686 29.0284C111.188 29.1646 111.596 29.3008 111.911 29.437C112.226 29.5646 112.494 29.7604 112.716 30.0243C112.946 30.2882 113.065 30.6329 113.073 31.0585C113.073 31.4415 112.967 31.7863 112.754 32.0927C112.541 32.3991 112.239 32.6417 111.847 32.8205C111.464 32.9907 111.022 33.0758 110.52 33.0758ZM116.131 26.9217V31.0457C116.131 31.3862 116.203 31.6288 116.348 31.7735C116.492 31.9097 116.743 31.9778 117.101 31.9778H117.956V32.9609H116.909C116.263 32.9609 115.777 32.812 115.454 32.5141C115.13 32.2161 114.969 31.7267 114.969 31.0457V26.9217H114.062V25.9641H114.969V24.2021H116.131V25.9641H117.956V26.9217H116.131ZM118.93 29.437C118.93 28.722 119.075 28.0963 119.364 27.5601C119.654 27.0153 120.049 26.594 120.552 26.296C121.062 25.9981 121.628 25.8492 122.25 25.8492C122.863 25.8492 123.395 25.9811 123.846 26.245C124.297 26.5088 124.633 26.8408 124.854 27.2409V25.9641H126.029V32.9609H124.854V31.6586C124.625 32.0672 124.28 32.4077 123.82 32.68C123.369 32.9439 122.841 33.0758 122.237 33.0758C121.616 33.0758 121.054 32.9226 120.552 32.6162C120.049 32.3098 119.654 31.8799 119.364 31.3266C119.075 30.7734 118.93 30.1435 118.93 29.437ZM124.854 29.4497C124.854 28.922 124.748 28.4623 124.535 28.0708C124.322 27.6792 124.033 27.3813 123.667 27.177C123.31 26.9642 122.914 26.8578 122.48 26.8578C122.046 26.8578 121.65 26.96 121.292 27.1643C120.935 27.3686 120.65 27.6665 120.437 28.058C120.224 28.4496 120.118 28.9092 120.118 29.437C120.118 29.9732 120.224 30.4414 120.437 30.8414C120.65 31.233 120.935 31.5352 121.292 31.748C121.65 31.9523 122.046 32.0544 122.48 32.0544C122.914 32.0544 123.31 31.9523 123.667 31.748C124.033 31.5352 124.322 31.233 124.535 30.8414C124.748 30.4414 124.854 29.9775 124.854 29.4497ZM130.47 33.0758C129.933 33.0758 129.452 32.9865 129.027 32.8077C128.601 32.6205 128.265 32.3651 128.018 32.0416C127.771 31.7097 127.635 31.3309 127.61 30.9053H128.81C128.844 31.2543 129.006 31.5394 129.295 31.7607C129.593 31.9821 129.98 32.0927 130.457 32.0927C130.899 32.0927 131.248 31.9948 131.504 31.799C131.759 31.6033 131.887 31.3564 131.887 31.0585C131.887 30.7521 131.751 30.5265 131.478 30.3818C131.206 30.2286 130.785 30.0796 130.214 29.9349C129.695 29.7987 129.269 29.6625 128.937 29.5263C128.614 29.3816 128.333 29.1731 128.095 28.9007C127.865 28.6198 127.75 28.2538 127.75 27.8027C127.75 27.4452 127.856 27.1174 128.069 26.8195C128.282 26.5216 128.584 26.2875 128.976 26.1173C129.367 25.9385 129.814 25.8492 130.316 25.8492C131.091 25.8492 131.717 26.0449 132.193 26.4365C132.67 26.828 132.925 27.3643 132.959 28.0453H131.797C131.772 27.6792 131.623 27.3856 131.351 27.1643C131.087 26.943 130.729 26.8323 130.278 26.8323C129.861 26.8323 129.529 26.9217 129.282 27.1004C129.035 27.2792 128.912 27.5133 128.912 27.8027C128.912 28.0325 128.984 28.224 129.129 28.3772C129.282 28.5219 129.469 28.6411 129.691 28.7347C129.921 28.8198 130.236 28.9177 130.636 29.0284C131.138 29.1646 131.546 29.3008 131.861 29.437C132.176 29.5646 132.444 29.7604 132.666 30.0243C132.896 30.2882 133.015 30.6329 133.023 31.0585C133.023 31.4415 132.917 31.7863 132.704 32.0927C132.491 32.3991 132.189 32.6417 131.797 32.8205C131.414 32.9907 130.972 33.0758 130.47 33.0758ZM136.936 23.9467C137.779 23.9467 138.46 24.1851 138.979 24.6617C139.498 25.1384 139.758 25.7768 139.758 26.5769C139.758 27.4707 139.481 28.1346 138.928 28.5687C138.375 28.9943 137.626 29.2071 136.681 29.2071L136.642 30.4201H135.634L135.583 28.4028H135.953C136.796 28.4028 137.455 28.2751 137.932 28.0197C138.409 27.7644 138.647 27.2834 138.647 26.5769C138.647 26.0662 138.494 25.6619 138.187 25.364C137.881 25.0661 137.468 24.9171 136.949 24.9171C136.421 24.9171 136.004 25.0618 135.698 25.3512C135.4 25.6321 135.251 26.0194 135.251 26.5131H134.153C134.153 26.0024 134.268 25.5555 134.497 25.1725C134.727 24.7809 135.051 24.4787 135.468 24.2659C135.893 24.0531 136.383 23.9467 136.936 23.9467ZM136.132 33.0375C135.91 33.0375 135.723 32.9609 135.57 32.8077C135.417 32.6545 135.34 32.4672 135.34 32.2459C135.34 32.0246 135.417 31.8374 135.57 31.6841C135.723 31.5309 135.91 31.4543 136.132 31.4543C136.345 31.4543 136.523 31.5309 136.668 31.6841C136.821 31.8374 136.898 32.0246 136.898 32.2459C136.898 32.4672 136.821 32.6545 136.668 32.8077C136.523 32.9609 136.345 33.0375 136.132 33.0375Z" fill="#7B7B7B"/>
<path d="M51.063 69.8136V78.7129H49.9011V74.6782H45.3685V78.7129H44.2066V69.8136H45.3685V73.7206H49.9011V69.8136H51.063ZM59.4309 74.9463C59.4309 75.1676 59.4182 75.4017 59.3926 75.6486H53.8002C53.8428 76.338 54.0769 76.8786 54.5025 77.2701C54.9366 77.6531 55.4601 77.8447 56.0729 77.8447C56.5751 77.8447 56.9922 77.7298 57.3242 77.4999C57.6647 77.2616 57.903 76.9467 58.0392 76.5551H59.2905C59.1032 77.2275 58.7287 77.7766 58.1669 78.2022C57.6051 78.6193 56.9071 78.8278 56.0729 78.8278C55.409 78.8278 54.8132 78.6788 54.2854 78.3809C53.7662 78.083 53.3576 77.6617 53.0597 77.1169C52.7618 76.5636 52.6128 75.9252 52.6128 75.2017C52.6128 74.4782 52.7575 73.844 53.0469 73.2993C53.3363 72.7545 53.7406 72.3374 54.2599 72.048C54.7876 71.7501 55.392 71.6011 56.0729 71.6011C56.7369 71.6011 57.3242 71.7458 57.8349 72.0352C58.3456 72.3246 58.7372 72.7247 59.0096 73.2354C59.2905 73.7376 59.4309 74.3079 59.4309 74.9463ZM58.2307 74.7037C58.2307 74.2611 58.1328 73.8823 57.9371 73.5674C57.7413 73.2439 57.4732 73.0013 57.1327 72.8396C56.8007 72.6694 56.4304 72.5843 56.0219 72.5843C55.4345 72.5843 54.9323 72.7715 54.5152 73.146C54.1067 73.5206 53.8726 74.0398 53.813 74.7037H58.2307ZM62.1265 69.2646V78.7129H60.9646V69.2646H62.1265ZM65.2686 69.2646V78.7129H64.1067V69.2646H65.2686ZM70.3004 78.8278C69.645 78.8278 69.0491 78.6788 68.5129 78.3809C67.9851 78.083 67.568 77.6617 67.2616 77.1169C66.9637 76.5636 66.8147 75.9252 66.8147 75.2017C66.8147 74.4867 66.9679 73.8568 67.2744 73.312C67.5893 72.7587 68.0149 72.3374 68.5512 72.048C69.0874 71.7501 69.6875 71.6011 70.3515 71.6011C71.0154 71.6011 71.6155 71.7501 72.1517 72.048C72.688 72.3374 73.1093 72.7545 73.4158 73.2993C73.7307 73.844 73.8882 74.4782 73.8882 75.2017C73.8882 75.9252 73.7265 76.5636 73.403 77.1169C73.0881 77.6617 72.6582 78.083 72.1134 78.3809C71.5687 78.6788 70.9643 78.8278 70.3004 78.8278ZM70.3004 77.8064C70.7175 77.8064 71.109 77.7085 71.475 77.5127C71.8411 77.3169 72.1347 77.0233 72.356 76.6317C72.5859 76.2402 72.7008 75.7635 72.7008 75.2017C72.7008 74.6399 72.5901 74.1632 72.3688 73.7717C72.1475 73.3801 71.8581 73.0907 71.5006 72.9035C71.1431 72.7077 70.7558 72.6098 70.3387 72.6098C69.9131 72.6098 69.5215 72.7077 69.164 72.9035C68.815 73.0907 68.5341 73.3801 68.3213 73.7717C68.1085 74.1632 68.0021 74.6399 68.0021 75.2017C68.0021 75.772 68.1043 76.2529 68.3086 76.6445C68.5214 77.036 68.8023 77.3297 69.1513 77.5255C69.5003 77.7127 69.8833 77.8064 70.3004 77.8064ZM76.6161 77.1041L75.186 80.5387H74.4072L75.3393 77.1041H76.6161ZM84.8239 71.5883C85.3516 71.5883 85.8283 71.7033 86.2539 71.9331C86.6795 72.1544 87.0115 72.4906 87.2498 72.9418C87.4966 73.3929 87.6201 73.9419 87.6201 74.5888V78.7129H86.471V74.7548C86.471 74.0568 86.2965 73.5248 85.9475 73.1588C85.5985 72.7843 85.1218 72.597 84.5174 72.597C83.9046 72.597 83.4151 72.7885 83.0491 73.1716C82.6916 73.5546 82.5129 74.1122 82.5129 74.8442V78.7129H81.351V69.2646H82.5129V72.7119C82.7427 72.3544 83.0576 72.0778 83.4577 71.882C83.8663 71.6862 84.3217 71.5883 84.8239 71.5883ZM92.5696 78.8278C91.9141 78.8278 91.3183 78.6788 90.782 78.3809C90.2543 78.083 89.8372 77.6617 89.5308 77.1169C89.2329 76.5636 89.0839 75.9252 89.0839 75.2017C89.0839 74.4867 89.2371 73.8568 89.5435 73.312C89.8585 72.7587 90.2841 72.3374 90.8203 72.048C91.3566 71.7501 91.9567 71.6011 92.6206 71.6011C93.2846 71.6011 93.8847 71.7501 94.4209 72.048C94.9572 72.3374 95.3785 72.7545 95.685 73.2993C95.9999 73.844 96.1574 74.4782 96.1574 75.2017C96.1574 75.9252 95.9956 76.5636 95.6722 77.1169C95.3572 77.6617 94.9274 78.083 94.3826 78.3809C93.8379 78.6788 93.2335 78.8278 92.5696 78.8278ZM92.5696 77.8064C92.9867 77.8064 93.3782 77.7085 93.7442 77.5127C94.1102 77.3169 94.4039 77.0233 94.6252 76.6317C94.855 76.2402 94.9699 75.7635 94.9699 75.2017C94.9699 74.6399 94.8593 74.1632 94.638 73.7717C94.4167 73.3801 94.1273 73.0907 93.7698 72.9035C93.4123 72.7077 93.025 72.6098 92.6079 72.6098C92.1823 72.6098 91.7907 72.7077 91.4332 72.9035C91.0842 73.0907 90.8033 73.3801 90.5905 73.7717C90.3777 74.1632 90.2713 74.6399 90.2713 75.2017C90.2713 75.772 90.3735 76.2529 90.5778 76.6445C90.7906 77.036 91.0715 77.3297 91.4204 77.5255C91.7694 77.7127 92.1525 77.8064 92.5696 77.8064ZM107.006 71.716L104.822 78.7129H103.622L101.937 73.1588L100.251 78.7129H99.0512L96.8551 71.716H98.0425L99.6513 77.5893L101.388 71.716H102.575L104.273 77.6021L105.857 71.716H107.006ZM111.129 75.1889C111.129 74.4739 111.273 73.8483 111.563 73.312C111.852 72.7673 112.248 72.3459 112.75 72.048C113.261 71.7501 113.827 71.6011 114.448 71.6011C115.061 71.6011 115.593 71.7331 116.044 71.9969C116.495 72.2608 116.832 72.5928 117.053 72.9928V71.716H118.228V78.7129H117.053V77.4106C116.823 77.8191 116.478 78.1596 116.019 78.432C115.568 78.6959 115.04 78.8278 114.436 78.8278C113.814 78.8278 113.252 78.6746 112.75 78.3682C112.248 78.0617 111.852 77.6319 111.563 77.0786C111.273 76.5253 111.129 75.8954 111.129 75.1889ZM117.053 75.2017C117.053 74.6739 116.947 74.2143 116.734 73.8227C116.521 73.4312 116.232 73.1333 115.866 72.929C115.508 72.7162 115.112 72.6098 114.678 72.6098C114.244 72.6098 113.848 72.7119 113.491 72.9162C113.133 73.1205 112.848 73.4184 112.635 73.81C112.422 74.2015 112.316 74.6612 112.316 75.1889C112.316 75.7252 112.422 76.1933 112.635 76.5934C112.848 76.985 113.133 77.2871 113.491 77.4999C113.848 77.7042 114.244 77.8064 114.678 77.8064C115.112 77.8064 115.508 77.7042 115.866 77.4999C116.232 77.2871 116.521 76.985 116.734 76.5934C116.947 76.1933 117.053 75.7294 117.053 75.2017ZM121.353 72.8524C121.557 72.4523 121.847 72.1416 122.221 71.9203C122.604 71.699 123.068 71.5883 123.613 71.5883V72.7885H123.307C122.004 72.7885 121.353 73.495 121.353 74.908V78.7129H120.191V71.716H121.353V72.8524ZM131.338 74.9463C131.338 75.1676 131.325 75.4017 131.3 75.6486H125.708C125.75 76.338 125.984 76.8786 126.41 77.2701C126.844 77.6531 127.367 77.8447 127.98 77.8447C128.482 77.8447 128.9 77.7298 129.231 77.4999C129.572 77.2616 129.81 76.9467 129.946 76.5551H131.198C131.01 77.2275 130.636 77.7766 130.074 78.2022C129.512 78.6193 128.814 78.8278 127.98 78.8278C127.316 78.8278 126.72 78.6788 126.193 78.3809C125.673 78.083 125.265 77.6617 124.967 77.1169C124.669 76.5636 124.52 75.9252 124.52 75.2017C124.52 74.4782 124.665 73.844 124.954 73.2993C125.244 72.7545 125.648 72.3374 126.167 72.048C126.695 71.7501 127.299 71.6011 127.98 71.6011C128.644 71.6011 129.231 71.7458 129.742 72.0352C130.253 72.3246 130.644 72.7247 130.917 73.2354C131.198 73.7376 131.338 74.3079 131.338 74.9463ZM130.138 74.7037C130.138 74.2611 130.04 73.8823 129.844 73.5674C129.649 73.2439 129.38 73.0013 129.04 72.8396C128.708 72.6694 128.338 72.5843 127.929 72.5843C127.342 72.5843 126.84 72.7715 126.423 73.146C126.014 73.5206 125.78 74.0398 125.72 74.7037H130.138ZM142.302 71.716L138.089 82.007H136.889L138.268 78.6363L135.446 71.716H136.735L138.932 77.385L141.102 71.716H142.302ZM146.522 78.8278C145.866 78.8278 145.271 78.6788 144.734 78.3809C144.207 78.083 143.789 77.6617 143.483 77.1169C143.185 76.5636 143.036 75.9252 143.036 75.2017C143.036 74.4867 143.189 73.8568 143.496 73.312C143.811 72.7587 144.236 72.3374 144.773 72.048C145.309 71.7501 145.909 71.6011 146.573 71.6011C147.237 71.6011 147.837 71.7501 148.373 72.048C148.909 72.3374 149.331 72.7545 149.637 73.2993C149.952 73.844 150.11 74.4782 150.11 75.2017C150.11 75.9252 149.948 76.5636 149.624 77.1169C149.31 77.6617 148.88 78.083 148.335 78.3809C147.79 78.6788 147.186 78.8278 146.522 78.8278ZM146.522 77.8064C146.939 77.8064 147.33 77.7085 147.697 77.5127C148.063 77.3169 148.356 77.0233 148.577 76.6317C148.807 76.2402 148.922 75.7635 148.922 75.2017C148.922 74.6399 148.812 74.1632 148.59 73.7717C148.369 73.3801 148.08 73.0907 147.722 72.9035C147.365 72.7077 146.977 72.6098 146.56 72.6098C146.135 72.6098 145.743 72.7077 145.385 72.9035C145.037 73.0907 144.756 73.3801 144.543 73.7717C144.33 74.1632 144.224 74.6399 144.224 75.2017C144.224 75.772 144.326 76.2529 144.53 76.6445C144.743 77.036 145.024 77.3297 145.373 77.5255C145.722 77.7127 146.105 77.8064 146.522 77.8064ZM157.843 71.716V78.7129H156.681V77.6787C156.459 78.0362 156.149 78.3171 155.749 78.5214C155.357 78.7171 154.923 78.815 154.446 78.815C153.902 78.815 153.412 78.7044 152.978 78.4831C152.544 78.2532 152.199 77.9128 151.944 77.4616C151.697 77.0105 151.573 76.4615 151.573 75.8146V71.716H152.723V75.6613C152.723 76.3508 152.897 76.8828 153.246 77.2573C153.595 77.6234 154.072 77.8064 154.676 77.8064C155.297 77.8064 155.787 77.6148 156.144 77.2318C156.502 76.8488 156.681 76.2912 156.681 75.5592V71.716H157.843ZM160.966 72.8524C161.171 72.4523 161.46 72.1416 161.834 71.9203C162.218 71.699 162.681 71.5883 163.226 71.5883V72.7885H162.92C161.617 72.7885 160.966 73.495 160.966 74.908V78.7129H159.804V71.716H160.966V72.8524ZM166.84 69.6987C167.683 69.6987 168.364 69.937 168.883 70.4137C169.402 70.8904 169.662 71.5288 169.662 72.3289C169.662 73.2227 169.385 73.8866 168.832 74.3207C168.279 74.7463 167.53 74.9591 166.585 74.9591L166.546 76.1721H165.538L165.487 74.1547H165.857C166.7 74.1547 167.359 74.027 167.836 73.7717C168.313 73.5163 168.551 73.0354 168.551 72.3289C168.551 71.8182 168.398 71.4139 168.091 71.1159C167.785 70.818 167.372 70.6691 166.853 70.6691C166.325 70.6691 165.908 70.8138 165.602 71.1032C165.304 71.3841 165.155 71.7714 165.155 72.2651H164.057C164.057 71.7543 164.172 71.3075 164.401 70.9244C164.631 70.5329 164.955 70.2307 165.372 70.0179C165.797 69.8051 166.287 69.6987 166.84 69.6987ZM166.036 78.7895C165.814 78.7895 165.627 78.7129 165.474 78.5597C165.321 78.4065 165.244 78.2192 165.244 77.9979C165.244 77.7766 165.321 77.5893 165.474 77.4361C165.627 77.2829 165.814 77.2063 166.036 77.2063C166.249 77.2063 166.427 77.2829 166.572 77.4361C166.725 77.5893 166.802 77.7766 166.802 77.9979C166.802 78.2192 166.725 78.4065 166.572 78.5597C166.427 78.7129 166.249 78.7895 166.036 78.7895Z" fill="#7B7B7B"/>
<g filter="url(#filter2_d)">
<circle cx="13.1205" cy="13.64" r="10.64" fill="white"/>
</g>
<path d="M13.1199 23.2165C10.5811 23.2137 8.147 22.2039 6.35175 20.4086C4.55651 18.6134 3.54673 16.1793 3.54395 13.6405C3.54686 11.1016 4.55677 8.66759 6.35199 6.87238C8.1472 5.07716 10.5811 4.06737 13.1199 4.06445C15.6588 4.06737 18.0927 5.07716 19.8879 6.87238C21.6831 8.66759 22.693 11.1016 22.6959 13.6405C22.6932 16.1793 21.6834 18.6134 19.8881 20.4086C18.0929 22.2039 15.6588 23.2137 13.1199 23.2165V23.2165ZM12.737 11.4475H9.48102C8.7535 11.4484 8.05608 11.7379 7.54174 12.2524C7.02739 12.767 6.73814 13.4646 6.7375 14.1921C6.73826 14.9195 7.02763 15.6168 7.54197 16.1311C8.05632 16.6455 8.75362 16.9348 9.48102 16.9356H16.8201C17.5475 16.9347 18.2449 16.6453 18.7592 16.131C19.2735 15.6167 19.5628 14.9194 19.5636 14.1921C19.5629 13.4646 19.2737 12.7671 18.7594 12.2526C18.2451 11.7381 17.5476 11.4485 16.8201 11.4475H13.5644V9.90053C13.7717 9.81776 13.9494 9.67455 14.0743 9.48953C14.1992 9.3045 14.2655 9.08622 14.2648 8.86297C14.2643 8.56696 14.1464 8.28328 13.937 8.07405C13.7276 7.86483 13.4438 7.74712 13.1478 7.74686C12.8519 7.74724 12.5682 7.86495 12.359 8.07417C12.1497 8.28339 12.032 8.56709 12.0317 8.86297C12.0309 9.08641 12.0975 9.30493 12.2227 9.49C12.3479 9.67506 12.5258 9.8181 12.7335 9.90053L12.737 11.4475ZM13.1433 16.0498H13.1162C12.9682 16.0438 12.8227 16.0087 12.6884 15.9464C12.554 15.8841 12.4334 15.7959 12.3332 15.6868C12.2326 15.5783 12.1545 15.4509 12.1034 15.312C12.0524 15.1731 12.0294 15.0255 12.0359 14.8777L14.2293 14.8562L14.2246 14.8992V14.9117C14.2287 15.0574 14.2038 15.2024 14.1514 15.3385C14.0991 15.4745 14.0203 15.5988 13.9195 15.7041C13.8192 15.8105 13.6987 15.8957 13.5651 15.955C13.4314 16.0142 13.2872 16.0463 13.141 16.0493L13.1433 16.0498ZM16.0229 15.5331C15.676 15.5328 15.3432 15.395 15.0978 15.1498C14.8524 14.9046 14.7144 14.572 14.7139 14.225C14.7144 13.8781 14.8524 13.5455 15.0978 13.3003C15.3432 13.0551 15.676 12.9172 16.0229 12.917C16.3698 12.9172 16.7026 13.0551 16.948 13.3003C17.1934 13.5455 17.3314 13.8781 17.3319 14.225C17.3313 14.5722 17.1929 14.905 16.9471 15.1501C16.7013 15.3953 16.3682 15.5329 16.021 15.5326L16.0229 15.5331ZM10.2773 15.5331C9.93062 15.5326 9.59842 15.3947 9.35337 15.1494C9.10832 14.9042 8.97044 14.5717 8.97019 14.225C8.97044 13.8784 9.10832 13.546 9.35337 13.3008C9.59842 13.0555 9.93062 12.9175 10.2773 12.917C10.6242 12.9172 10.957 13.0551 11.2024 13.3003C11.4478 13.5455 11.5858 13.8781 11.5863 14.225C11.5857 14.572 11.4474 14.9045 11.2019 15.1497C10.9564 15.3948 10.6238 15.5325 10.2768 15.5326L10.2773 15.5331Z" fill="#0069E6"/>
<g filter="url(#filter3_d)">
<path d="M12.0557 114.72C12.0557 108.844 16.8194 104.08 22.6957 104.08H132.288C138.164 104.08 142.928 108.844 142.928 114.72V136H22.6957C16.8193 136 12.0557 131.236 12.0557 125.36V114.72Z" fill="white"/>
</g>
<path d="M30.3571 124.554C29.5314 124.554 28.7781 124.363 28.0972 123.98C27.4162 123.588 26.8757 123.048 26.4756 122.358C26.0841 121.66 25.8883 120.877 25.8883 120.009C25.8883 119.141 26.0841 118.362 26.4756 117.672C26.8757 116.974 27.4162 116.434 28.0972 116.051C28.7781 115.659 29.5314 115.463 30.3571 115.463C31.1913 115.463 31.9489 115.659 32.6298 116.051C33.3108 116.434 33.847 116.97 34.2386 117.659C34.6301 118.349 34.8259 119.132 34.8259 120.009C34.8259 120.886 34.6301 121.669 34.2386 122.358C33.847 123.048 33.3108 123.588 32.6298 123.98C31.9489 124.363 31.1913 124.554 30.3571 124.554ZM30.3571 123.546C30.9785 123.546 31.536 123.401 32.0297 123.111C32.5319 122.822 32.9235 122.409 33.2044 121.873C33.4938 121.337 33.6385 120.715 33.6385 120.009C33.6385 119.294 33.4938 118.672 33.2044 118.145C32.9235 117.608 32.5362 117.196 32.0425 116.906C31.5488 116.617 30.987 116.472 30.3571 116.472C29.7272 116.472 29.1654 116.617 28.6717 116.906C28.178 117.196 27.7865 117.608 27.4971 118.145C27.2162 118.672 27.0757 119.294 27.0757 120.009C27.0757 120.715 27.2162 121.337 27.4971 121.873C27.7865 122.409 28.178 122.822 28.6717 123.111C29.1739 123.401 29.7357 123.546 30.3571 123.546ZM37.5217 115.017V124.465H36.3598V115.017H37.5217ZM39.0678 120.941C39.0678 120.226 39.2125 119.6 39.5019 119.064C39.7913 118.519 40.1871 118.098 40.6893 117.8C41.2 117.502 41.7661 117.353 42.3875 117.353C43.0003 117.353 43.5323 117.485 43.9835 117.749C44.4346 118.013 44.7708 118.345 44.9921 118.745V117.468H46.1668V124.465H44.9921V123.163C44.7623 123.571 44.4176 123.912 43.9579 124.184C43.5068 124.448 42.979 124.58 42.3747 124.58C41.7533 124.58 41.1915 124.427 40.6893 124.12C40.1871 123.814 39.7913 123.384 39.5019 122.831C39.2125 122.277 39.0678 121.647 39.0678 120.941ZM44.9921 120.954C44.9921 120.426 44.8857 119.966 44.6729 119.575C44.4601 119.183 44.1707 118.885 43.8047 118.681C43.4472 118.468 43.0514 118.362 42.6173 118.362C42.1832 118.362 41.7874 118.464 41.4299 118.668C41.0724 118.872 40.7872 119.17 40.5744 119.562C40.3616 119.953 40.2552 120.413 40.2552 120.941C40.2552 121.477 40.3616 121.945 40.5744 122.345C40.7872 122.737 41.0724 123.039 41.4299 123.252C41.7874 123.456 42.1832 123.558 42.6173 123.558C43.0514 123.558 43.4472 123.456 43.8047 123.252C44.1707 123.039 44.4601 122.737 44.6729 122.345C44.8857 121.945 44.9921 121.481 44.9921 120.954ZM44.0856 115.489L41.366 116.944V116.076L44.0856 114.48V115.489ZM49.3305 122.856L47.9004 126.291H47.1216L48.0537 122.856H49.3305ZM53.6313 120.954C53.6313 120.23 53.776 119.6 54.0654 119.064C54.3548 118.519 54.7549 118.098 55.2656 117.8C55.7848 117.502 56.3764 117.353 57.0403 117.353C57.9 117.353 58.6065 117.562 59.1598 117.979C59.7216 118.396 60.0919 118.975 60.2706 119.715H59.0194C58.9002 119.29 58.6661 118.953 58.3171 118.706C57.9767 118.46 57.5511 118.336 57.0403 118.336C56.3764 118.336 55.8401 118.566 55.4316 119.026C55.023 119.477 54.8187 120.119 54.8187 120.954C54.8187 121.796 55.023 122.447 55.4316 122.907C55.8401 123.367 56.3764 123.597 57.0403 123.597C57.5511 123.597 57.9767 123.477 58.3171 123.239C58.6576 123.001 58.8917 122.66 59.0194 122.218H60.2706C60.0834 122.933 59.7088 123.507 59.1471 123.941C58.5853 124.367 57.883 124.58 57.0403 124.58C56.3764 124.58 55.7848 124.431 55.2656 124.133C54.7549 123.835 54.3548 123.414 54.0654 122.869C53.776 122.324 53.6313 121.686 53.6313 120.954ZM64.8725 124.58C64.2171 124.58 63.6212 124.431 63.085 124.133C62.5572 123.835 62.1402 123.414 61.8337 122.869C61.5358 122.316 61.3868 121.677 61.3868 120.954C61.3868 120.239 61.5401 119.609 61.8465 119.064C62.1614 118.511 62.587 118.089 63.1233 117.8C63.6595 117.502 64.2596 117.353 64.9236 117.353C65.5875 117.353 66.1876 117.502 66.7239 117.8C67.2601 118.089 67.6815 118.506 67.9879 119.051C68.3028 119.596 68.4603 120.23 68.4603 120.954C68.4603 121.677 68.2986 122.316 67.9751 122.869C67.6602 123.414 67.2303 123.835 66.6856 124.133C66.1408 124.431 65.5364 124.58 64.8725 124.58ZM64.8725 123.558C65.2896 123.558 65.6811 123.46 66.0472 123.265C66.4132 123.069 66.7068 122.775 66.9282 122.384C67.158 121.992 67.2729 121.515 67.2729 120.954C67.2729 120.392 67.1622 119.915 66.9409 119.524C66.7196 119.132 66.4302 118.843 66.0727 118.655C65.7152 118.46 65.3279 118.362 64.9108 118.362C64.4852 118.362 64.0937 118.46 63.7362 118.655C63.3872 118.843 63.1063 119.132 62.8935 119.524C62.6807 119.915 62.5743 120.392 62.5743 120.954C62.5743 121.524 62.6764 122.005 62.8807 122.396C63.0935 122.788 63.3744 123.082 63.7234 123.277C64.0724 123.465 64.4554 123.558 64.8725 123.558ZM78.4021 117.34C78.9469 117.34 79.432 117.455 79.8576 117.685C80.2832 117.906 80.6195 118.243 80.8663 118.694C81.1132 119.145 81.2366 119.694 81.2366 120.341V124.465H80.0875V120.507C80.0875 119.809 79.913 119.277 79.564 118.911C79.2235 118.536 78.7596 118.349 78.1723 118.349C77.5679 118.349 77.087 118.545 76.7295 118.936C76.372 119.319 76.1932 119.877 76.1932 120.609V124.465H75.0441V120.507C75.0441 119.809 74.8696 119.277 74.5206 118.911C74.1801 118.536 73.7162 118.349 73.1289 118.349C72.5246 118.349 72.0436 118.545 71.6861 118.936C71.3286 119.319 71.1499 119.877 71.1499 120.609V124.465H69.988V117.468H71.1499V118.477C71.3797 118.111 71.6861 117.83 72.0692 117.634C72.4607 117.438 72.8906 117.34 73.3587 117.34C73.9461 117.34 74.4653 117.472 74.9164 117.736C75.3676 118 75.7038 118.387 75.9251 118.898C76.1209 118.404 76.4443 118.021 76.8955 117.749C77.3466 117.476 77.8488 117.34 78.4021 117.34ZM86.1941 124.58C85.5386 124.58 84.9428 124.431 84.4065 124.133C83.8788 123.835 83.4617 123.414 83.1553 122.869C82.8574 122.316 82.7084 121.677 82.7084 120.954C82.7084 120.239 82.8616 119.609 83.168 119.064C83.483 118.511 83.9086 118.089 84.4448 117.8C84.9811 117.502 85.5812 117.353 86.2451 117.353C86.9091 117.353 87.5092 117.502 88.0454 117.8C88.5817 118.089 89.003 118.506 89.3095 119.051C89.6244 119.596 89.7819 120.23 89.7819 120.954C89.7819 121.677 89.6201 122.316 89.2967 122.869C88.9817 123.414 88.5519 123.835 88.0071 124.133C87.4624 124.431 86.858 124.58 86.1941 124.58ZM86.1941 123.558C86.6112 123.558 87.0027 123.46 87.3687 123.265C87.7347 123.069 88.0284 122.775 88.2497 122.384C88.4795 121.992 88.5944 121.515 88.5944 120.954C88.5944 120.392 88.4838 119.915 88.2625 119.524C88.0412 119.132 87.7518 118.843 87.3943 118.655C87.0368 118.46 86.6495 118.362 86.2324 118.362C85.8068 118.362 85.4152 118.46 85.0577 118.655C84.7087 118.843 84.4278 119.132 84.215 119.524C84.0022 119.915 83.8958 120.392 83.8958 120.954C83.8958 121.524 83.998 122.005 84.2023 122.396C84.4151 122.788 84.696 123.082 85.0449 123.277C85.3939 123.465 85.777 123.558 86.1941 123.558ZM101.098 120.698C101.098 120.92 101.085 121.154 101.059 121.401H95.4668C95.5094 122.09 95.7435 122.631 96.1691 123.022C96.6032 123.405 97.1267 123.597 97.7395 123.597C98.2417 123.597 98.6588 123.482 98.9908 123.252C99.3313 123.014 99.5696 122.699 99.7058 122.307H100.957C100.77 122.979 100.395 123.529 99.8335 123.954C99.2717 124.371 98.5737 124.58 97.7395 124.58C97.0756 124.58 96.4798 124.431 95.952 124.133C95.4328 123.835 95.0242 123.414 94.7263 122.869C94.4284 122.316 94.2794 121.677 94.2794 120.954C94.2794 120.23 94.4241 119.596 94.7135 119.051C95.0029 118.506 95.4072 118.089 95.9265 117.8C96.4542 117.502 97.0586 117.353 97.7395 117.353C98.4035 117.353 98.9908 117.498 99.5015 117.787C100.012 118.077 100.404 118.477 100.676 118.987C100.957 119.49 101.098 120.06 101.098 120.698ZM99.8973 120.456C99.8973 120.013 99.7994 119.634 99.6037 119.319C99.4079 118.996 99.1398 118.753 98.7993 118.592C98.4673 118.421 98.097 118.336 97.6885 118.336C97.1011 118.336 96.5989 118.523 96.1818 118.898C95.7733 119.273 95.5392 119.792 95.4796 120.456H99.8973ZM105.108 124.58C104.572 124.58 104.091 124.49 103.665 124.312C103.24 124.124 102.904 123.869 102.657 123.546C102.41 123.214 102.274 122.835 102.248 122.409H103.448C103.482 122.758 103.644 123.043 103.933 123.265C104.231 123.486 104.619 123.597 105.095 123.597C105.538 123.597 105.887 123.499 106.142 123.303C106.398 123.107 106.525 122.86 106.525 122.562C106.525 122.256 106.389 122.03 106.117 121.886C105.844 121.732 105.423 121.584 104.853 121.439C104.334 121.303 103.908 121.166 103.576 121.03C103.253 120.886 102.972 120.677 102.733 120.405C102.503 120.124 102.389 119.758 102.389 119.307C102.389 118.949 102.495 118.621 102.708 118.323C102.921 118.026 103.223 117.791 103.614 117.621C104.006 117.442 104.453 117.353 104.955 117.353C105.73 117.353 106.355 117.549 106.832 117.94C107.309 118.332 107.564 118.868 107.598 119.549H106.436C106.41 119.183 106.262 118.889 105.989 118.668C105.725 118.447 105.368 118.336 104.917 118.336C104.5 118.336 104.168 118.426 103.921 118.604C103.674 118.783 103.55 119.017 103.55 119.307C103.55 119.536 103.623 119.728 103.768 119.881C103.921 120.026 104.108 120.145 104.329 120.239C104.559 120.324 104.874 120.422 105.274 120.532C105.776 120.668 106.185 120.805 106.5 120.941C106.815 121.069 107.083 121.264 107.304 121.528C107.534 121.792 107.653 122.137 107.662 122.562C107.662 122.945 107.555 123.29 107.343 123.597C107.13 123.903 106.828 124.146 106.436 124.324C106.053 124.495 105.61 124.58 105.108 124.58ZM110.719 118.426V122.55C110.719 122.89 110.792 123.133 110.936 123.277C111.081 123.414 111.332 123.482 111.69 123.482H112.545V124.465H111.498C110.851 124.465 110.366 124.316 110.042 124.018C109.719 123.72 109.557 123.231 109.557 122.55V118.426H108.651V117.468H109.557V115.706H110.719V117.468H112.545V118.426H110.719ZM113.519 120.941C113.519 120.226 113.663 119.6 113.953 119.064C114.242 118.519 114.638 118.098 115.14 117.8C115.651 117.502 116.217 117.353 116.838 117.353C117.451 117.353 117.983 117.485 118.434 117.749C118.885 118.013 119.222 118.345 119.443 118.745V117.468H120.618V124.465H119.443V123.163C119.213 123.571 118.868 123.912 118.409 124.184C117.958 124.448 117.43 124.58 116.826 124.58C116.204 124.58 115.642 124.427 115.14 124.12C114.638 123.814 114.242 123.384 113.953 122.831C113.663 122.277 113.519 121.647 113.519 120.941ZM119.443 120.954C119.443 120.426 119.337 119.966 119.124 119.575C118.911 119.183 118.622 118.885 118.256 118.681C117.898 118.468 117.502 118.362 117.068 118.362C116.634 118.362 116.238 118.464 115.881 118.668C115.523 118.872 115.238 119.17 115.025 119.562C114.812 119.953 114.706 120.413 114.706 120.941C114.706 121.477 114.812 121.945 115.025 122.345C115.238 122.737 115.523 123.039 115.881 123.252C116.238 123.456 116.634 123.558 117.068 123.558C117.502 123.558 117.898 123.456 118.256 123.252C118.622 123.039 118.911 122.737 119.124 122.345C119.337 121.945 119.443 121.481 119.443 120.954ZM118.536 115.489L115.817 116.944V116.076L118.536 114.48V115.489ZM125.058 124.58C124.522 124.58 124.041 124.49 123.615 124.312C123.19 124.124 122.854 123.869 122.607 123.546C122.36 123.214 122.224 122.835 122.198 122.409H123.398C123.432 122.758 123.594 123.043 123.884 123.265C124.181 123.486 124.569 123.597 125.045 123.597C125.488 123.597 125.837 123.499 126.092 123.303C126.348 123.107 126.475 122.86 126.475 122.562C126.475 122.256 126.339 122.03 126.067 121.886C125.794 121.732 125.373 121.584 124.803 121.439C124.284 121.303 123.858 121.166 123.526 121.03C123.203 120.886 122.922 120.677 122.683 120.405C122.453 120.124 122.339 119.758 122.339 119.307C122.339 118.949 122.445 118.621 122.658 118.323C122.871 118.026 123.173 117.791 123.564 117.621C123.956 117.442 124.403 117.353 124.905 117.353C125.68 117.353 126.305 117.549 126.782 117.94C127.259 118.332 127.514 118.868 127.548 119.549H126.386C126.361 119.183 126.212 118.889 125.939 118.668C125.675 118.447 125.318 118.336 124.867 118.336C124.45 118.336 124.118 118.426 123.871 118.604C123.624 118.783 123.5 119.017 123.5 119.307C123.5 119.536 123.573 119.728 123.718 119.881C123.871 120.026 124.058 120.145 124.279 120.239C124.509 120.324 124.824 120.422 125.224 120.532C125.726 120.668 126.135 120.805 126.45 120.941C126.765 121.069 127.033 121.264 127.254 121.528C127.484 121.792 127.603 122.137 127.612 122.562C127.612 122.945 127.505 123.29 127.293 123.597C127.08 123.903 126.778 124.146 126.386 124.324C126.003 124.495 125.56 124.58 125.058 124.58ZM131.525 115.451C132.367 115.451 133.048 115.689 133.568 116.166C134.087 116.642 134.346 117.281 134.346 118.081C134.346 118.975 134.07 119.639 133.516 120.073C132.963 120.498 132.214 120.711 131.269 120.711L131.231 121.924H130.222L130.171 119.907H130.542C131.384 119.907 132.044 119.779 132.521 119.524C132.997 119.268 133.236 118.787 133.236 118.081C133.236 117.57 133.082 117.166 132.776 116.868C132.469 116.57 132.057 116.421 131.537 116.421C131.01 116.421 130.593 116.566 130.286 116.855C129.988 117.136 129.839 117.523 129.839 118.017H128.741C128.741 117.506 128.856 117.059 129.086 116.676C129.316 116.285 129.639 115.983 130.056 115.77C130.482 115.557 130.971 115.451 131.525 115.451ZM130.72 124.541C130.499 124.541 130.312 124.465 130.158 124.312C130.005 124.158 129.929 123.971 129.929 123.75C129.929 123.529 130.005 123.341 130.158 123.188C130.312 123.035 130.499 122.958 130.72 122.958C130.933 122.958 131.112 123.035 131.257 123.188C131.41 123.341 131.486 123.529 131.486 123.75C131.486 123.971 131.41 124.158 131.257 124.312C131.112 124.465 130.933 124.541 130.72 124.541Z" fill="#7B7B7B"/>
<g filter="url(#filter4_d)">
<circle cx="13.1205" cy="105.144" r="10.64" fill="white"/>
</g>
<path d="M13.1199 114.72C10.5811 114.718 8.147 113.708 6.35175 111.913C4.55651 110.117 3.54673 107.683 3.54395 105.144C3.54686 102.606 4.55677 100.171 6.35199 98.3763C8.1472 96.5811 10.5811 95.5713 13.1199 95.5684C15.6588 95.5713 18.0927 96.5811 19.8879 98.3763C21.6831 100.171 22.693 102.606 22.6959 105.144C22.6932 107.683 21.6834 110.117 19.8881 111.913C18.0929 113.708 15.6588 114.718 13.1199 114.72V114.72ZM12.737 102.951H9.48102C8.7535 102.952 8.05608 103.242 7.54174 103.756C7.02739 104.271 6.73814 104.968 6.7375 105.696C6.73826 106.423 7.02763 107.121 7.54197 107.635C8.05632 108.149 8.75362 108.439 9.48102 108.439H16.8201C17.5475 108.439 18.2449 108.149 18.7592 107.635C19.2735 107.121 19.5628 106.423 19.5636 105.696C19.5629 104.969 19.2737 104.271 18.7594 103.756C18.2451 103.242 17.5476 102.952 16.8201 102.951H13.5644V101.404C13.7717 101.322 13.9494 101.178 14.0743 100.993C14.1992 100.808 14.2655 100.59 14.2648 100.367C14.2643 100.071 14.1464 99.7872 13.937 99.578C13.7276 99.3687 13.4438 99.251 13.1478 99.2508C12.8519 99.2512 12.5682 99.3689 12.359 99.5781C12.1497 99.7873 12.032 100.071 12.0317 100.367C12.0309 100.59 12.0975 100.809 12.2227 100.994C12.3479 101.179 12.5258 101.322 12.7335 101.404L12.737 102.951ZM13.1433 107.554H13.1162C12.9682 107.548 12.8227 107.513 12.6884 107.45C12.554 107.388 12.4334 107.3 12.3332 107.191C12.2326 107.082 12.1545 106.955 12.1034 106.816C12.0524 106.677 12.0294 106.529 12.0359 106.382L14.2293 106.36L14.2246 106.403V106.416C14.2287 106.561 14.2038 106.706 14.1514 106.842C14.0991 106.978 14.0203 107.103 13.9195 107.208C13.8192 107.314 13.6987 107.4 13.5651 107.459C13.4314 107.518 13.2872 107.55 13.141 107.553L13.1433 107.554ZM16.0229 107.037C15.676 107.037 15.3432 106.899 15.0978 106.654C14.8524 106.408 14.7144 106.076 14.7139 105.729C14.7144 105.382 14.8524 105.049 15.0978 104.804C15.3432 104.559 15.676 104.421 16.0229 104.421C16.3698 104.421 16.7026 104.559 16.948 104.804C17.1934 105.049 17.3314 105.382 17.3319 105.729C17.3313 106.076 17.1929 106.409 16.9471 106.654C16.7013 106.899 16.3682 107.037 16.021 107.037L16.0229 107.037ZM10.2773 107.037C9.93062 107.036 9.59842 106.899 9.35337 106.653C9.10832 106.408 8.97044 106.076 8.97019 105.729C8.97044 105.382 9.10832 105.05 9.35337 104.805C9.59842 104.559 9.93062 104.421 10.2773 104.421C10.6242 104.421 10.957 104.559 11.2024 104.804C11.4478 105.049 11.5858 105.382 11.5863 105.729C11.5857 106.076 11.4474 106.408 11.2019 106.654C10.9564 106.899 10.6238 107.036 10.2768 107.037L10.2773 107.037Z" fill="#0069E6"/>
<g filter="url(#filter5_d)">
<circle cx="183.36" cy="59.392" r="10.64" fill="white"/>
</g>
<path d="M183.36 68.9684C180.821 68.9656 178.387 67.9558 176.592 66.1606C174.797 64.3654 173.787 61.9313 173.784 59.3924C173.787 56.8536 174.797 54.4195 176.592 52.6243C178.387 50.8291 180.821 49.8193 183.36 49.8164C185.899 49.8193 188.333 50.8291 190.128 52.6243C191.923 54.4195 192.933 56.8536 192.936 59.3924C192.933 61.9313 191.924 64.3654 190.128 66.1606C188.333 67.9558 185.899 68.9656 183.36 68.9684V68.9684ZM182.977 57.1995H179.721C178.994 57.2004 178.296 57.4899 177.782 58.0044C177.268 58.5189 176.978 59.2165 176.978 59.944C176.978 60.6714 177.268 61.3687 177.782 61.8831C178.297 62.3974 178.994 62.6868 179.721 62.6875H187.06C187.788 62.6867 188.485 62.3973 188.999 61.883C189.514 61.3686 189.803 60.6714 189.804 59.944C189.803 59.2165 189.514 58.519 189 58.0045C188.485 57.49 187.788 57.2005 187.06 57.1995H183.805V55.6525C184.012 55.5697 184.19 55.4265 184.315 55.2415C184.439 55.0565 184.506 54.8382 184.505 54.6149C184.505 54.3189 184.387 54.0352 184.177 53.826C183.968 53.6168 183.684 53.4991 183.388 53.4988C183.092 53.4992 182.808 53.6169 182.599 53.8261C182.39 54.0353 182.272 54.319 182.272 54.6149C182.271 54.8384 182.338 55.0569 182.463 55.2419C182.588 55.427 182.766 55.5701 182.974 55.6525L182.977 57.1995ZM183.384 61.8017H183.356C183.208 61.7958 183.063 61.7607 182.929 61.6984C182.794 61.6361 182.674 61.5479 182.573 61.4388C182.473 61.3303 182.395 61.2029 182.344 61.064C182.293 60.9251 182.27 60.7775 182.276 60.6296L184.47 60.6081L184.465 60.6511V60.6636C184.469 60.8093 184.444 60.9544 184.392 61.0904C184.339 61.2264 184.26 61.3507 184.16 61.4561C184.059 61.5624 183.939 61.6476 183.805 61.7069C183.672 61.7662 183.527 61.7983 183.381 61.8013L183.384 61.8017ZM186.263 61.285C185.916 61.2848 185.583 61.147 185.338 60.9017C185.093 60.6565 184.955 60.3239 184.954 59.977C184.955 59.6301 185.093 59.2975 185.338 59.0522C185.583 58.807 185.916 58.6692 186.263 58.6689C186.61 58.6692 186.943 58.807 187.188 59.0522C187.434 59.2975 187.572 59.6301 187.572 59.977C187.571 60.3242 187.433 60.6569 187.187 60.9021C186.941 61.1473 186.608 61.2848 186.261 61.2846L186.263 61.285ZM180.518 61.285C180.171 61.2845 179.839 61.1466 179.594 60.9014C179.349 60.6562 179.211 60.3237 179.21 59.977C179.211 59.6303 179.349 59.2979 179.594 59.0527C179.839 58.8075 180.171 58.6695 180.518 58.6689C180.864 58.6692 181.197 58.807 181.443 59.0522C181.688 59.2975 181.826 59.6301 181.827 59.977C181.826 60.3239 181.688 60.6565 181.442 60.9016C181.197 61.1468 180.864 61.2845 180.517 61.2846L180.518 61.285Z" fill="#0069E6"/>
<defs>
<filter id="filter0_d" x="2.47966" y="3.00017" width="154.28" height="51.072" filterUnits="userSpaceOnUse" color-interpolation-filters="sRGB">
<feFlood flood-opacity="0" result="BackgroundImageFix"/>
<feColorMatrix in="SourceAlpha" type="matrix" values="0 0 0 0 0 0 0 0 0 0 0 0 0 0 0 0 0 0 127 0" result="hardAlpha"/>
<feOffset/>
<feGaussianBlur stdDeviation="4.788"/>
<feComposite in2="hardAlpha" operator="out"/>
<feColorMatrix type="matrix" values="0 0 0 0 0 0 0 0 0 0 0 0 0 0 0 0 0 0 0.21 0"/>
<feBlend mode="normal" in2="BackgroundImageFix" result="effect1_dropShadow"/>
<feBlend mode="normal" in="SourceGraphic" in2="effect1_dropShadow" result="shape"/>
</filter>
<filter id="filter1_d" x="26.9523" y="48.7521" width="168.112" height="51.072" filterUnits="userSpaceOnUse" color-interpolation-filters="sRGB">
<feFlood flood-opacity="0" result="BackgroundImageFix"/>
<feColorMatrix in="SourceAlpha" type="matrix" values="0 0 0 0 0 0 0 0 0 0 0 0 0 0 0 0 0 0 127 0" result="hardAlpha"/>
<feOffset/>
<feGaussianBlur stdDeviation="4.788"/>
<feComposite in2="hardAlpha" operator="out"/>
<feColorMatrix type="matrix" values="0 0 0 0 0 0 0 0 0 0 0 0 0 0 0 0 0 0 0.21 0"/>
<feBlend mode="normal" in2="BackgroundImageFix" result="effect1_dropShadow"/>
<feBlend mode="normal" in="SourceGraphic" in2="effect1_dropShadow" result="shape"/>
</filter>
<filter id="filter2_d" x="0.352469" y="0.872" width="25.536" height="25.536" filterUnits="userSpaceOnUse" color-interpolation-filters="sRGB">
<feFlood flood-opacity="0" result="BackgroundImageFix"/>
<feColorMatrix in="SourceAlpha" type="matrix" values="0 0 0 0 0 0 0 0 0 0 0 0 0 0 0 0 0 0 127 0" result="hardAlpha"/>
<feOffset/>
<feGaussianBlur stdDeviation="1.064"/>
<feComposite in2="hardAlpha" operator="out"/>
<feColorMatrix type="matrix" values="0 0 0 0 0 0 0 0 0 0 0 0 0 0 0 0 0 0 0.63 0"/>
<feBlend mode="normal" in2="BackgroundImageFix" result="effect1_dropShadow"/>
<feBlend mode="normal" in="SourceGraphic" in2="effect1_dropShadow" result="shape"/>
</filter>
<filter id="filter3_d" x="2.47966" y="94.5041" width="150.024" height="51.072" filterUnits="userSpaceOnUse" color-interpolation-filters="sRGB">
<feFlood flood-opacity="0" result="BackgroundImageFix"/>
<feColorMatrix in="SourceAlpha" type="matrix" values="0 0 0 0 0 0 0 0 0 0 0 0 0 0 0 0 0 0 127 0" result="hardAlpha"/>
<feOffset/>
<feGaussianBlur stdDeviation="4.788"/>
<feComposite in2="hardAlpha" operator="out"/>
<feColorMatrix type="matrix" values="0 0 0 0 0 0 0 0 0 0 0 0 0 0 0 0 0 0 0.21 0"/>
<feBlend mode="normal" in2="BackgroundImageFix" result="effect1_dropShadow"/>
<feBlend mode="normal" in="SourceGraphic" in2="effect1_dropShadow" result="shape"/>
</filter>
<filter id="filter4_d" x="0.352469" y="92.3759" width="25.536" height="25.536" filterUnits="userSpaceOnUse" color-interpolation-filters="sRGB">
<feFlood flood-opacity="0" result="BackgroundImageFix"/>
<feColorMatrix in="SourceAlpha" type="matrix" values="0 0 0 0 0 0 0 0 0 0 0 0 0 0 0 0 0 0 127 0" result="hardAlpha"/>
<feOffset/>
<feGaussianBlur stdDeviation="1.064"/>
<feComposite in2="hardAlpha" operator="out"/>
<feColorMatrix type="matrix" values="0 0 0 0 0 0 0 0 0 0 0 0 0 0 0 0 0 0 0.63 0"/>
<feBlend mode="normal" in2="BackgroundImageFix" result="effect1_dropShadow"/>
<feBlend mode="normal" in="SourceGraphic" in2="effect1_dropShadow" result="shape"/>
</filter>
<filter id="filter5_d" x="170.592" y="46.624" width="25.536" height="25.536" filterUnits="userSpaceOnUse" color-interpolation-filters="sRGB">
<feFlood flood-opacity="0" result="BackgroundImageFix"/>
<feColorMatrix in="SourceAlpha" type="matrix" values="0 0 0 0 0 0 0 0 0 0 0 0 0 0 0 0 0 0 127 0" result="hardAlpha"/>
<feOffset/>
<feGaussianBlur stdDeviation="1.064"/>
<feComposite in2="hardAlpha" operator="out"/>
<feColorMatrix type="matrix" values="0 0 0 0 0 0 0 0 0 0 0 0 0 0 0 0 0 0 0.63 0"/>
<feBlend mode="normal" in2="BackgroundImageFix" result="effect1_dropShadow"/>
<feBlend mode="normal" in="SourceGraphic" in2="effect1_dropShadow" result="shape"/>
</filter>
</defs>
</svg>
