<svg xmlns="http://www.w3.org/2000/svg" width="45" height="45" viewBox="0 0 45 45">
  <g id="Component_39_13" data-name="Component 39 – 13" transform="translate(0.5 0.5)">
    <g id="Group_7" data-name="Group 7" transform="translate(0 0.001)">
      <path id="Subtraction_71" data-name="Subtraction 71" d="M855.333-15126.2H830.666a9.677,9.677,0,0,1-9.667-9.666v-24.663a9.679,9.679,0,0,1,9.667-9.671h24.667a9.679,9.679,0,0,1,9.667,9.671v24.663A9.677,9.677,0,0,1,855.333-15126.2Zm-7.283-23.444a2.193,2.193,0,0,1,1.881.861,4.159,4.159,0,0,1,.616,2.462v7.778h4.561v-9.381a6.1,6.1,0,0,0-1.516-4.43,5.252,5.252,0,0,0-3.871-1.456,5.2,5.2,0,0,0-4.466,2.447v-1.994h-4.4v14.813h4.4v-7.778a3.765,3.765,0,0,1,.709-2.442A2.557,2.557,0,0,1,848.05-15149.643Zm-14.711-3.712v14.813h4.584v-14.813Zm2.269-7.409a2.725,2.725,0,0,0-2.711,2.733,2.725,2.725,0,0,0,2.711,2.733,2.727,2.727,0,0,0,2.715-2.733A2.727,2.727,0,0,0,835.608-15160.764Z" transform="translate(-821 15170.197)" fill="#9ba7b3" stroke="rgba(0,0,0,0)" stroke-miterlimit="10" stroke-width="1"/>
    </g>
  </g>
</svg>
