<svg width="19" height="19" viewBox="0 0 19 19" fill="none" xmlns="http://www.w3.org/2000/svg">
<path d="M12.5472 11.0864C12.218 11.087 11.8919 11.0226 11.5876 10.8968C11.2834 10.771 11.0069 10.5864 10.7742 10.3534L10.7042 10.2834C10.6202 10.2034 10.553 10.1074 10.5067 10.001C10.4603 9.89465 10.4357 9.78008 10.4343 9.66405C10.4329 9.54803 10.4547 9.43289 10.4985 9.32542C10.5422 9.21795 10.607 9.12031 10.6891 9.03826C10.7711 8.95621 10.8687 8.89141 10.9762 8.84766C11.0837 8.8039 11.1988 8.7821 11.3148 8.78351C11.4309 8.78492 11.5454 8.80954 11.6518 8.85589C11.7582 8.90225 11.8542 8.96942 11.9342 9.05345L12.0042 9.12345C12.1484 9.26719 12.3437 9.34792 12.5472 9.34792C12.7508 9.34792 12.9461 9.26719 13.0902 9.12345L16.3382 5.87645C16.6351 5.57811 16.8018 5.17434 16.8018 4.75345C16.8018 4.33255 16.6351 3.92878 16.3382 3.63045L14.8982 2.19245C14.5997 1.89633 14.1962 1.73018 13.7757 1.73018C13.3552 1.73018 12.9518 1.89633 12.6532 2.19245L9.40624 5.44345C9.26274 5.58773 9.18218 5.78295 9.18218 5.98645C9.18218 6.18994 9.26274 6.38516 9.40624 6.52945L9.47424 6.59645C9.63195 6.75995 9.71946 6.97864 9.71806 7.20581C9.71666 7.43297 9.62646 7.65057 9.46675 7.81212C9.30703 7.97366 9.09047 8.06632 8.86334 8.07031C8.63621 8.0743 8.41653 7.98928 8.25124 7.83345L8.18124 7.76345C7.71183 7.29258 7.44824 6.65482 7.44824 5.98995C7.44824 5.32507 7.71183 4.68731 8.18124 4.21645L11.4292 0.969446C12.0537 0.348528 12.8986 0 13.7792 0C14.6599 0 15.5047 0.348528 16.1292 0.969446L17.5692 2.40845C18.1914 3.03328 18.5408 3.87916 18.5408 4.76095C18.5408 5.64273 18.1914 6.48861 17.5692 7.11345L14.3202 10.3534C14.0875 10.5864 13.8111 10.771 13.5069 10.8968C13.2026 11.0226 12.8765 11.087 12.5472 11.0864Z" fill="#0069E6"/>
<path d="M4.76493 18.5266C4.3279 18.5284 3.89485 18.4435 3.49093 18.2766C3.087 18.1097 2.72024 17.8643 2.41193 17.5546L0.971934 16.1156C0.349494 15.4909 0 14.6449 0 13.7631C0 12.8812 0.349494 12.0353 0.971934 11.4106L4.21993 8.16356C4.69055 7.69482 5.32771 7.43164 5.99193 7.43164C6.65616 7.43164 7.29332 7.69482 7.76393 8.16356L7.83293 8.23156C7.99064 8.39506 8.07815 8.61376 8.07675 8.84092C8.07535 9.06808 7.98515 9.28568 7.82544 9.44723C7.66572 9.60877 7.44916 9.70143 7.22203 9.70542C6.9949 9.70941 6.77522 9.6244 6.60993 9.46856L6.53993 9.39856C6.39578 9.25481 6.20051 9.17409 5.99693 9.17409C5.79336 9.17409 5.59809 9.25481 5.45393 9.39856L2.20293 12.6406C1.90579 12.9388 1.73894 13.3426 1.73894 13.7636C1.73894 14.1845 1.90579 14.5884 2.20293 14.8866L3.64293 16.3256C3.94148 16.6217 4.34494 16.7878 4.76543 16.7878C5.18593 16.7878 5.58939 16.6217 5.88793 16.3256L9.13593 13.0786C9.28005 12.9342 9.36099 12.7385 9.36099 12.5346C9.36099 12.3306 9.28005 12.1349 9.13593 11.9906L9.06593 11.9206C8.90934 11.7561 8.82323 11.537 8.826 11.3099C8.82877 11.0829 8.92019 10.8659 9.08075 10.7054C9.24131 10.5448 9.45828 10.4534 9.68533 10.4506C9.91237 10.4479 10.1315 10.534 10.2959 10.6906L10.3659 10.7606C10.8353 11.2314 11.0989 11.8692 11.0989 12.5341C11.0989 13.1989 10.8353 13.8367 10.3659 14.3076L7.11693 17.5546C6.80875 17.8642 6.44215 18.1096 6.0384 18.2764C5.63466 18.4433 5.2018 18.5283 4.76493 18.5266Z" fill="#0069E6"/>
<path d="M6.08448 13.3138C5.97022 13.3139 5.85707 13.2914 5.75153 13.2476C5.64598 13.2039 5.55013 13.1397 5.46948 13.0588C5.30643 12.8956 5.21484 12.6744 5.21484 12.4438C5.21484 12.2131 5.30643 11.9919 5.46948 11.8288L11.8405 5.45776C12.0036 5.29471 12.2248 5.20312 12.4555 5.20312C12.6861 5.20312 12.9073 5.29471 13.0705 5.45776C13.2335 5.6209 13.3251 5.84211 13.3251 6.07276C13.3251 6.30341 13.2335 6.52462 13.0705 6.68776L6.69948 13.0588C6.61883 13.1397 6.52297 13.2039 6.41743 13.2476C6.31189 13.2914 6.19873 13.3139 6.08448 13.3138Z" fill="#0069E6"/>
</svg>
