<svg xmlns="http://www.w3.org/2000/svg" width="21.136" height="21" viewBox="0 0 21.136 21">
  <g id="link-2" transform="translate(0 -0.473)">
    <g id="Outline_Icons_1_" transform="translate(1.563 1.563)">
      <g id="Outline_Icons">
        <g id="Group_11475" data-name="Group 11475">
          <path id="Path_19929" data-name="Path 19929" d="M14.113,11.368l.077.077a1.789,1.789,0,0,0,2.53,0L20.268,7.9a2.694,2.694,0,0,0,0-3.8L18.7,2.53a2.691,2.691,0,0,0-3.8,0L11.352,6.076a1.79,1.79,0,0,0,0,2.531l.077.076" transform="translate(-2.703 -1.747)" fill="none" stroke="#000000" stroke-linecap="round" stroke-linejoin="round" stroke-miterlimit="10" stroke-width="2"/>
          <path id="Path_19930" data-name="Path 19930" d="M8.684,11.429l-.077-.076a1.789,1.789,0,0,0-2.53,0L2.529,14.9a2.694,2.694,0,0,0,0,3.8L4.1,20.268a2.691,2.691,0,0,0,3.8,0l3.547-3.547a1.79,1.79,0,0,0,0-2.531l-.077-.077" transform="translate(-1.746 -2.703)" fill="none" stroke="#000000" stroke-linecap="round" stroke-linejoin="round" stroke-miterlimit="10" stroke-width="2"/>
          <line id="Line_665" data-name="Line 665" y1="6.959" x2="6.959" transform="translate(5.694 5.694)" fill="none" stroke="#000000" stroke-linecap="round" stroke-linejoin="round" stroke-miterlimit="10" stroke-width="2"/>
        </g>
      </g>
    </g>
    <g id="Frames-24px">
      <rect id="Rectangle_3983" data-name="Rectangle 3983" width="21" height="21" transform="translate(0 0.473)" fill="none"/>
    </g>
  </g>
</svg>
