<svg xmlns="http://www.w3.org/2000/svg" width="45.778" height="40.055" viewBox="0 0 45.778 40.055">
  <g id="Group_11391" data-name="Group 11391" transform="translate(-5793 2330)">
    <path id="Path_19864" data-name="Path 19864" d="M38.625,4H7.153C1.488,4,0,8.678,0,11.153V31.18c0,5.665,4.678,7.153,7.153,7.153H17.166v2.861H12.875a1.431,1.431,0,0,0,0,2.861H24.219a6.72,6.72,0,0,1-1.2-2.861h-2.99V38.333h2.861V35.472H7.167c-.629-.014-3.39-.2-4.12-2.861H22.889V29.75H2.861V11.167A4.088,4.088,0,0,1,7.153,6.861H38.61a4.088,4.088,0,0,1,4.306,4.292v4.42a7.569,7.569,0,0,1,2.861,1.216V11.153C45.777,5.488,41.1,4,38.625,4Z" transform="translate(5793 -2334)" fill="#ff697a"/>
    <g id="Group_11390" data-name="Group 11390" transform="translate(5818.75 -2315.709)">
      <path id="Path_19865" data-name="Path 19865" d="M33.736,13.99H22.292A4.169,4.169,0,0,0,18,18.282V35.462a4.169,4.169,0,0,0,4.292,4.292H33.736a4.169,4.169,0,0,0,4.292-4.292V18.282A4.171,4.171,0,0,0,33.736,13.99ZM20.861,18.3a1.308,1.308,0,0,1,1.431-1.445H33.719a1.314,1.314,0,0,1,1.448,1.431v1.445H20.861ZM35.166,35.448a1.308,1.308,0,0,1-1.431,1.445H22.306a1.308,1.308,0,0,1-1.445-1.431V34.032H35.166Zm0-4.277H20.861V22.588H35.166Z" transform="translate(-18 -13.99)" fill="#ff697a"/>
    </g>
  </g>
</svg>
