<svg xmlns="http://www.w3.org/2000/svg" width="39" height="39.001" viewBox="0 0 39 39.001">
  <path id="Subtraction_36" data-name="Subtraction 36" d="M-5978,3230.5a19.522,19.522,0,0,1-19.5-19.5,19.523,19.523,0,0,1,19.5-19.5,19.523,19.523,0,0,1,19.5,19.5A19.522,19.522,0,0,1-5978,3230.5Zm-.784-23.966-6.629,0a5.594,5.594,0,0,0-5.587,5.589,5.593,5.593,0,0,0,5.587,5.587h14.945a5.593,5.593,0,0,0,5.587-5.587,5.594,5.594,0,0,0-5.587-5.589h-6.625v-3.15a2.267,2.267,0,0,0,1.427-2.113,2.276,2.276,0,0,0-2.274-2.273,2.275,2.275,0,0,0-2.272,2.273,2.265,2.265,0,0,0,1.43,2.113Zm.828,9.371h-.056a2.287,2.287,0,0,1-1.594-.739,2.277,2.277,0,0,1-.6-1.648l4.466-.044-.009.087v.026a2.236,2.236,0,0,1-.622,1.614A2.238,2.238,0,0,1-5977.957,3215.906Zm5.864-1.052a2.668,2.668,0,0,1-2.666-2.664,2.668,2.668,0,0,1,2.666-2.664,2.668,2.668,0,0,1,2.666,2.664A2.668,2.668,0,0,1-5972.092,3214.854Zm-11.7,0a2.666,2.666,0,0,1-2.663-2.664,2.666,2.666,0,0,1,2.663-2.664,2.668,2.668,0,0,1,2.666,2.664A2.668,2.668,0,0,1-5983.789,3214.854Z" transform="translate(5997.501 -3191.499)" fill="#005ac8"/>
</svg>
