<svg xmlns="http://www.w3.org/2000/svg" width="31" height="31.001" viewBox="0 0 31 31.001">
  <path id="Subtraction_55" data-name="Subtraction 55" d="M-5982,3222.5a15.518,15.518,0,0,1-15.5-15.5,15.519,15.519,0,0,1,15.5-15.5,15.518,15.518,0,0,1,15.5,15.5A15.517,15.517,0,0,1-5982,3222.5Zm-.624-19.049h-5.269a4.447,4.447,0,0,0-4.441,4.442,4.446,4.446,0,0,0,4.441,4.441h11.879a4.446,4.446,0,0,0,4.441-4.441,4.447,4.447,0,0,0-4.441-4.442h-5.267v-2.5a1.8,1.8,0,0,0,1.134-1.68,1.81,1.81,0,0,0-1.808-1.807,1.809,1.809,0,0,0-1.806,1.807,1.8,1.8,0,0,0,1.136,1.68Zm.658,7.449h-.044a1.819,1.819,0,0,1-1.267-.587,1.811,1.811,0,0,1-.481-1.31l3.55-.035-.007.07v.021a1.777,1.777,0,0,1-.494,1.282A1.777,1.777,0,0,1-5981.966,3210.9Zm4.662-.836a2.12,2.12,0,0,1-2.119-2.118,2.12,2.12,0,0,1,2.119-2.117,2.121,2.121,0,0,1,2.119,2.117A2.121,2.121,0,0,1-5977.3,3210.063Zm-9.3,0a2.119,2.119,0,0,1-2.117-2.118,2.119,2.119,0,0,1,2.117-2.117,2.121,2.121,0,0,1,2.119,2.117A2.121,2.121,0,0,1-5986.6,3210.063Z" transform="translate(5997.501 -3191.499)" fill="#fff"/>
</svg>
