<?xml version="1.0" standalone="no"?>
<!DOCTYPE svg PUBLIC "-//W3C//DTD SVG 20010904//EN"
 "http://www.w3.org/TR/2001/REC-SVG-20010904/DTD/svg10.dtd">
<svg version="1.0" xmlns="http://www.w3.org/2000/svg"
 width="700.000000pt" height="700.000000pt" viewBox="0 0 700.000000 700.000000"
 preserveAspectRatio="xMidYMid meet">
<metadata>
Created by potrace 1.11, written by Peter Selinger 2001-2013
</metadata>
<g transform="translate(0.000000,700.000000) scale(0.100000,-0.100000)"
fill="#000000" stroke="none">
<path d="M3260 6994 c-412 -37 -753 -117 -1085 -254 -789 -325 -1450 -944
-1821 -1707 -322 -662 -427 -1401 -303 -2132 229 -1346 1263 -2461 2595 -2795
301 -76 506 -100 849 -100 282 -1 348 4 595 45 1067 175 2021 876 2523 1851
196 381 312 767 369 1228 17 138 17 601 0 740 -86 700 -325 1279 -753 1820
-105 134 -403 431 -539 539 -527 418 -1094 657 -1772 747 -108 14 -561 27
-658 18z m406 -1108 c151 -40 283 -173 324 -325 19 -70 14 -197 -10 -265 -39
-115 -128 -219 -225 -265 l-45 -21 0 -320 0 -320 685 0 c410 0 725 -4 783 -10
552 -60 963 -473 1023 -1028 25 -230 -33 -481 -158 -693 -163 -276 -460 -479
-782 -534 -76 -13 -304 -15 -1762 -13 l-1674 3 -94 28 c-417 122 -713 420
-818 825 -35 135 -42 332 -18 468 84 471 418 818 890 927 86 20 124 21 838 24
l747 4 0 319 0 318 -54 31 c-347 196 -299 710 79 840 71 24 195 28 271 7z"/>
<path d="M2233 3745 c-192 -42 -352 -194 -408 -389 -26 -90 -23 -223 8 -312
89 -262 360 -418 629 -363 92 19 196 77 268 149 116 116 165 244 158 410 -6
115 -30 188 -94 282 -76 112 -180 182 -322 219 -86 22 -151 23 -239 4z"/>
<path d="M4620 3744 c-104 -22 -186 -68 -265 -148 -82 -83 -118 -145 -145
-252 -34 -132 -23 -239 40 -369 108 -226 376 -352 614 -290 292 76 469 364
401 653 -23 99 -70 179 -149 258 -81 81 -164 126 -271 149 -85 18 -140 18
-225 -1z"/>
<path d="M3211 2943 l-134 -4 6 -62 c21 -256 270 -456 517 -416 215 34 390
235 390 446 l0 43 -322 -2 c-178 -1 -383 -4 -457 -5z"/>
</g>
</svg>
