<svg id="settings" xmlns="http://www.w3.org/2000/svg" width="16" height="16" viewBox="0 0 16 16">
  <g id="Component_28_3" data-name="Component 28 – 3">
    <rect id="box" width="16" height="16" fill="#fff" opacity="0"/>
  </g>
  <path id="Subtraction_23" data-name="Subtraction 23" d="M7.385,14.222a1.369,1.369,0,0,1-1.367-1.367v-.382A5.451,5.451,0,0,1,4.3,11.808l-.31.31a1.368,1.368,0,0,1-1.934-1.934l.321-.321a5.494,5.494,0,0,1-.491-1.111H1.367a1.367,1.367,0,0,1,0-2.734H1.75A5.458,5.458,0,0,1,2.4,4.332L2.061,4A1.368,1.368,0,0,1,4,2.061l.337.337A5.458,5.458,0,0,1,6.017,1.75V1.367a1.368,1.368,0,0,1,2.735,0v.524a5.489,5.489,0,0,1,1.11.491l.321-.321A1.368,1.368,0,0,1,12.118,4l-.31.31a5.451,5.451,0,0,1,.664,1.713h.382a1.367,1.367,0,1,1,0,2.734h-.524a5.469,5.469,0,0,1-.507,1.139l.293.293a1.368,1.368,0,0,1-1.934,1.934l-.293-.293a5.481,5.481,0,0,1-1.138.507v.524A1.369,1.369,0,0,1,7.385,14.222ZM7.111,4.376A2.735,2.735,0,1,0,9.846,7.111,2.738,2.738,0,0,0,7.111,4.376Z" transform="translate(1 1)" fill="#005ac8"/>
</svg>
