<svg width="530" height="330" viewBox="0 0 530 330" fill="none" xmlns="http://www.w3.org/2000/svg">
<rect width="530" height="330" fill="#FBFBFB"/>
<rect x="429" y="63.4531" width="45" height="31" rx="3" stroke="#FBFBFB" stroke-width="2.2"/>
<path d="M435.562 69.8359L451.5 78.9536L466.5 69.8359" stroke="#FBFBFB" stroke-width="2.2" stroke-linecap="round" stroke-linejoin="round"/>
<rect x="55" y="6" width="419" height="315.512" rx="16" fill="#006AE6"/>
<path d="M148.392 46.8262C148.392 33.5713 159.137 22.8262 172.392 22.8262H356.608C369.863 22.8262 380.608 33.5713 380.608 46.8262V322.352H148.392V46.8262Z" fill="white"/>
<path opacity="0.3" d="M168.584 156.605H223.273C227.919 156.605 231.686 160.372 231.686 165.019V165.019C231.686 169.666 227.919 173.433 223.273 173.433H178.584C173.061 173.433 168.584 168.956 168.584 163.433V156.605Z" fill="#C4C4C4"/>
<path opacity="0.3" d="M168.584 175.113H304.885C309.532 175.113 313.299 178.88 313.299 183.527V183.527C313.299 188.174 309.532 191.941 304.885 191.941H178.584C173.061 191.941 168.584 187.463 168.584 181.941V175.113Z" fill="#C4C4C4"/>
<path opacity="0.3" d="M167.743 223.072H285.534C290.181 223.072 293.948 226.839 293.948 231.486V231.486C293.948 236.133 290.181 239.9 285.534 239.9H177.743C172.22 239.9 167.743 235.422 167.743 229.9V223.072Z" fill="#C4C4C4"/>
<path opacity="0.3" d="M167.743 273.555H243.466C248.113 273.555 251.88 277.322 251.88 281.968V281.968C251.88 286.615 248.113 290.382 243.466 290.382H177.743C172.22 290.382 167.743 285.905 167.743 280.382V273.555Z" fill="#C4C4C4"/>
<path opacity="0.2" d="M370.512 248.312H314.14C309.493 248.312 305.727 252.079 305.727 256.726V256.726C305.727 261.373 309.493 265.14 314.14 265.14H360.512C366.035 265.14 370.512 260.663 370.512 255.14V248.312Z" fill="#C4C4C4"/>
<path opacity="0.3" d="M167.743 195.307H360.416C367.386 195.307 373.036 200.957 373.036 207.927V207.927C373.036 214.897 367.386 220.548 360.416 220.548H177.743C172.22 220.548 167.743 216.07 167.743 210.548V195.307Z" fill="#C4C4C4"/>
<circle cx="167.322" cy="157.025" r="6.31024" fill="#C4C4C4"/>
<circle cx="369.251" cy="247.892" r="6.31024" fill="#C4C4C4"/>
<rect opacity="0.2" x="224.956" y="125.475" width="78.247" height="11.7791" rx="5.88956" fill="#C4C4C4"/>
<rect opacity="0.2" x="176.998" y="163.336" width="36.1787" height="3.36546" rx="1.68273" fill="#9E9E9E"/>
<rect opacity="0.2" x="173.632" y="229.805" width="36.1787" height="3.36546" rx="1.68273" fill="#9E9E9E"/>
<rect opacity="0.2" x="172.791" y="278.602" width="36.1787" height="3.36546" rx="1.68273" fill="#9E9E9E"/>
<rect opacity="0.2" x="320.03" y="255.045" width="36.1787" height="3.36546" rx="1.68273" fill="#9E9E9E"/>
<rect opacity="0.2" x="173.632" y="182.688" width="36.1787" height="3.36546" rx="1.68273" fill="#9E9E9E"/>
<rect opacity="0.2" x="213.177" y="182.688" width="36.1787" height="3.36546" rx="1.68273" fill="#9E9E9E"/>
<rect opacity="0.2" x="252.722" y="182.688" width="16.8273" height="3.36546" rx="1.68273" fill="#9E9E9E"/>
<rect opacity="0.2" x="172.791" y="202.037" width="47.9578" height="3.36546" rx="1.68273" fill="#9E9E9E"/>
<rect opacity="0.2" x="224.956" y="202.037" width="47.9578" height="3.36546" rx="1.68273" fill="#9E9E9E"/>
<rect opacity="0.2" x="172.791" y="210.451" width="30.2892" height="3.36546" rx="1.68273" fill="#9E9E9E"/>
<rect opacity="0.2" x="208.128" y="210.451" width="30.2892" height="3.36546" rx="1.68273" fill="#9E9E9E"/>
<path d="M264.079 117.902C255.491 117.893 247.257 114.477 241.184 108.404C235.112 102.332 231.696 94.0979 231.687 85.5098C231.696 76.9217 235.113 68.6882 241.185 62.6155C247.258 56.5429 255.491 53.127 264.079 53.1172C272.667 53.127 280.9 56.5429 286.973 62.6155C293.046 68.6882 296.462 76.9217 296.472 85.5098C296.462 94.0979 293.046 102.332 286.974 108.404C280.901 114.477 272.667 117.893 264.079 117.902V117.902ZM262.784 78.0917H251.77C249.309 78.0947 246.95 79.0741 245.21 80.8146C243.47 82.5551 242.491 84.9148 242.489 87.3757C242.492 89.8363 243.471 92.195 245.211 93.9349C246.95 95.6748 249.309 96.6536 251.77 96.6562H276.596C279.056 96.6532 281.415 95.6743 283.155 93.9345C284.895 92.1947 285.873 89.8361 285.876 87.3757C285.873 84.9149 284.895 82.5554 283.156 80.815C281.416 79.0746 279.056 78.0952 276.596 78.0917H265.582V72.8588C266.284 72.5788 266.885 72.0944 267.307 71.4685C267.73 70.8426 267.954 70.1042 267.952 69.3491C267.95 68.3477 267.551 67.3881 266.843 66.6804C266.135 65.9727 265.175 65.5745 264.173 65.5736C263.172 65.5749 262.213 65.973 261.505 66.6808C260.797 67.3885 260.399 68.3482 260.398 69.3491C260.395 70.1049 260.62 70.8441 261.044 71.4701C261.467 72.0961 262.069 72.5799 262.772 72.8588L262.784 78.0917ZM264.158 93.6597H264.066C263.566 93.6396 263.074 93.5208 262.619 93.3102C262.165 93.0995 261.757 92.8009 261.418 92.4319C261.078 92.0649 260.813 91.6341 260.641 91.1642C260.468 90.6944 260.39 90.1949 260.412 89.6949L267.832 89.6221L267.816 89.7676V89.8099C267.83 90.3028 267.745 90.7935 267.568 91.2536C267.391 91.7137 267.125 92.1342 266.784 92.4905C266.444 92.8502 266.037 93.1385 265.585 93.339C265.133 93.5395 264.645 93.6481 264.15 93.6581L264.158 93.6597ZM273.899 91.912C272.725 91.9111 271.6 91.4449 270.77 90.6154C269.939 89.7858 269.473 88.6608 269.471 87.4872C269.473 86.3137 269.939 85.1886 270.77 84.3591C271.6 83.5296 272.725 83.0634 273.899 83.0625C275.072 83.0634 276.198 83.5296 277.028 84.3591C277.858 85.1886 278.325 86.3137 278.327 87.4872C278.325 88.6617 277.857 89.7872 277.025 90.6166C276.194 91.4459 275.067 91.9112 273.893 91.9104L273.899 91.912ZM254.463 91.912C253.291 91.9102 252.167 91.4437 251.338 90.6142C250.509 89.7847 250.043 88.66 250.042 87.4872C250.043 86.3145 250.509 85.1902 251.338 84.3607C252.167 83.5311 253.291 83.0642 254.463 83.0625C255.637 83.0634 256.763 83.5296 257.593 84.3591C258.423 85.1886 258.89 86.3137 258.891 87.4872C258.889 88.6608 258.422 89.7858 257.591 90.615C256.761 91.4442 255.635 91.9099 254.462 91.9104L254.463 91.912Z" fill="#0069E6"/>
</svg>
