<svg xmlns="http://www.w3.org/2000/svg" width="47.5" height="47.5" viewBox="0 0 47.5 47.5">
  <g id="Group_11393" data-name="Group 11393" transform="translate(-2.5 -2.5)">
    <path id="Path_19870" data-name="Path 19870" d="M26.25,2.5A23.75,23.75,0,1,0,50,26.25,23.771,23.771,0,0,0,26.25,2.5Zm0,44.05a20.3,20.3,0,1,1,20.3-20.3A20.315,20.315,0,0,1,26.25,46.55Z" transform="translate(0)" fill="#ebc627"/>
    <circle id="Ellipse_1242" data-name="Ellipse 1242" cx="3.05" cy="3.05" r="3.05" transform="translate(15.5 17.6)" fill="#ebc627"/>
    <path id="Path_19871" data-name="Path 19871" d="M64.35,31.892a1.362,1.362,0,0,0-1.85-.4l-3.7,2.4a1.338,1.338,0,0,0-.6,1.15,1.468,1.468,0,0,0,.6,1.15l3.7,2.4a1.411,1.411,0,0,0,.75.2,1.338,1.338,0,0,0,1.15-.6,1.309,1.309,0,0,0-.4-1.85l-1.95-1.25L64,33.842A1.493,1.493,0,0,0,64.35,31.892Z" transform="translate(-27.85 -14.392)" fill="#ebc627"/>
    <path id="Path_19872" data-name="Path 19872" d="M49.035,58.135a1.737,1.737,0,0,0-2.3.8,6.8,6.8,0,0,1-12.2,0,1.722,1.722,0,0,0-3.1,1.5,10.234,10.234,0,0,0,18.35,0A1.689,1.689,0,0,0,49.035,58.135Z" transform="translate(-14.385 -27.735)" fill="#ebc627"/>
  </g>
</svg>
