<svg width="463" height="387" viewBox="0 0 463 387" fill="none" xmlns="http://www.w3.org/2000/svg">
<path d="M176.802 167.052C176.723 167.381 176.639 167.683 176.556 167.954C176.473 168.225 176.393 168.465 176.319 168.671C176.245 168.878 176.178 169.049 176.122 169.183C176.067 169.317 176.024 169.413 176 169.467C175.43 170.588 174.449 171.446 173.263 171.862C172.077 172.278 170.775 172.22 169.63 171.701C168.485 171.182 167.584 170.242 167.115 169.075C166.646 167.908 166.645 166.606 167.113 165.439C167.13 165.406 167.183 165.258 167.249 165.033C167.334 164.741 167.399 164.444 167.442 164.143C167.5 163.751 167.516 163.353 167.488 162.958C167.459 162.513 167.356 162.076 167.185 161.664C167.037 161.318 166.84 160.995 166.601 160.704C166.333 160.379 166.03 160.085 165.696 159.827C165.311 159.529 164.903 159.265 164.474 159.035C163.977 158.769 163.465 158.534 162.939 158.332C162.341 158.1 161.794 157.753 161.331 157.309C160.868 156.865 160.498 156.334 160.241 155.746C159.917 155.013 159.779 154.212 159.837 153.414C159.895 152.615 160.148 151.842 160.575 151.164C161.001 150.486 161.587 149.923 162.281 149.524C162.976 149.125 163.758 148.902 164.558 148.876C165.21 148.856 165.86 148.968 166.467 149.205C167.85 149.733 169.173 150.403 170.418 151.204C171.439 151.862 172.384 152.63 173.239 153.493C173.947 154.21 174.578 155 175.122 155.849C175.567 156.544 175.946 157.279 176.255 158.045C176.591 158.879 176.843 159.744 177.008 160.628C177.157 161.428 177.239 162.239 177.251 163.053C177.262 163.78 177.223 164.507 177.132 165.228C177.057 165.842 176.946 166.451 176.802 167.052Z" fill="#0250AF"/>
<circle cx="78.5" cy="162.5" r="78.5" fill="#37A6EA"/>
<path d="M40.8164 203.278L134.665 165.072L41.0175 121.986L40.8956 153.554L107.809 164.36L40.853 171.619L40.8164 203.278Z" fill="white"/>
<circle cx="88.5" cy="162.5" r="78.5" fill="#4BBEFF"/>
<path d="M50.8164 203.278L144.665 165.072L51.0175 121.986L50.8956 153.554L117.809 164.36L50.853 171.619L50.8164 203.278Z" fill="white"/>
<path fill-rule="evenodd" clip-rule="evenodd" d="M331.251 306.629L330.113 307.438C329.223 308.071 328.772 309.163 328.95 310.253L329.178 311.646C329.186 311.695 329.153 311.742 329.104 311.75C329.07 311.755 329.035 311.74 329.015 311.712L328.203 310.558C327.567 309.654 326.481 309.19 325.402 309.36L324.022 309.578C323.973 309.586 323.927 309.552 323.918 309.502C323.913 309.468 323.927 309.433 323.955 309.414L325.093 308.604C325.983 307.971 326.434 306.879 326.256 305.79L326.028 304.397C326.02 304.347 326.053 304.3 326.102 304.293C326.136 304.287 326.17 304.302 326.19 304.33L327.003 305.485C327.638 306.388 328.725 306.852 329.804 306.682L331.183 306.464C331.233 306.457 331.279 306.491 331.287 306.54C331.293 306.575 331.279 306.609 331.251 306.629Z" fill="#E5BF2F"/>
<path fill-rule="evenodd" clip-rule="evenodd" d="M305.749 323.987L303.242 325.77C301.28 327.166 300.286 329.572 300.679 331.974L301.181 335.044C301.199 335.153 301.126 335.256 301.017 335.273C300.942 335.285 300.867 335.252 300.823 335.19L299.032 332.645C297.631 330.655 295.236 329.631 292.858 330.007L289.818 330.487C289.71 330.504 289.607 330.429 289.589 330.319C289.577 330.244 289.608 330.168 289.67 330.124L292.178 328.34C294.139 326.945 295.133 324.539 294.741 322.137L294.238 319.067C294.22 318.957 294.294 318.855 294.402 318.838C294.477 318.826 294.552 318.858 294.597 318.921L296.387 321.465C297.788 323.456 300.183 324.479 302.561 324.104L305.601 323.624C305.71 323.607 305.812 323.682 305.83 323.791C305.842 323.867 305.811 323.943 305.749 323.987Z" fill="#E5BF2F"/>
<path fill-rule="evenodd" clip-rule="evenodd" d="M410.94 301.289L409.234 302.503C407.898 303.453 407.222 305.09 407.489 306.725L407.831 308.814C407.843 308.889 407.794 308.959 407.72 308.97C407.669 308.978 407.617 308.956 407.587 308.914L406.369 307.182C405.415 305.827 403.786 305.131 402.167 305.386L400.098 305.713C400.024 305.724 399.954 305.674 399.942 305.599C399.934 305.548 399.955 305.496 399.997 305.466L401.704 304.252C403.039 303.302 403.715 301.665 403.448 300.03L403.106 297.941C403.094 297.866 403.144 297.796 403.218 297.785C403.269 297.777 403.32 297.799 403.35 297.841L404.569 299.573C405.522 300.928 407.152 301.624 408.77 301.369L410.84 301.042C410.913 301.031 410.983 301.082 410.995 301.156C411.004 301.208 410.982 301.259 410.94 301.289Z" fill="#E5BF2F"/>
<path fill-rule="evenodd" clip-rule="evenodd" d="M381.915 278.621L380.493 279.633C379.38 280.424 378.816 281.789 379.039 283.151L379.324 284.892C379.334 284.954 379.292 285.012 379.231 285.022C379.188 285.029 379.146 285.011 379.121 284.975L378.105 283.532C377.311 282.403 375.952 281.823 374.604 282.035L372.879 282.308C372.818 282.317 372.76 282.275 372.75 282.213C372.743 282.17 372.76 282.127 372.795 282.102L374.218 281.09C375.33 280.299 375.894 278.934 375.671 277.572L375.386 275.831C375.376 275.769 375.418 275.711 375.479 275.701C375.522 275.694 375.565 275.712 375.59 275.748L376.605 277.191C377.399 278.32 378.758 278.9 380.107 278.688L381.831 278.415C381.892 278.406 381.95 278.448 381.961 278.51C381.968 278.553 381.95 278.596 381.915 278.621Z" fill="#E5BF2F"/>
<path fill-rule="evenodd" clip-rule="evenodd" d="M343.018 334.477L341.312 335.691C339.977 336.64 339.3 338.278 339.568 339.912L339.909 342.002C339.922 342.076 339.872 342.146 339.798 342.158C339.747 342.166 339.696 342.144 339.666 342.101L338.447 340.37C337.494 339.015 335.864 338.318 334.245 338.574L332.176 338.9C332.102 338.912 332.032 338.861 332.02 338.786C332.012 338.735 332.033 338.683 332.075 338.654L333.782 337.44C335.117 336.49 335.794 334.852 335.526 333.218L335.184 331.128C335.172 331.054 335.222 330.984 335.296 330.972C335.347 330.964 335.398 330.986 335.428 331.029L336.647 332.76C337.6 334.115 339.23 334.812 340.849 334.556L342.918 334.23C342.991 334.218 343.061 334.269 343.073 334.344C343.082 334.395 343.06 334.447 343.018 334.477Z" fill="#E5BF2F"/>
<path d="M171.764 166.684C171.71 166.707 171.654 166.731 171.599 166.754C171.544 166.777 171.488 166.801 171.433 166.825C171.377 166.848 171.322 166.872 171.27 166.905C171.219 166.939 171.165 166.967 171.111 166.996C170.488 167.365 169.945 167.854 169.511 168.435C169.096 169.002 168.796 169.645 168.628 170.329C168.456 171.01 168.416 171.719 168.51 172.416C168.608 173.139 168.85 173.835 169.222 174.463C171.652 178.621 174.402 182.581 177.448 186.307C180.195 189.673 183.259 192.765 186.595 195.54C189.686 198.108 193.053 200.319 196.631 202.131C200.094 203.882 203.751 205.205 207.524 206.074C212.523 207.202 217.662 207.537 222.753 207.068C227.033 206.672 231.251 205.783 235.323 204.417C238.304 203.422 241.202 202.193 243.989 200.74C245.204 200.118 246.385 199.432 247.527 198.682C248.125 198.277 248.634 197.754 249.024 197.144C249.407 196.56 249.669 195.905 249.796 195.216C249.995 194.155 249.875 193.057 249.452 192.061C249.029 191.065 248.321 190.217 247.419 189.625C246.832 189.244 246.179 188.977 245.495 188.84C244.81 188.703 244.106 188.701 243.422 188.832C242.714 188.972 242.041 189.249 241.44 189.648C241.384 189.684 240.431 190.311 238.767 191.169C236.532 192.306 234.215 193.273 231.835 194.062C228.578 195.151 225.207 195.866 221.785 196.194C217.767 196.59 213.708 196.334 209.762 195.435C206.738 194.729 203.813 193.642 201.055 192.199C198.153 190.678 195.428 188.832 192.935 186.696C190.198 184.349 187.684 181.752 185.423 178.938C182.89 175.785 180.593 172.447 178.552 168.953C178.213 168.375 177.771 167.866 177.247 167.451C176.74 167.048 176.167 166.738 175.554 166.536C174.945 166.332 174.304 166.239 173.663 166.262C173.01 166.287 172.366 166.43 171.764 166.684Z" fill="#0467DB"/>
<path d="M272.512 89.4634L292.712 149.76C293.12 151.015 293.275 152.339 293.167 153.655C293.058 154.97 292.689 156.251 292.081 157.422C291.472 158.593 290.637 159.632 289.623 160.477C288.609 161.322 287.437 161.957 286.176 162.344C284.914 162.732 283.588 162.864 282.274 162.734C280.961 162.604 279.687 162.213 278.526 161.586C277.365 160.958 276.34 160.105 275.512 159.077C274.684 158.05 274.069 156.867 273.703 155.599L260.966 92.1116C260.551 90.8541 260.391 89.5264 260.496 88.2063C260.601 86.8863 260.968 85.6004 261.577 84.4243C261.78 84.3378 260.036 83.4723 261.053 82.6242C262.07 81.7761 258.767 83.0401 260.034 82.6527C261.3 82.2654 262.631 82.1349 263.948 82.2689C265.266 82.4029 266.543 82.7987 267.705 83.4331C268.868 84.0676 269.892 84.9278 270.717 85.9633C271.542 86.9989 272.153 88.1888 272.512 89.4634Z" fill="#0250AF"/>
<path d="M232.365 70.5051L311.631 70.4941C318.131 70.5174 324.358 73.1164 328.946 77.7217C333.533 82.327 336.109 88.5631 336.107 95.0636C336.106 101.564 333.528 107.799 328.938 112.402C324.348 117.006 318.121 119.602 311.62 119.623L232.332 119.687C229.092 119.7 225.882 119.074 222.886 117.843C219.889 116.612 217.165 114.802 214.871 112.515C212.576 110.228 210.756 107.511 209.515 104.519C208.273 101.527 207.636 98.3187 207.638 95.0793C207.64 91.8399 208.282 88.6328 209.527 85.6423C210.773 82.6519 212.597 79.9369 214.894 77.6534C217.192 75.3699 219.918 73.5629 222.916 72.3362C225.915 71.1094 229.126 70.4872 232.365 70.5051Z" fill="#006AE6"/>
<path d="M321.196 117.683L321.177 117.691C320.42 118.012 319.651 118.293 318.871 118.535C317.312 119.018 315.708 119.343 314.084 119.506C313.269 119.587 312.448 119.629 311.619 119.63L298.603 119.639C298.038 119.64 297.474 119.622 296.913 119.584C296.351 119.546 295.792 119.489 295.235 119.413C294.679 119.337 294.126 119.243 293.577 119.129C293.028 119.015 292.483 118.883 291.945 118.733C292.21 118.662 292.475 118.585 292.741 118.504C293.007 118.422 293.272 118.336 293.535 118.246C293.8 118.155 294.063 118.06 294.326 117.959C294.588 117.859 294.849 117.753 295.108 117.643L295.129 117.635C295.859 117.325 296.571 116.981 297.262 116.605C297.954 116.228 298.626 115.822 299.277 115.386C299.928 114.946 300.557 114.476 301.166 113.974C301.774 113.472 302.357 112.941 302.914 112.38C303.479 111.817 304.013 111.23 304.516 110.618C305.018 110.006 305.489 109.375 305.93 108.724C306.37 108.072 306.778 107.399 307.154 106.705C307.53 106.011 307.874 105.297 308.186 104.565C308.506 103.813 308.788 103.046 309.031 102.266C309.274 101.487 309.478 100.696 309.642 99.8956C309.804 99.096 309.926 98.2889 310.008 97.4771C310.092 96.6599 310.133 95.8369 310.131 95.0081C310.128 94.1793 310.088 93.3574 310.009 92.5425C309.929 91.7299 309.808 90.9218 309.647 90.1212C309.485 89.3224 309.284 88.5322 309.043 87.7536C308.802 86.9743 308.521 86.2052 308.201 85.4464C307.891 84.7157 307.549 84.0032 307.173 83.3089C306.798 82.6146 306.39 81.9421 305.95 81.2913C305.511 80.6393 305.04 80.0086 304.538 79.3993C304.036 78.79 303.499 78.1987 302.927 77.6255C302.364 77.0613 301.778 76.5283 301.167 76.0265C300.557 75.5246 299.926 75.0536 299.274 74.6132C298.622 74.1732 297.949 73.7658 297.255 73.3908C296.562 73.0158 295.851 72.6751 295.123 72.3686C294.887 72.2694 294.649 72.1732 294.409 72.0799C294.169 71.9867 293.926 71.8966 293.681 71.8098C293.44 71.7223 293.196 71.641 292.949 71.566C292.702 71.4909 292.454 71.4164 292.207 71.3422C292.729 71.2019 293.254 71.0791 293.784 70.974C294.314 70.8688 294.847 70.7821 295.384 70.7138C295.919 70.6432 296.456 70.5903 296.997 70.5552C297.537 70.52 298.077 70.5024 298.618 70.5024L311.627 70.499C312.455 70.4991 313.277 70.5396 314.092 70.6203C316.534 70.8623 318.926 71.4719 321.185 72.4285C321.916 72.7382 322.628 73.0826 323.323 73.4616C324.017 73.8407 324.689 74.2481 325.338 74.6839C325.99 75.1229 326.621 75.5935 327.231 76.0958C327.84 76.598 328.426 77.1307 328.989 77.694C329.551 78.2582 330.085 78.845 330.589 79.4544C331.093 80.0639 331.565 80.6944 332.003 81.3459C332.442 81.998 332.849 82.6702 333.224 83.3627C333.598 84.0552 333.94 84.7665 334.249 85.4966C335.206 87.7552 335.815 90.1457 336.056 92.5868C336.136 93.4018 336.177 94.2248 336.177 95.0557C336.177 95.8866 336.136 96.708 336.053 97.52C335.812 99.9616 335.203 102.353 334.247 104.612C333.937 105.344 333.593 106.057 333.215 106.752C332.836 107.448 332.429 108.121 331.992 108.771C331.552 109.424 331.081 110.055 330.579 110.664C330.077 111.274 329.544 111.861 328.979 112.426C328.418 112.988 327.835 113.519 327.231 114.02C326.626 114.521 325.997 114.992 325.343 115.432C324.692 115.872 324.021 116.279 323.329 116.655C322.637 117.031 321.926 117.373 321.196 117.683Z" fill="#0250AF"/>
<path d="M358.493 220.334C358.493 220.334 367.173 329.009 356.608 333.978C346.042 338.947 267.697 252.123 267.697 252.123L312.001 231.287L358.493 220.334Z" fill="url(#paint0_radial)"/>
<path d="M321.171 180.339L340.903 226.846C343.07 231.923 343.415 237.593 341.879 242.894C340.343 248.196 337.021 252.803 332.476 255.935C327.931 259.068 322.443 260.532 316.942 260.079C311.441 259.627 306.265 257.286 302.293 253.454C299.999 251.234 298.176 248.573 296.933 245.632L277.188 199.093C275.026 194.016 274.687 188.347 276.227 183.048C277.768 177.749 281.093 173.145 285.639 170.017C290.186 166.89 295.674 165.43 301.174 165.886C306.673 166.343 311.846 168.686 315.815 172.52C318.107 174.74 319.929 177.399 321.171 180.339Z" fill="#0250AF"/>
<path d="M361.52 187.106C363.567 199.992 360.417 213.163 352.762 223.728C345.106 234.293 333.571 241.388 320.689 243.456L296.227 247.394C283.383 249.341 270.29 246.127 259.807 238.455C249.323 230.782 242.301 219.274 240.273 206.442C238.245 193.61 241.375 180.497 248.981 169.965C256.587 159.434 268.05 152.338 280.869 150.229L305.325 146.319C311.694 145.295 318.203 145.538 324.479 147.035C330.754 148.532 336.672 151.253 341.893 155.042C347.114 158.832 351.535 163.615 354.904 169.117C358.272 174.62 360.52 180.733 361.52 187.106Z" fill="#006AE6"/>
<path d="M312.916 244.906C290.334 245.781 250.738 189.764 279.945 156.002" stroke="#0250AF"/>
<path d="M300.694 147.075C300.979 148.359 292.618 153.297 282.72 155.496C272.822 157.694 263.823 157.791 263.538 156.507C267.949 153.844 271.425 152.12 281.323 149.922C291.221 147.724 290.551 147.421 300.694 147.075Z" fill="#0250AF"/>
<path d="M149.656 161.494C150.855 160.633 152.326 160.238 153.794 160.383C155.263 160.528 156.629 161.203 157.636 162.281C158.115 162.797 158.626 163.282 159.166 163.734C159.631 164.124 160.128 164.474 160.652 164.781C161.105 165.048 161.586 165.263 162.087 165.421C162.535 165.563 163 165.64 163.47 165.65C164.043 165.655 164.612 165.563 165.154 165.379C165.634 165.217 166.094 165.004 166.527 164.742C166.85 164.546 167.158 164.328 167.45 164.089C167.671 163.91 167.792 163.791 167.799 163.784C168.645 162.942 169.717 162.362 170.885 162.116C172.053 161.87 173.267 161.968 174.381 162.398C175.133 162.69 175.819 163.132 176.396 163.696C176.973 164.258 177.434 164.928 177.754 165.667C178.061 166.379 178.23 167.143 178.251 167.919C178.296 169.514 177.706 171.062 176.611 172.222C176.23 172.62 175.826 172.996 175.403 173.348C174.557 174.058 173.655 174.699 172.705 175.262C171.441 176.016 170.094 176.622 168.691 177.068C167.024 177.597 165.285 177.867 163.536 177.87C162.506 177.869 161.478 177.772 160.466 177.581C159.231 177.347 158.024 176.985 156.865 176.499C155.466 175.91 154.136 175.171 152.898 174.293C151.392 173.225 150 172.003 148.745 170.649C148.196 170.064 147.769 169.376 147.486 168.626C147.204 167.876 147.073 167.077 147.1 166.276C147.15 164.656 147.841 163.122 149.022 162.011L149.175 161.873L149.331 161.739L149.49 161.612L149.656 161.494Z" fill="#0250AF"/>
<path d="M409.294 221.343C409.636 221.075 409.96 220.837 410.26 220.629C410.56 220.421 410.832 220.244 411.071 220.094C411.31 219.944 411.515 219.826 411.677 219.735C411.839 219.644 411.959 219.581 412.027 219.546C412.949 219.077 413.973 218.844 415.007 218.867C416.042 218.889 417.055 219.167 417.956 219.676C418.857 220.185 419.618 220.908 420.172 221.782C420.725 222.656 421.054 223.654 421.129 224.686C421.219 225.908 420.951 227.13 420.356 228.203C419.762 229.275 418.868 230.15 417.784 230.722C417.74 230.741 417.568 230.847 417.323 231.023C417.004 231.249 416.703 231.498 416.419 231.767C416.048 232.116 415.716 232.505 415.429 232.926C415.104 233.399 414.859 233.921 414.703 234.473C414.578 234.942 414.519 235.426 414.529 235.91C414.541 236.452 414.614 236.991 414.746 237.517C414.894 238.127 415.094 238.724 415.342 239.301C415.629 239.968 415.958 240.615 416.326 241.241C416.762 241.952 417.053 242.744 417.18 243.569C417.307 244.394 417.269 245.236 417.068 246.046C416.867 246.856 416.506 247.618 416.007 248.288C415.508 248.957 414.881 249.52 414.162 249.945C413.444 250.369 412.648 250.647 411.821 250.76C410.994 250.874 410.152 250.822 409.345 250.608C408.539 250.393 407.783 250.02 407.122 249.51C406.461 249 405.908 248.364 405.495 247.639C404.524 245.997 403.725 244.259 403.111 242.454C402.606 240.972 402.263 239.44 402.089 237.885C401.947 236.596 401.939 235.296 402.066 234.005C402.173 232.945 402.378 231.897 402.678 230.875C403.001 229.766 403.432 228.693 403.966 227.669C404.451 226.741 405.015 225.856 405.65 225.024C406.219 224.28 406.839 223.578 407.506 222.921C408.072 222.361 408.668 221.835 409.294 221.343Z" fill="#0250AF"/>
<path d="M256.157 110.426C254.878 110.352 253.626 110.028 252.473 109.47C251.319 108.913 250.287 108.133 249.436 107.177C248.584 106.22 247.929 105.104 247.509 103.894C247.089 102.684 246.911 101.403 246.987 100.124L265.972 100.261L265.935 100.635L265.934 100.742C265.952 103.292 264.958 105.745 263.168 107.562C261.379 109.379 258.941 110.411 256.391 110.432L256.157 110.426ZM270.27 94.8756C270.324 92.084 271.412 89.4119 273.325 87.3775C275.237 85.3431 277.837 84.0914 280.62 83.8651C283.402 83.6388 286.17 84.4542 288.386 86.1529C290.602 87.8517 292.108 90.3128 292.612 93.059C293.116 95.8052 292.582 98.6407 291.114 101.016C289.645 103.39 287.348 105.135 284.666 105.912C281.984 106.689 279.109 106.442 276.599 105.219C274.089 103.996 272.123 101.885 271.081 99.2941C270.517 97.8905 270.242 96.3879 270.27 94.8756ZM220.556 94.0302C220.611 91.2385 221.7 88.5666 223.613 86.5325C225.526 84.4984 228.126 83.2472 230.909 83.0213C233.692 82.7955 236.459 83.6112 238.675 85.3103C240.891 87.0093 242.397 89.4707 242.901 92.217C243.405 94.9633 242.871 97.7989 241.402 100.174C239.934 102.549 237.636 104.294 234.955 105.071C232.273 105.848 229.398 105.601 226.887 104.379C224.377 103.156 222.41 101.045 221.368 98.4547C220.804 97.0492 220.527 95.5445 220.556 94.0302Z" fill="#4B9DFF"/>
<path d="M257.456 50.1648L265.53 50.0258L265.878 70.503L257.803 70.6454L257.456 50.1648Z" fill="#035DC6"/>
<path d="M261.225 34.5958C263.912 34.5565 266.517 35.5167 268.536 37.2901C270.555 39.0634 271.844 41.5234 272.152 44.193C272.46 46.8625 271.765 49.5512 270.202 51.7376C268.64 53.9239 266.321 55.4519 263.696 56.0253C261.07 56.5986 258.326 56.1764 255.994 54.8405C253.662 53.5046 251.91 51.3503 251.077 48.7955C250.244 46.2407 250.389 43.4675 251.485 41.0138C252.581 38.5602 254.549 36.6012 257.008 35.5166C258.338 34.9301 259.772 34.6169 261.225 34.5958Z" fill="#006AE6"/>
<path opacity="0.636" d="M328.268 154.696C330.101 153.987 332.135 153.999 333.961 154.729C336.314 155.635 338.466 156.995 340.295 158.731C342.651 160.903 344.738 163.35 346.512 166.019C348.609 169.136 350.398 172.448 351.855 175.911C353.333 179.366 354.472 182.956 355.257 186.631C355.945 189.766 356.255 192.972 356.182 196.18C356.16 198.706 355.645 201.204 354.665 203.532C353.924 205.355 352.522 206.831 350.739 207.665C348.907 208.376 346.873 208.366 345.048 207.637C342.695 206.732 340.542 205.373 338.713 203.637C336.355 201.464 334.266 199.015 332.491 196.345C330.393 193.227 328.603 189.913 327.146 186.449C325.668 182.992 324.528 179.401 323.742 175.725C323.055 172.59 322.746 169.385 322.82 166.177C322.842 163.652 323.358 161.155 324.34 158.828C325.081 157.005 326.484 155.529 328.268 154.696Z" fill="#0250AF"/>
<path d="M417.74 230.867C416.234 231.081 414.702 230.74 413.429 229.907C412.156 229.074 411.23 227.806 410.824 226.34C409.586 221.83 408.013 217.418 406.116 213.142C404.428 209.33 402.385 205.686 400.015 202.257C397.856 199.137 395.349 196.272 392.543 193.718C389.875 191.302 386.912 189.234 383.725 187.563C379.55 185.399 375.056 183.918 370.413 183.176C366.486 182.547 362.501 182.365 358.533 182.636C355.65 182.823 352.786 183.232 349.967 183.86C347.873 184.331 346.644 184.747 346.598 184.764C345.618 185.105 344.569 185.198 343.544 185.035C342.519 184.872 341.55 184.458 340.724 183.829C339.898 183.201 339.241 182.377 338.81 181.433C338.38 180.488 338.191 179.452 338.258 178.416C338.339 177.181 338.781 175.996 339.531 175.011C340.281 174.025 341.305 173.283 342.474 172.876C343.981 172.376 345.514 171.956 347.065 171.618C350.63 170.817 354.253 170.301 357.899 170.074C362.874 169.749 367.869 169.997 372.787 170.812C378.633 171.782 384.289 173.669 389.547 176.403C393.51 178.477 397.207 181.024 400.556 183.99C404.016 187.065 407.117 190.522 409.803 194.293C412.703 198.376 415.203 202.729 417.267 207.292C419.557 212.348 421.445 217.577 422.914 222.929C423.365 224.537 423.16 226.257 422.343 227.713C421.526 229.169 420.165 230.241 418.559 230.694L418.353 230.747L418.147 230.794L417.941 230.835L417.74 230.867Z" fill="#006AE6"/>
<path d="M433.076 241.557C432.325 241.665 431.561 241.635 430.821 241.468C429.716 241.219 428.699 240.676 427.878 239.894C427.057 239.113 426.463 238.124 426.16 237.032C425.967 236.333 425.729 235.646 425.45 234.977C425.211 234.398 424.924 233.841 424.593 233.31C424.306 232.85 423.968 232.424 423.586 232.04C423.245 231.697 422.857 231.404 422.434 231.171C421.913 230.893 421.35 230.705 420.767 230.615C420.253 230.534 419.731 230.51 419.212 230.543C418.824 230.565 418.439 230.615 418.058 230.693C417.776 230.748 417.606 230.8 417.597 230.802C416.426 231.167 415.175 231.185 413.994 230.855C412.813 230.524 411.753 229.858 410.943 228.938C410.395 228.311 409.979 227.581 409.721 226.79C409.46 225.999 409.355 225.165 409.414 224.334C409.473 223.537 409.682 222.758 410.032 222.04C410.386 221.308 410.881 220.653 411.488 220.112C412.095 219.571 412.803 219.156 413.571 218.889C414.108 218.707 414.655 218.556 415.209 218.437C416.318 218.192 417.446 218.038 418.58 217.976C420.091 217.89 421.608 217.979 423.099 218.24C424.871 218.551 426.585 219.133 428.182 219.963C429.121 220.456 430.013 221.034 430.845 221.691C431.859 222.495 432.786 223.402 433.61 224.398C434.606 225.602 435.468 226.911 436.181 228.301C437.048 229.997 437.738 231.778 438.24 233.616C438.692 235.223 438.486 236.943 437.67 238.398C436.854 239.854 435.494 240.926 433.888 241.379L433.683 241.434L433.477 241.481L433.271 241.522L433.076 241.557Z" fill="#0250AF"/>
<defs>
<radialGradient id="paint0_radial" cx="0" cy="0" r="1" gradientUnits="userSpaceOnUse" gradientTransform="translate(327.483 261.592) rotate(71.2416) scale(39.7479 15.7298)">
<stop offset="0.213542" stop-color="#E5BD2F"/>
<stop offset="0.518316" stop-color="#E5BF2F" stop-opacity="0.61"/>
<stop offset="0.994792" stop-color="#E5BF2F" stop-opacity="0"/>
</radialGradient>
</defs>
</svg>
