<svg width="420" height="342" viewBox="0 0 420 342" fill="none" xmlns="http://www.w3.org/2000/svg">
<path d="M187.076 231.28C187.076 231.28 222.975 339.05 235.132 339.517C247.289 339.983 287.102 224.822 287.102 224.822L236.128 222.866L187.076 231.28Z" fill="url(#paint0_radial)"/>
<rect x="210" y="212" width="44" height="46" rx="18" fill="#0250AF"/>
<path d="M238.487 81.3604L242.458 142.878C242.529 144.155 242.346 145.434 241.918 146.64C241.49 147.846 240.826 148.954 239.966 149.901C239.105 150.848 238.064 151.614 236.905 152.154C235.745 152.694 234.489 152.999 233.211 153.049C231.932 153.099 230.657 152.894 229.458 152.446C228.26 151.998 227.162 151.316 226.23 150.44C225.298 149.563 224.549 148.51 224.028 147.342C223.507 146.173 223.224 144.912 223.195 143.633L227.011 80.9777C226.933 79.6963 227.113 78.4123 227.539 77.2013C227.964 75.9902 228.628 74.8763 229.49 73.9251C229.702 73.8947 228.282 72.6509 229.446 72.1084C230.609 71.5659 227.2 71.931 228.483 71.8821C229.766 71.8333 231.046 72.0412 232.247 72.4936C233.448 72.9461 234.547 73.6339 235.479 74.5168C236.411 75.3997 237.157 76.4599 237.674 77.6351C238.19 78.8103 238.467 80.0769 238.487 81.3604Z" fill="#0250AF"/>
<path d="M291.95 189.608C291.888 202.256 286.81 214.363 277.83 223.269C268.85 232.176 256.702 237.156 244.054 237.114L220.036 237.047C207.443 236.895 195.421 231.768 186.595 222.785C177.769 213.802 172.856 201.691 172.927 189.098C172.998 176.504 178.049 164.451 186.976 155.568C195.903 146.685 207.982 141.694 220.576 141.686L244.585 141.78C250.839 141.798 257.027 143.051 262.796 145.467C268.564 147.883 273.799 151.414 278.2 155.858C282.6 160.301 286.08 165.57 288.44 171.362C290.8 177.154 291.992 183.355 291.95 189.608Z" fill="#006AE6"/>
<path d="M232 237C232.211 201.573 232.349 178.163 232.568 141.224" stroke="#0250AF"/>
<path d="M225.38 45.6672L233.175 44.9509L234.987 64.7217L227.192 65.4413L225.38 45.6672Z" fill="#035DC6"/>
<path d="M227.902 30.3441C230.496 30.1125 233.085 30.8529 235.164 32.4217C237.244 33.9906 238.667 36.2759 239.157 38.8344C239.647 41.3929 239.169 44.0423 237.816 46.2685C236.463 48.4946 234.332 50.139 231.835 50.8824C229.338 51.6259 226.654 51.4156 224.304 50.2922C221.954 49.1688 220.104 47.2125 219.115 44.8027C218.125 42.3929 218.066 39.7015 218.949 37.2506C219.831 34.7996 221.593 32.7639 223.892 31.5382C225.135 30.8754 226.498 30.4693 227.902 30.3441Z" fill="#006AE6"/>
<path d="M192.353 70.6713L268.981 64.9477C275.267 64.5017 281.473 66.5655 286.24 70.687C291.007 74.8084 293.946 80.6513 294.413 86.9357C294.881 93.22 292.838 99.4333 288.732 104.214C284.627 108.995 278.794 111.954 272.511 112.442L195.866 118.219C192.735 118.466 189.586 118.091 186.601 117.117C183.615 116.143 180.852 114.589 178.469 112.544C176.086 110.499 174.13 108.003 172.715 105.2C171.299 102.397 170.451 99.3417 170.22 96.2099C169.988 93.0781 170.378 89.9315 171.366 86.9508C172.355 83.9701 173.922 81.214 175.979 78.8409C178.036 76.4678 180.541 74.5244 183.351 73.1224C186.161 71.7204 189.22 70.8874 192.353 70.6713Z" fill="#0250AF"/>
<path d="M191.449 67.1009L268.076 61.3774C274.362 60.9314 280.569 62.9952 285.336 67.1166C290.103 71.2381 293.042 77.081 293.509 83.3654C293.976 89.6497 291.933 95.863 287.828 100.644C283.723 105.425 277.89 108.384 271.607 108.872L194.961 114.649C191.831 114.895 188.682 114.521 185.697 113.547C182.711 112.573 179.948 111.019 177.564 108.974C175.181 106.929 173.226 104.433 171.81 101.63C170.395 98.8266 169.547 95.7714 169.315 92.6396C169.084 89.5078 169.474 86.3612 170.462 83.3805C171.45 80.3998 173.018 77.6437 175.075 75.2706C177.131 72.8975 179.637 70.9541 182.447 69.5521C185.257 68.1501 188.316 67.3171 191.449 67.1009Z" fill="#006AE6"/>
<path d="M232.005 99.4677C230.763 99.4892 229.529 99.2656 228.374 98.8098C227.219 98.354 226.165 97.6748 225.273 96.8112C224.38 95.9476 223.667 94.9165 223.174 93.7769C222.68 92.6373 222.416 91.4115 222.397 90.1698L240.76 88.9335L240.752 89.2982L240.758 89.402C240.96 91.8659 240.175 94.309 238.576 96.1945C236.977 98.0799 234.695 99.2532 232.231 99.4566L232.005 99.4677ZM244.428 82.2108C244.278 79.5083 245.138 76.8467 246.84 74.7421C248.542 72.6376 250.965 71.2402 253.639 70.8209C256.313 70.4015 259.047 70.9903 261.312 72.4728C263.576 73.9553 265.21 76.2261 265.895 78.8446C266.58 81.463 266.268 84.2427 265.02 86.6443C263.772 89.046 261.676 90.8985 259.14 91.8426C256.603 92.7867 253.806 92.7551 251.291 91.7538C248.777 90.7526 246.723 88.8532 245.53 86.4239C244.884 85.1076 244.509 83.6749 244.428 82.2108ZM196.407 86.1837C196.258 83.481 197.119 80.8195 198.821 78.7152C200.524 76.611 202.947 75.2139 205.621 74.795C208.295 74.3761 211.03 74.9652 213.294 76.448C215.559 77.9309 217.192 80.2018 217.877 82.8204C218.562 85.439 218.25 88.2188 217.002 90.6206C215.754 93.0224 213.658 94.8751 211.122 95.8195C208.585 96.7638 205.788 96.7325 203.273 95.7317C200.758 94.7308 198.705 92.8316 197.51 90.4025C196.863 89.0845 196.488 87.6497 196.407 86.1837Z" fill="#4B9DFF"/>
<path d="M82.0119 88.3677C81.5117 88.9064 81.1143 89.5322 80.8393 90.2139C80.4274 91.2322 80.2996 92.3432 80.4693 93.4284C80.639 94.5136 81.1 95.5325 81.8031 96.3764C82.2536 96.9167 82.6699 97.4846 83.0495 98.0769C83.379 98.5864 83.6651 99.1226 83.9049 99.6799C84.1131 100.162 84.2665 100.666 84.3623 101.183C84.4472 101.644 84.4662 102.115 84.4189 102.581C84.3532 103.149 84.192 103.702 83.9422 104.216C83.723 104.67 83.4546 105.1 83.1419 105.496C82.9098 105.792 82.6572 106.072 82.3858 106.332C82.1862 106.527 82.0504 106.633 82.0438 106.639C81.1069 107.371 80.402 108.359 80.0141 109.482C79.6263 110.606 79.5722 111.818 79.8584 112.972C80.0553 113.754 80.4083 114.489 80.8961 115.131C81.3822 115.776 81.9899 116.319 82.6849 116.731C83.3523 117.124 84.0885 117.386 84.8541 117.504C85.6328 117.626 86.4278 117.593 87.1938 117.407C87.9597 117.222 88.6816 116.887 89.3179 116.422C89.759 116.094 90.1812 115.741 90.5824 115.366C91.3898 114.617 92.1345 113.803 92.8092 112.933C93.7119 111.776 94.478 110.518 95.0924 109.186C95.8221 107.601 96.3047 105.914 96.5235 104.183C96.6495 103.163 96.6803 102.133 96.6156 101.107C96.5346 99.8557 96.3228 98.6165 95.9838 97.4095C95.5737 95.9514 95.0063 94.5422 94.2914 93.2068C93.4178 91.5798 92.379 90.0471 91.1915 88.6329C90.1598 87.3869 88.6756 86.6013 87.0651 86.4486C85.4546 86.296 83.8493 86.7887 82.6018 87.8187L82.4453 87.9518L82.2939 88.0903L82.148 88.2321L82.0119 88.3677Z" fill="#0250AF"/>
<path d="M377.633 70.5515C377.015 70.9496 376.475 71.4575 376.04 72.05C375.389 72.9346 374.99 73.9793 374.886 75.0728C374.781 76.1662 374.976 77.2675 375.448 78.2592C375.751 78.8942 376.014 79.5475 376.235 80.2153C376.428 80.7905 376.572 81.3809 376.667 81.9802C376.749 82.4991 376.773 83.0256 376.738 83.5498C376.706 84.0175 376.608 84.4783 376.446 84.9184C376.242 85.4524 375.949 85.948 375.58 86.3843C375.255 86.7704 374.889 87.1197 374.488 87.426C374.19 87.6556 373.875 87.864 373.548 88.0495C373.306 88.1886 373.149 88.2581 373.141 88.2621C372.052 88.7393 371.124 89.5215 370.47 90.5144C369.816 91.5072 369.464 92.6682 369.455 93.8571C369.453 94.6636 369.613 95.4623 369.927 96.2053C370.238 96.9505 370.692 97.6276 371.264 98.1982C371.813 98.7443 372.461 99.181 373.174 99.4848C373.898 99.7956 374.676 99.9605 375.465 99.9701C376.253 99.9798 377.035 99.834 377.767 99.541C378.275 99.3326 378.771 99.0955 379.253 98.831C380.221 98.3052 381.144 97.7012 382.013 97.025C383.174 96.1274 384.227 95.0988 385.153 93.9597C386.252 92.6051 387.137 91.0901 387.778 89.4673C388.152 88.5099 388.437 87.5197 388.629 86.5095C388.86 85.2772 388.961 84.0241 388.932 82.7707C388.895 81.2565 388.694 79.7507 388.332 78.2799C387.889 76.4873 387.262 74.7452 386.461 73.081C385.77 71.6183 384.527 70.4898 383.004 69.9431C381.482 69.3965 379.804 69.4765 378.341 70.1656L378.156 70.2558L377.975 70.3525L377.799 70.4538L377.633 70.5515Z" fill="#0250AF"/>
<path d="M194.5 166C96.5 186.5 84 110 84 110" stroke="#006AE6" stroke-width="12"/>
<path d="M270.5 165.5C316 160 358 149 370 94.5" stroke="#006AE6" stroke-width="12"/>
<path d="M385.506 91.8319L348.102 84.7429C346.75 84.4852 345.555 83.7015 344.78 82.5639C344.005 81.4262 343.713 80.0274 343.968 78.6746L353.742 27.1014C354 25.7491 354.784 24.5543 355.921 23.7791C357.059 23.004 358.458 22.7119 359.81 22.9669L383.64 27.4831L398.776 49.6989L391.574 87.6973C391.317 89.0497 390.533 90.2445 389.395 91.0196C388.258 91.7948 386.859 92.0869 385.506 91.8319Z" fill="#522A98"/>
<path opacity="0.96" d="M398.739 49.7528L395.715 65.7109L381.564 44.5564L398.739 49.7528Z" fill="#532F9B"/>
<path opacity="0.96" d="M385.162 47.1442C383.81 46.886 382.616 46.102 381.842 44.9645C381.068 43.827 380.777 42.4291 381.032 41.0771L383.605 27.5L398.739 49.7174L385.162 47.1442Z" fill="#BAA6DE"/>
<path opacity="0.96" d="M355.451 67.6376C355.546 67.1331 355.789 66.6683 356.149 66.3019C356.509 65.9356 356.969 65.6841 357.472 65.5794C357.974 65.4747 358.497 65.5214 358.973 65.7136C359.449 65.9058 359.858 66.2348 360.147 66.6592C360.436 67.0835 360.593 67.5841 360.597 68.0975C360.602 68.6109 360.454 69.1142 360.173 69.5437C359.891 69.9732 359.489 70.3096 359.016 70.5104C358.544 70.7112 358.022 70.7673 357.518 70.6717C356.841 70.5435 356.244 70.1518 355.856 69.5828C355.468 69.0138 355.322 68.3141 355.451 67.6376V67.6376ZM362.441 71.0182L363.086 67.6155L381.222 71.0527L380.577 74.4553L362.441 71.0182ZM363.837 63.6517L364.482 60.249L382.618 63.6862L381.973 67.0863L363.837 63.6517ZM356.955 59.7022C357.05 59.1977 357.293 58.7329 357.653 58.3666C358.013 58.0002 358.473 57.7488 358.976 57.6441C359.478 57.5394 360.001 57.5861 360.477 57.7783C360.953 57.9705 361.362 58.2995 361.651 58.7239C361.94 59.1482 362.097 59.6487 362.101 60.1622C362.106 60.6756 361.958 61.1789 361.677 61.6084C361.395 62.0379 360.993 62.3743 360.52 62.5751C360.048 62.7759 359.526 62.832 359.022 62.7364C358.345 62.6082 357.747 62.2165 357.36 61.6475C356.972 61.0784 356.826 60.3787 356.955 59.7022H356.955ZM358.458 51.7695C358.554 51.265 358.797 50.8002 359.156 50.4338C359.516 50.0675 359.977 49.8161 360.479 49.7113C360.982 49.6066 361.504 49.6533 361.98 49.8455C362.457 50.0377 362.865 50.3668 363.154 50.7911C363.443 51.2154 363.6 51.716 363.605 52.2294C363.609 52.7429 363.462 53.2462 363.18 53.6757C362.899 54.1052 362.496 54.4416 362.024 54.6423C361.551 54.8431 361.03 54.8993 360.525 54.8036C359.849 54.6754 359.251 54.2837 358.863 53.7147C358.476 53.1457 358.33 52.446 358.458 51.7695V51.7695ZM365.556 54.5838L366.201 51.1811L384.336 54.6183L383.692 58.0184L365.556 54.5838Z" fill="white"/>
<path d="M389.511 86.7152L353.048 97.6589C351.729 98.0534 350.307 97.9084 349.095 97.2559C347.883 96.6034 346.979 95.4966 346.582 94.1784L331.493 43.9028C331.098 42.5838 331.243 41.1623 331.896 39.9501C332.548 38.7379 333.655 37.8342 334.973 37.4371L358.203 30.4651L381.873 43.207L392.991 80.2495C393.386 81.5684 393.241 82.99 392.588 84.2021C391.936 85.4143 390.829 86.3181 389.511 86.7152Z" fill="#764DBE"/>
<path opacity="0.96" d="M381.866 43.2715L386.535 58.8281L364.228 46.574L381.866 43.2715Z" fill="#6E48B8"/>
<path opacity="0.96" d="M368.615 47.2134C367.296 47.607 365.875 47.4613 364.664 46.8085C363.453 46.1557 362.55 45.0492 362.154 43.7316L358.182 30.4961L381.85 43.241L368.615 47.2134Z" fill="#BAA6DE"/>
<path opacity="0.96" d="M351.688 79.0921C351.54 78.6003 351.542 78.0758 351.692 77.5849C351.843 77.094 352.135 76.6587 352.533 76.3341C352.931 76.0096 353.416 75.8103 353.928 75.7614C354.439 75.7126 354.953 75.8165 355.405 76.0598C355.857 76.3032 356.227 76.6752 356.468 77.1288C356.708 77.5823 356.809 78.097 356.757 78.6079C356.705 79.1187 356.503 79.6027 356.176 79.9987C355.849 80.3947 355.413 80.6848 354.921 80.8324C354.261 81.0303 353.55 80.9582 352.944 80.6318C352.338 80.3054 351.886 79.7516 351.688 79.0921V79.0921ZM359.45 78.8714L358.454 75.5543L376.133 70.2481L377.129 73.5652L359.45 78.8714ZM357.294 71.6902L356.299 68.3731L373.978 63.0669L374.973 66.3815L357.294 71.6902ZM349.366 71.3564C349.219 70.8647 349.22 70.3401 349.371 69.8492C349.521 69.3583 349.814 68.923 350.212 68.5985C350.609 68.2739 351.095 68.0746 351.606 68.0258C352.117 67.9769 352.631 68.0808 353.083 68.3242C353.535 68.5675 353.905 68.9395 354.146 69.3931C354.387 69.8466 354.487 70.3614 354.436 70.8722C354.384 71.3831 354.182 71.8671 353.855 72.263C353.528 72.659 353.091 72.9491 352.599 73.0967C351.94 73.2946 351.228 73.2225 350.622 72.8961C350.016 72.5698 349.564 72.0159 349.366 71.3564V71.3564ZM347.045 63.6233C346.898 63.1315 346.899 62.607 347.05 62.116C347.2 61.6251 347.493 61.1899 347.891 60.8653C348.289 60.5407 348.774 60.3414 349.285 60.2926C349.796 60.2438 350.31 60.3476 350.762 60.591C351.214 60.8344 351.584 61.2064 351.825 61.6599C352.066 62.1135 352.166 62.6282 352.115 63.139C352.063 63.6499 351.861 64.1339 351.534 64.5298C351.207 64.9258 350.77 65.2159 350.278 65.3635C349.619 65.5615 348.907 65.4893 348.301 65.163C347.695 64.8366 347.243 64.2828 347.045 63.6233V63.6233ZM354.641 62.8505L353.646 59.5334L371.325 54.2272L372.32 57.5418L354.641 62.8505Z" fill="white"/>
<path d="M355.299 77.669C356.034 77.6495 356.766 77.7647 357.459 78.0088C358.496 78.3725 359.414 79.0106 360.116 79.8551C360.819 80.6996 361.279 81.7189 361.448 82.8042C361.556 83.4994 361.707 84.1871 361.9 84.8634C362.065 85.4474 362.279 86.0165 362.539 86.5647C362.763 87.0397 363.04 87.488 363.364 87.9013C363.654 88.2696 363.995 88.595 364.377 88.8676C364.846 89.1935 365.368 89.4378 365.919 89.5901C366.405 89.7258 366.904 89.8079 367.408 89.8349C367.784 89.8565 368.16 89.8517 368.536 89.8203C368.813 89.7991 368.983 89.7674 368.992 89.7664C370.16 89.5467 371.367 89.6701 372.467 90.1217C373.567 90.5732 374.512 91.3335 375.189 92.3108C375.646 92.9754 375.964 93.7255 376.124 94.5161C376.287 95.3071 376.293 96.1223 376.143 96.9158C375.997 97.6766 375.707 98.4026 375.29 99.0552C374.867 99.7201 374.317 100.295 373.671 100.747C373.026 101.199 372.297 101.52 371.528 101.69C370.99 101.805 370.447 101.889 369.9 101.942C368.804 102.053 367.701 102.074 366.602 102.005C365.137 101.918 363.687 101.663 362.281 101.243C360.609 100.744 359.024 99.9912 357.581 99.0117C356.731 98.432 355.938 97.7746 355.211 97.048C354.325 96.1605 353.535 95.1827 352.853 94.1307C352.029 92.8594 351.347 91.5023 350.817 90.0833C350.173 88.3526 349.709 86.5601 349.432 84.7343C349.179 83.1365 349.57 81.5035 350.519 80.1938C351.469 78.884 352.899 78.0047 354.497 77.749L354.7 77.7195L354.904 77.6973L355.107 77.6815L355.299 77.669Z" fill="#0250AF"/>
<path d="M337.232 6.3095C337.068 5.95492 336.83 5.68369 336.519 5.49582C336.207 5.30129 335.842 5.19437 335.422 5.17504C334.963 5.15388 334.548 5.23824 334.179 5.42813C333.81 5.61802 333.514 5.898 333.29 6.26809C333.072 6.63849 332.952 7.07342 332.929 7.5729C332.906 8.07237 332.986 8.51983 333.168 8.91529C333.357 9.30439 333.626 9.61045 333.976 9.83346C334.326 10.0565 334.731 10.1786 335.191 10.1997C335.81 10.2282 336.321 10.0782 336.723 9.74974C337.125 9.42122 337.383 8.96261 337.497 8.37389L334.89 8.25382L334.932 7.34478L338.758 7.52098L338.717 8.41004C338.619 8.94609 338.403 9.43334 338.069 9.87178C337.742 10.3105 337.322 10.6549 336.81 10.905C336.305 11.1486 335.749 11.2565 335.143 11.2286C334.491 11.1986 333.902 11.0213 333.376 10.6968C332.851 10.3656 332.441 9.9229 332.146 9.36875C331.858 8.81491 331.729 8.19835 331.76 7.51907C331.792 6.83979 331.976 6.23764 332.314 5.71263C332.659 5.18792 333.108 4.78815 333.661 4.51331C334.221 4.23212 334.824 4.1064 335.47 4.13614C336.209 4.17019 336.857 4.38354 337.413 4.77619C337.975 5.16249 338.371 5.6946 338.6 6.37253L337.232 6.3095ZM342.089 11.5785C341.57 11.5546 341.105 11.4164 340.697 11.164C340.288 10.905 339.974 10.5568 339.754 10.1195C339.534 9.67563 339.437 9.17064 339.463 8.60457C339.489 8.04517 339.635 7.5547 339.901 7.13317C340.168 6.71165 340.519 6.39415 340.956 6.1807C341.393 5.96724 341.875 5.87262 342.401 5.89685C342.927 5.92108 343.398 6.05955 343.813 6.31227C344.229 6.56498 344.55 6.91345 344.776 7.35768C345.002 7.8019 345.103 8.30371 345.077 8.86312C345.051 9.42253 344.902 9.91284 344.629 10.3341C344.356 10.7553 343.994 11.0756 343.544 11.2951C343.1 11.5083 342.615 11.6028 342.089 11.5785ZM342.135 10.5896C342.428 10.6031 342.704 10.5457 342.963 10.4175C343.23 10.2896 343.449 10.0895 343.622 9.81717C343.794 9.54483 343.89 9.20887 343.908 8.80929C343.927 8.40972 343.866 8.06988 343.725 7.78978C343.585 7.50303 343.391 7.28389 343.145 7.13239C342.898 6.98088 342.628 6.89838 342.335 6.88489C342.042 6.87139 341.766 6.92874 341.506 7.05694C341.254 7.18544 341.047 7.38617 340.888 7.65913C340.729 7.92543 340.64 8.25836 340.622 8.65794C340.595 9.25064 340.723 9.71706 341.008 10.0572C341.299 10.3909 341.675 10.5684 342.135 10.5896ZM348.459 11.8719C347.94 11.848 347.476 11.7098 347.067 11.4574C346.658 11.1983 346.344 10.8502 346.124 10.4129C345.904 9.969 345.807 9.46401 345.833 8.89794C345.859 8.33854 346.005 7.84807 346.271 7.42654C346.538 7.00502 346.889 6.68752 347.326 6.47407C347.763 6.26061 348.245 6.16599 348.771 6.19022C349.297 6.21445 349.768 6.35292 350.183 6.60564C350.599 6.85835 350.92 7.20682 351.146 7.65104C351.373 8.09527 351.473 8.59708 351.447 9.15649C351.422 9.7159 351.272 10.2062 350.999 10.6274C350.726 11.0486 350.364 11.369 349.914 11.5885C349.47 11.8017 348.985 11.8961 348.459 11.8719ZM348.505 10.8829C348.798 10.8964 349.074 10.8391 349.334 10.7109C349.6 10.583 349.819 10.3829 349.992 10.1105C350.165 9.8382 350.26 9.50224 350.279 9.10266C350.297 8.70309 350.236 8.36325 350.095 8.08315C349.955 7.79639 349.761 7.57726 349.515 7.42576C349.268 7.27425 348.998 7.19175 348.705 7.17825C348.412 7.16476 348.136 7.22211 347.877 7.35031C347.624 7.47881 347.418 7.67954 347.258 7.9525C347.099 8.2188 347.01 8.55173 346.992 8.95131C346.965 9.54401 347.093 10.0104 347.378 10.3505C347.67 10.6843 348.045 10.8618 348.505 10.8829ZM354.921 6.47347C355.348 6.4931 355.72 6.597 356.038 6.78518C356.364 6.96701 356.614 7.18874 356.788 7.4504L356.825 6.65124L357.974 6.70415L357.716 12.2982C357.693 12.8044 357.566 13.249 357.335 13.6321C357.103 14.0218 356.779 14.3206 356.362 14.5283C355.952 14.7363 355.468 14.8274 354.908 14.8017C354.162 14.7673 353.551 14.5623 353.075 14.1867C352.598 13.8177 352.34 13.332 352.301 12.7295L353.43 12.7815C353.503 13.0719 353.676 13.3101 353.947 13.4961C354.225 13.6891 354.561 13.7946 354.954 13.8127C355.413 13.8339 355.789 13.7111 356.082 13.4442C356.381 13.1777 356.543 12.7781 356.568 12.2453L356.61 11.3263C356.405 11.5771 356.132 11.7848 355.79 11.9492C355.456 12.1074 355.079 12.1768 354.66 12.1574C354.18 12.1354 353.746 11.9952 353.358 11.7371C352.976 11.4726 352.679 11.1185 352.465 10.6749C352.259 10.225 352.169 9.72362 352.194 9.17087C352.22 8.61813 352.356 8.13386 352.602 7.71807C352.854 7.30259 353.183 6.98735 353.586 6.77236C353.997 6.55102 354.442 6.45139 354.921 6.47347ZM356.699 9.39833C356.716 9.01873 356.651 8.6854 356.504 8.39834C356.364 8.11158 356.171 7.88912 355.925 7.73095C355.678 7.57279 355.409 7.48696 355.116 7.47346C354.823 7.45997 354.546 7.52065 354.286 7.65551C354.027 7.7837 353.811 7.98397 353.638 8.25632C353.472 8.52231 353.381 8.8451 353.363 9.2247C353.346 9.6043 353.407 9.9408 353.547 10.2342C353.694 10.5279 353.89 10.7572 354.136 10.922C354.389 11.0805 354.659 11.1663 354.945 11.1795C355.238 11.193 355.514 11.1323 355.774 10.9975C356.034 10.8626 356.247 10.6589 356.413 10.3862C356.586 10.1072 356.681 9.77793 356.699 9.39833ZM360.695 4.93748L360.355 12.3296L359.216 12.2772L359.557 4.88504L360.695 4.93748ZM367.028 9.74388C367.018 9.95033 366.996 10.1362 366.962 10.3015L362.757 10.1078C362.77 10.5488 362.916 10.9093 363.197 11.1892C363.478 11.4691 363.831 11.6188 364.258 11.6385C364.87 11.6667 365.315 11.4302 365.592 10.9291L366.82 10.9857C366.631 11.4841 366.308 11.8864 365.854 12.1925C365.406 12.4922 364.86 12.6272 364.214 12.5974C363.687 12.5732 363.22 12.4349 362.811 12.1825C362.409 11.9237 362.098 11.5757 361.878 11.1385C361.665 10.6948 361.571 10.19 361.598 9.62394C361.624 9.05788 361.76 8.56695 362.006 8.15116C362.259 7.72902 362.597 7.41092 363.021 7.19684C363.451 6.98308 363.936 6.88862 364.475 6.91346C364.995 6.93738 365.452 7.07191 365.848 7.31705C366.244 7.56218 366.546 7.89641 366.753 8.31974C366.961 8.7364 367.052 9.21112 367.028 9.74388ZM365.856 9.32952C365.868 8.90966 365.734 8.56645 365.453 8.29989C365.171 8.03333 364.814 7.89008 364.381 7.87014C363.988 7.85205 363.646 7.96309 363.355 8.20328C363.064 8.4368 362.882 8.76544 362.809 9.18921L365.856 9.32952ZM373.129 8.33306L372.11 8.28613L371.899 12.8613L370.75 12.8084L370.961 8.23323L370.312 8.20333L370.354 7.27431L371.004 7.30421L371.022 6.91463C371.051 6.28196 371.238 5.83012 371.585 5.55909C371.938 5.28171 372.474 5.15958 373.193 5.1927L373.15 6.1417C372.803 6.12575 372.557 6.18115 372.411 6.3079C372.265 6.42799 372.185 6.64787 372.17 6.96753L372.153 7.35712L373.171 7.40404L373.129 8.33306ZM376.311 13.1545C375.791 13.1306 375.327 12.9925 374.918 12.74C374.51 12.481 374.195 12.1328 373.975 11.6956C373.755 11.2516 373.659 10.7467 373.685 10.1806C373.71 9.62118 373.856 9.13072 374.123 8.70919C374.389 8.28766 374.741 7.97017 375.178 7.75671C375.615 7.54325 376.096 7.44864 376.622 7.47287C377.148 7.4971 377.619 7.63557 378.035 7.88829C378.45 8.141 378.771 8.48947 378.998 8.93369C379.224 9.37791 379.324 9.87973 379.299 10.4391C379.273 10.9985 379.123 11.4889 378.85 11.9101C378.577 12.3313 378.216 12.6517 377.765 12.8712C377.322 13.0843 376.837 13.1788 376.311 13.1545ZM376.356 12.1656C376.649 12.1791 376.925 12.1217 377.185 11.9935C377.451 11.8656 377.67 11.6655 377.843 11.3932C378.016 11.1208 378.111 10.7849 378.13 10.3853C378.148 9.98573 378.087 9.6459 377.947 9.3658C377.806 9.07904 377.613 8.85991 377.366 8.7084C377.12 8.5569 376.85 8.4744 376.557 8.4609C376.264 8.44741 375.987 8.50476 375.728 8.63296C375.475 8.76146 375.269 8.96219 375.11 9.23515C374.95 9.50144 374.862 9.83438 374.843 10.234C374.816 10.8267 374.945 11.2931 375.229 11.6332C375.521 11.967 375.897 12.1444 376.356 12.1656ZM381.653 8.59549C381.832 8.32345 382.062 8.11714 382.342 7.97654C382.629 7.82959 382.962 7.76486 383.342 7.78234L383.288 8.96109L382.998 8.94775C382.552 8.9272 382.207 9.02477 381.964 9.24046C381.727 9.45646 381.595 9.84417 381.57 10.4036L381.436 13.3005L380.297 13.2481L380.551 7.74389L381.69 7.79634L381.653 8.59549ZM391.052 8.1374C391.485 8.15733 391.867 8.26503 392.198 8.46048C392.536 8.65624 392.794 8.93504 392.97 9.29689C393.154 9.65905 393.234 10.0899 393.211 10.5893L393.062 13.8359L391.933 13.7839L392.075 10.7072C392.097 10.2144 391.991 9.83242 391.757 9.56135C391.523 9.28362 391.193 9.13494 390.767 9.11531C390.34 9.09568 389.995 9.21323 389.729 9.46796C389.471 9.71634 389.33 10.0869 389.308 10.5797L389.166 13.6565L388.037 13.6045L388.179 10.5278C388.201 10.0349 388.096 9.653 387.861 9.38193C387.627 9.1042 387.297 8.95552 386.871 8.93589C386.444 8.91626 386.099 9.03381 385.833 9.28854C385.575 9.53692 385.434 9.90751 385.412 10.4003L385.27 13.4771L384.131 13.4246L384.385 7.92045L385.524 7.9729L385.495 8.60223C385.691 8.38439 385.936 8.2188 386.228 8.10546C386.52 7.99211 386.83 7.94295 387.156 7.95798C387.595 7.97822 387.984 8.08955 388.322 8.29197C388.66 8.49439 388.913 8.77637 389.084 9.13792C389.266 8.8126 389.537 8.56151 389.899 8.38464C390.261 8.2011 390.646 8.11869 391.052 8.1374ZM402.344 8.74754L402.09 14.2517L400.952 14.1993L400.982 13.5499C400.791 13.7681 400.547 13.937 400.248 14.0567C399.955 14.1701 399.646 14.2192 399.32 14.2042C398.887 14.1842 398.501 14.0764 398.163 13.8806C397.832 13.6852 397.575 13.4064 397.391 13.0442C397.214 12.6824 397.137 12.2517 397.16 11.7522L397.309 8.51567L398.438 8.56766L398.297 11.6344C398.274 12.1272 398.38 12.5125 398.614 12.7902C398.848 13.0613 399.179 13.2066 399.605 13.2263C400.031 13.2459 400.374 13.1315 400.632 12.8832C400.897 12.6284 401.041 12.2547 401.064 11.7618L401.205 8.69509L402.344 8.74754ZM404.949 9.66833C405.128 9.3963 405.358 9.18998 405.638 9.04938C405.925 8.90243 406.258 8.8377 406.638 8.85518L406.583 10.0339L406.294 10.0206C405.848 10 405.503 10.0976 405.259 10.3133C405.022 10.5293 404.891 10.917 404.865 11.4764L404.732 14.3733L403.593 14.3209L403.847 8.81673L404.985 8.86918L404.949 9.66833ZM408.906 7.15774L408.566 14.5499L407.427 14.4975L407.767 7.10529L408.906 7.15774Z" fill="#805BC2"/>
<path d="M331.184 11.9873L409.269 15.5834L409.246 16.0828L331.161 12.4868L331.184 11.9873Z" fill="#805BC2"/>
<rect x="0.675781" y="87.8613" width="149.953" height="30.2852" rx="15.1426" transform="rotate(-11.9093 0.675781 87.8613)" fill="#532E9B"/>
<rect x="1" y="87.8047" width="147.437" height="26.1104" rx="13.0552" transform="rotate(-11.9093 1 87.8047)" fill="#7B54C0"/>
<path d="M36.6695 89.6028L38.1181 96.4717L36.4449 96.8246L34.9963 89.9557L36.6695 89.6028ZM45.1335 89.2281C45.812 89.085 46.3935 89.177 46.878 89.5041C47.3692 89.8297 47.6917 90.3578 47.8458 91.0884L48.5186 94.2783L46.8552 94.6291L46.2299 91.6643C46.1556 91.3121 46.0039 91.0613 45.7748 90.912C45.5509 90.7548 45.2759 90.7106 44.9497 90.7794C44.6236 90.8482 44.3865 91.0004 44.2386 91.236C44.0959 91.4637 44.0617 91.7537 44.1359 92.1059L44.7612 95.0707L43.0978 95.4215L42.4725 92.4567C42.3982 92.1045 42.2466 91.8537 42.0175 91.7044C41.7936 91.5473 41.5185 91.5031 41.1924 91.5719C40.8662 91.6407 40.6292 91.7928 40.4813 92.0284C40.3385 92.2561 40.3043 92.5461 40.3786 92.8984L41.0039 95.8631L39.3307 96.216L38.1792 90.7561L39.8524 90.4032L39.9968 91.0882C40.1183 90.8241 40.3022 90.5979 40.5487 90.4097C40.7938 90.2149 41.0892 90.0811 41.4349 90.0082C41.8459 89.9215 42.2297 89.9325 42.5865 90.0412C42.9498 90.1486 43.2572 90.346 43.5086 90.6337C43.6345 90.2937 43.8406 89.9948 44.1269 89.7368C44.4131 89.4788 44.7487 89.3093 45.1335 89.2281ZM50.3735 88.9917C50.4829 88.7029 50.6646 88.45 50.9186 88.2329C51.1726 88.0158 51.4921 87.8666 51.8769 87.7855C52.327 87.6906 52.7588 87.7187 53.1722 87.87C53.5857 88.0213 53.9415 88.2869 54.2397 88.6669C54.5444 89.0455 54.7559 89.5153 54.8742 90.0763C54.9925 90.6373 54.9894 91.1557 54.8649 91.6316C54.7456 92.0997 54.5281 92.4896 54.2123 92.8015C53.8952 93.1069 53.5115 93.307 53.0614 93.4019C52.6831 93.4817 52.3307 93.4743 52.0041 93.3796C51.6841 93.2836 51.4164 93.1289 51.201 92.9154L51.9109 96.2813L50.2377 96.6342L48.5373 88.5716L50.2105 88.2187L50.3735 88.9917ZM53.1716 90.4353C53.0836 90.0179 52.8974 89.7165 52.613 89.5312C52.3338 89.3379 52.0246 89.2771 51.6854 89.3487C51.3527 89.4188 51.0944 89.5993 50.9105 89.8902C50.7331 90.1797 50.6884 90.5332 50.7764 90.9507C50.8645 91.3682 51.0481 91.6735 51.3273 91.8667C51.6131 92.0586 51.9223 92.1194 52.2549 92.0492C52.5876 91.9791 52.8459 91.7986 53.0299 91.5077C53.2124 91.2103 53.2597 90.8528 53.1716 90.4353ZM58.8316 92.185C58.2967 92.2978 57.7899 92.2854 57.3113 92.1479C56.8391 92.009 56.4344 91.7537 56.0971 91.382C55.7663 91.0089 55.541 90.5386 55.4214 89.9711C55.303 89.4101 55.3231 88.8915 55.4816 88.4152C55.6387 87.9324 55.9084 87.5314 56.2908 87.2123C56.6731 86.8932 57.1318 86.6772 57.6667 86.5644C58.2016 86.4516 58.7084 86.4639 59.187 86.6015C59.6657 86.739 60.0744 86.9969 60.4131 87.3751C60.7504 87.7468 60.9782 88.2132 61.0965 88.7742C61.2148 89.3352 61.1922 89.8578 61.0286 90.3419C60.8701 90.8182 60.5964 91.2166 60.2075 91.5371C59.8252 91.8562 59.3665 92.0722 58.8316 92.185ZM58.5262 90.7368C58.8458 90.6694 59.0918 90.4949 59.2641 90.2133C59.4428 89.9303 59.4861 89.5703 59.394 89.1333C59.3018 88.6962 59.12 88.3836 58.8487 88.1956C58.5839 88.0062 58.2917 87.9451 57.9721 88.0126C57.6459 88.0813 57.4 88.2559 57.2342 88.5361C57.0671 88.8098 57.0304 89.1684 57.1239 89.612C57.2161 90.0491 57.3913 90.363 57.6496 90.5538C57.9144 90.7432 58.2066 90.8043 58.5262 90.7368ZM63.2735 86.4141C63.4059 86.0728 63.601 85.7864 63.8588 85.5549C64.1152 85.3168 64.4228 85.16 64.7816 85.0843L65.1551 86.8553L64.6952 86.9523C64.2777 87.0404 63.9839 87.1977 63.8136 87.4244C63.642 87.6446 63.6037 87.9797 63.6986 88.4298L64.2331 90.964L62.5599 91.3169L61.4084 85.857L63.0816 85.5041L63.2735 86.4141ZM69.489 88.3737L69.7883 89.7925L68.937 89.972C68.3303 90.0999 67.8264 90.0529 67.4253 89.8309C67.0228 89.6024 66.7508 89.1522 66.609 88.4803L66.1509 86.3081L65.4856 86.4484L65.1925 85.059L65.8579 84.9186L65.5772 83.5879L67.2504 83.235L67.5311 84.5657L68.627 84.3346L68.92 85.7241L67.8241 85.9552L68.2864 88.147C68.3208 88.31 68.3847 88.4192 68.4781 88.4745C68.5715 88.5297 68.7095 88.5381 68.8922 88.4995L69.489 88.3737ZM76.3629 83.5002C76.1909 83.2981 75.975 83.163 75.7154 83.0952C75.461 83.0194 75.1772 83.0145 74.8641 83.0805C74.3226 83.1947 73.9267 83.4656 73.6762 83.8932C73.4243 84.3142 73.361 84.8215 73.4862 85.4151C73.6196 86.0479 73.8938 86.5079 74.3087 86.7951C74.7287 87.0744 75.2388 87.1508 75.8389 87.0242C76.2498 86.9376 76.5736 86.7603 76.81 86.4924C77.053 86.2231 77.1985 85.879 77.2464 85.4601L75.1231 85.9079L74.8631 84.675L78.503 83.9074L78.8311 85.4632C78.7952 85.9068 78.6651 86.3396 78.4407 86.7617C78.2228 87.1824 77.909 87.5517 77.4991 87.8698C77.0893 88.1879 76.5973 88.4075 76.0233 88.5286C75.3449 88.6717 74.7073 88.6528 74.1105 88.4721C73.5188 88.2835 73.0172 87.9566 72.6057 87.4915C72.2007 87.025 71.9267 86.4526 71.7836 85.7742C71.6406 85.0958 71.6601 84.4614 71.8422 83.8711C72.0294 83.273 72.3563 82.7714 72.8228 82.3664C73.2879 81.9549 73.8596 81.6776 74.538 81.5345C75.3599 81.3612 76.0934 81.4143 76.7383 81.6939C77.3897 81.9721 77.881 82.4442 78.2123 83.1102L76.3629 83.5002ZM82.7489 87.1408C82.214 87.2536 81.7072 87.2413 81.2285 87.1037C80.7563 86.9649 80.3516 86.7096 80.0143 86.3378C79.6835 85.9647 79.4583 85.4944 79.3386 84.9269C79.2203 84.3659 79.2403 83.8473 79.3988 83.371C79.5559 82.8882 79.8256 82.4872 80.208 82.1681C80.5904 81.849 81.049 81.633 81.5839 81.5202C82.1188 81.4074 82.6256 81.4198 83.1043 81.5573C83.583 81.6948 83.9916 81.9527 84.3303 82.3309C84.6676 82.7026 84.8954 83.169 85.0137 83.73C85.1321 84.291 85.1094 84.8136 84.9458 85.2978C84.7874 85.774 84.5137 86.1724 84.1248 86.4929C83.7424 86.812 83.2838 87.028 82.7489 87.1408ZM82.4434 85.6927C82.7631 85.6252 83.009 85.4507 83.1813 85.1691C83.3601 84.8861 83.4034 84.5261 83.3112 84.0891C83.219 83.652 83.0373 83.3395 82.766 83.1514C82.5012 82.962 82.209 82.901 81.8893 82.9684C81.5632 83.0372 81.3172 83.2117 81.1515 83.4919C80.9844 83.7656 80.9476 84.1243 81.0411 84.5678C81.1333 85.0049 81.3085 85.3188 81.5668 85.5096C81.8316 85.6991 82.1238 85.7601 82.4434 85.6927ZM88.979 85.8268C88.4441 85.9397 87.9373 85.9273 87.4586 85.7898C86.9865 85.6509 86.5817 85.3956 86.2444 85.0239C85.9137 84.6508 85.6884 84.1805 85.5687 83.6129C85.4504 83.052 85.4705 82.5333 85.6289 82.057C85.786 81.5742 86.0557 81.1733 86.4381 80.8542C86.8205 80.535 87.2791 80.3191 87.814 80.2063C88.3489 80.0935 88.8557 80.1058 89.3344 80.2433C89.8131 80.3808 90.2218 80.6387 90.5605 81.017C90.8978 81.3887 91.1256 81.8551 91.2439 82.416C91.3622 82.977 91.3396 83.4996 91.1759 83.9838C91.0175 84.4601 90.7438 84.8585 90.3549 85.179C89.9725 85.4981 89.5139 85.714 88.979 85.8268ZM88.6736 84.3787C88.9932 84.3113 89.2392 84.1368 89.4114 83.8552C89.5902 83.5722 89.6335 83.2122 89.5413 82.7751C89.4492 82.3381 89.2674 82.0255 88.9961 81.8375C88.7313 81.648 88.4391 81.587 88.1195 81.6544C87.7933 81.7232 87.5474 81.8977 87.3816 82.1779C87.2145 82.4517 87.1777 82.8103 87.2713 83.2539C87.3634 83.6909 87.5387 84.0049 87.7969 84.1957C88.0617 84.3851 88.3539 84.4461 88.6736 84.3787ZM93.6137 78.9831C93.9985 78.902 94.351 78.9094 94.671 79.0054C94.9976 79.1001 95.266 79.2581 95.4762 79.4795L95.3131 78.7065L96.9863 78.3536L98.1358 83.8037C98.2417 84.306 98.2362 84.7807 98.1193 85.2277C98.0103 85.68 97.7757 86.0701 97.4157 86.3981C97.0621 86.7248 96.582 86.9521 95.9754 87.08C95.1665 87.2506 94.4703 87.1965 93.8869 86.9175C93.3048 86.6451 92.9091 86.1903 92.6998 85.5531L94.3534 85.2044C94.4496 85.4021 94.608 85.5391 94.8284 85.6152C95.0502 85.6979 95.3047 85.7089 95.5917 85.6484C95.9374 85.5755 96.1901 85.4166 96.3496 85.1717C96.5171 84.932 96.5548 84.5936 96.4626 84.1566L96.2996 83.3836C96.1901 83.6724 96.0091 83.9286 95.7565 84.1522C95.5025 84.3693 95.183 84.5184 94.7982 84.5996C94.3481 84.6945 93.9163 84.6663 93.5029 84.5151C93.088 84.3573 92.7283 84.0891 92.4236 83.7105C92.124 83.324 91.9151 82.8502 91.7968 82.2892C91.6785 81.7282 91.679 81.2137 91.7983 80.7457C91.9241 80.2763 92.1456 79.8889 92.4628 79.5835C92.7799 79.2782 93.1636 79.0781 93.6137 78.9831ZM95.8889 81.4364C95.8008 81.0189 95.614 80.7143 95.3282 80.5224C95.049 80.3292 94.7431 80.2677 94.4104 80.3379C94.0777 80.408 93.8194 80.5886 93.6355 80.8794C93.4567 81.1624 93.4113 81.5127 93.4993 81.9301C93.5874 82.3476 93.7717 82.6562 94.0523 82.856C94.338 83.0478 94.6472 83.1086 94.9799 83.0385C95.3126 82.9683 95.5677 82.7885 95.7451 82.499C95.929 82.2081 95.9769 81.8539 95.8889 81.4364ZM99.4944 75.9646L101.022 83.2053L99.3483 83.5582L97.8212 76.3175L99.4944 75.9646ZM106.787 79.0461C106.82 79.2027 106.844 79.3678 106.86 79.5415L103.074 80.3401C103.171 80.6738 103.334 80.9121 103.562 81.0548C103.794 81.1897 104.051 81.2275 104.332 81.1684C104.749 81.0803 105.002 80.843 105.091 80.4563L106.872 80.0808C106.856 80.4588 106.758 80.8168 106.577 81.1547C106.403 81.4912 106.153 81.7789 105.829 82.0176C105.505 82.2564 105.121 82.4225 104.677 82.5161C104.142 82.6289 103.642 82.6152 103.176 82.4749C102.711 82.3346 102.316 82.0773 101.992 81.7028C101.667 81.3283 101.445 80.8573 101.326 80.2898C101.206 79.7223 101.216 79.2024 101.354 78.7303C101.5 78.2567 101.757 77.8618 102.127 77.5454C102.496 77.2291 102.951 77.0138 103.493 76.8996C104.021 76.7882 104.514 76.8 104.972 76.9351C105.43 77.0703 105.816 77.3192 106.131 77.682C106.452 78.0435 106.671 78.4982 106.787 79.0461ZM104.981 78.9669C104.921 78.6799 104.775 78.4722 104.543 78.3439C104.312 78.2156 104.049 78.1824 103.756 78.2443C103.475 78.3034 103.254 78.4352 103.093 78.6395C102.938 78.8425 102.87 79.0988 102.887 79.4085L104.981 78.9669ZM113.36 73.4287L113.643 74.7692L110.844 75.3594L111.15 76.8075L113.244 76.3659L113.518 77.6673L111.424 78.1089L112.01 80.8878L110.337 81.2406L108.888 74.3717L113.36 73.4287ZM118.19 79.6662C117.655 79.779 117.148 79.7667 116.67 79.6292C116.197 79.4903 115.793 79.235 115.455 78.8632C115.125 78.4901 114.899 78.0198 114.78 77.4523C114.661 76.8913 114.681 76.3727 114.84 75.8964C114.997 75.4136 115.267 75.0126 115.649 74.6935C116.031 74.3744 116.49 74.1584 117.025 74.0456C117.56 73.9328 118.067 73.9452 118.545 74.0827C119.024 74.2202 119.433 74.4781 119.771 74.8563C120.109 75.2281 120.337 75.6944 120.455 76.2554C120.573 76.8164 120.55 77.339 120.387 77.8232C120.228 78.2995 119.955 78.6978 119.566 79.0183C119.183 79.3374 118.725 79.5534 118.19 79.6662ZM117.885 78.2181C118.204 78.1507 118.45 77.9761 118.622 77.6945C118.801 77.4115 118.844 77.0515 118.752 76.6145C118.66 76.1774 118.478 75.8649 118.207 75.6768C117.942 75.4874 117.65 75.4264 117.33 75.4938C117.004 75.5626 116.758 75.7371 116.593 76.0173C116.425 76.291 116.389 76.6497 116.482 77.0932C116.574 77.5303 116.75 77.8442 117.008 78.035C117.273 78.2245 117.565 78.2855 117.885 78.2181ZM122.632 73.8954C122.764 73.554 122.959 73.2676 123.217 73.0361C123.474 72.798 123.781 72.6412 124.14 72.5655L124.513 74.3366L124.054 74.4336C123.636 74.5216 123.342 74.679 123.172 74.9056C123 75.1258 122.962 75.4609 123.057 75.911L123.591 78.4453L121.918 78.7981L120.767 73.3382L122.44 72.9854L122.632 73.8954ZM131.906 70.9276C132.585 70.7845 133.166 70.8765 133.651 71.2035C134.142 71.5292 134.465 72.0573 134.619 72.7879L135.291 75.9777L133.628 76.3285L133.003 73.3638C132.928 73.0115 132.777 72.7607 132.548 72.6115C132.324 72.4543 132.049 72.4101 131.723 72.4789C131.396 72.5477 131.159 72.6999 131.011 72.9355C130.869 73.1631 130.834 73.4531 130.909 73.8054L131.534 76.7701L129.871 77.121L129.245 74.1562C129.171 73.8039 129.019 73.5532 128.79 73.4039C128.566 73.2467 128.291 73.2025 127.965 73.2713C127.639 73.3401 127.402 73.4923 127.254 73.7279C127.111 73.9556 127.077 74.2455 127.151 74.5978L127.777 77.5626L126.104 77.9155L124.952 72.4556L126.625 72.1027L126.77 72.7876C126.891 72.5235 127.075 72.2974 127.322 72.1091C127.567 71.9144 127.862 71.7805 128.208 71.7076C128.619 71.6209 129.003 71.632 129.359 71.7407C129.723 71.848 130.03 72.0455 130.281 72.3331C130.407 71.9932 130.613 71.6942 130.9 71.4362C131.186 71.1783 131.522 71.0087 131.906 70.9276Z" fill="white"/>
<path opacity="0.96" d="M28.2716 102.599L19.2959 104.492C19.0903 104.535 18.8729 104.493 18.6915 104.371C18.5096 104.249 18.379 104.057 18.3319 103.835L15.6492 91.1142C15.6026 90.8919 15.6442 90.663 15.7613 90.4778C15.8781 90.2932 16.0599 90.1671 16.2654 90.1235L21.8004 88.9562L26.9486 92.4124L28.888 101.608C28.9346 101.83 28.893 102.059 28.7759 102.245C28.6591 102.429 28.4772 102.555 28.2716 102.599Z" fill="#764DBE" stroke="white" stroke-width="0.888149"/>
<path opacity="0.96" d="M23.77 92.2743C23.576 92.3148 23.371 92.2752 23.1997 92.1601C23.0278 92.0446 22.9044 91.8625 22.8599 91.6524L22.8599 91.6522L22.4043 89.4917L25.8847 91.8283L23.77 92.2743Z" fill="#764EBE" stroke="white" stroke-width="0.888149"/>
<path opacity="0.96" d="M19.6925 100.52C19.6663 100.395 19.6765 100.266 19.722 100.148C19.7674 100.031 19.846 99.9299 19.9478 99.8587C20.0496 99.7875 20.1701 99.7491 20.294 99.7483C20.4178 99.7476 20.5395 99.7845 20.6437 99.8544C20.7479 99.9243 20.8298 100.024 20.8792 100.141C20.9285 100.258 20.9431 100.387 20.921 100.512C20.8989 100.637 20.8412 100.752 20.7551 100.842C20.669 100.932 20.5584 100.994 20.4374 101.02C20.275 101.054 20.1053 101.021 19.9656 100.927C19.826 100.833 19.7277 100.687 19.6925 100.52V100.52ZM21.5636 100.636L21.3866 99.797L25.739 98.8791L25.916 99.7184L21.5636 100.636ZM21.1804 98.8193L21.0034 97.98L25.3558 97.0621L25.5327 97.9008L21.1804 98.8193ZM19.2797 98.5624C19.2535 98.4379 19.2637 98.3087 19.3092 98.1911C19.3546 98.0734 19.4332 97.9726 19.535 97.9014C19.6368 97.8302 19.7573 97.7918 19.8812 97.791C20.005 97.7903 20.1267 97.8272 20.2309 97.8971C20.3351 97.967 20.417 98.0668 20.4664 98.1839C20.5157 98.301 20.5303 98.43 20.5082 98.5548C20.4861 98.6795 20.4284 98.7943 20.3423 98.8847C20.2562 98.975 20.1456 99.0369 20.0246 99.0624C19.8622 99.0967 19.6925 99.0632 19.5528 98.9694C19.4132 98.8757 19.3149 98.7292 19.2797 98.5624V98.5624ZM18.8671 96.6057C18.8408 96.4813 18.8511 96.3521 18.8965 96.2344C18.942 96.1168 19.0206 96.016 19.1224 95.9448C19.2242 95.8735 19.3446 95.8351 19.4685 95.8344C19.5924 95.8336 19.7141 95.8705 19.8182 95.9404C19.9224 96.0104 20.0044 96.1102 20.0537 96.2272C20.1031 96.3443 20.1176 96.4734 20.0955 96.5981C20.0735 96.7228 20.0157 96.8376 19.9296 96.928C19.8435 97.0184 19.733 97.0802 19.6119 97.1058C19.4496 97.14 19.2799 97.1066 19.1402 97.0128C19.0005 96.919 18.9023 96.7726 18.8671 96.6057V96.6057ZM20.7087 96.5827L20.5317 95.7434L24.8841 94.8255L25.061 95.6641L20.7087 96.5827Z" fill="white"/>
<path d="M68.298 95.2079C69.0252 95.1001 69.766 95.1263 70.4838 95.2852C71.5565 95.5214 72.545 96.0443 73.344 96.7981C74.143 97.5519 74.7224 98.5083 75.0207 99.5655C75.2115 100.243 75.4444 100.907 75.7181 101.555C75.9519 102.115 76.2323 102.654 76.5563 103.167C76.8363 103.612 77.1653 104.023 77.5371 104.395C77.8693 104.725 78.2468 105.007 78.6582 105.232C79.1637 105.499 79.7106 105.679 80.2759 105.764C80.7748 105.84 81.2804 105.861 81.7839 105.827C82.1595 105.804 82.533 105.753 82.9016 105.677C83.1749 105.623 83.3395 105.571 83.348 105.569C84.4815 105.21 85.6946 105.187 86.8408 105.503C87.987 105.819 89.0172 106.46 89.8069 107.348C90.3405 107.953 90.7464 108.66 91.0001 109.425C91.257 110.191 91.3615 110.999 91.3077 111.805C91.2544 112.578 91.0545 113.334 90.7188 114.032C90.3788 114.743 89.902 115.38 89.3155 115.906C88.7291 116.433 88.0447 116.839 87.3013 117.101C86.7814 117.279 86.2519 117.428 85.7153 117.546C84.641 117.788 83.5487 117.942 82.4494 118.006C80.9846 118.096 79.5143 118.017 78.0678 117.77C76.3483 117.475 74.684 116.919 73.133 116.121C72.2202 115.647 71.3534 115.09 70.5438 114.457C69.5579 113.682 68.6557 112.807 67.852 111.844C66.8815 110.681 66.0403 109.416 65.3433 108.072C64.4957 106.431 63.8193 104.707 63.3247 102.928C62.8807 101.373 63.0723 99.7043 63.8573 98.2897C64.6423 96.8752 65.9566 95.8301 67.5116 95.3839L67.7099 95.3301L67.9098 95.2836L68.1092 95.2434L68.298 95.2079Z" fill="#0250AF"/>
<defs>
<radialGradient id="paint0_radial" cx="0" cy="0" r="1" gradientUnits="userSpaceOnUse" gradientTransform="translate(233.61 258.234) rotate(85.7684) scale(41.4145 16.3893)">
<stop offset="0.213542" stop-color="#E5BD2F"/>
<stop offset="0.518316" stop-color="#E5BF2F" stop-opacity="0.61"/>
<stop offset="0.994792" stop-color="#E5BF2F" stop-opacity="0"/>
</radialGradient>
</defs>
</svg>
