<svg width="529" height="337" viewBox="0 0 529 337" fill="none" xmlns="http://www.w3.org/2000/svg">
<path d="M155 155.001C191 140.501 212 218.5 309.5 147.5" stroke="#006AE6" stroke-width="14"/>
<path d="M289.395 149.747C289.335 150.08 289.29 150.39 289.257 150.671C289.224 150.953 289.202 151.204 289.186 151.423C289.17 151.642 289.163 151.826 289.16 151.971C289.157 152.116 289.158 152.221 289.158 152.281C289.23 153.536 289.782 154.715 290.701 155.573C291.62 156.431 292.835 156.902 294.092 156.887C295.349 156.872 296.552 156.373 297.451 155.493C298.349 154.614 298.874 153.422 298.915 152.165C298.912 152.128 298.924 151.972 298.954 151.739C298.993 151.437 299.053 151.139 299.135 150.847C299.239 150.464 299.385 150.094 299.569 149.743C299.775 149.347 300.044 148.988 300.366 148.68C300.641 148.423 300.951 148.206 301.287 148.036C301.663 147.846 302.06 147.698 302.469 147.596C302.94 147.479 303.421 147.401 303.906 147.363C304.467 147.319 305.031 147.31 305.594 147.337C306.235 147.365 306.875 147.266 307.477 147.046C308.08 146.825 308.633 146.488 309.104 146.053C309.695 145.512 310.144 144.835 310.412 144.08C310.68 143.325 310.758 142.516 310.641 141.724C310.523 140.931 310.213 140.18 309.737 139.535C309.262 138.891 308.635 138.373 307.913 138.027C307.324 137.746 306.685 137.588 306.033 137.561C304.555 137.489 303.073 137.57 301.612 137.802C300.413 137.995 299.238 138.317 298.109 138.764C297.172 139.136 296.276 139.605 295.437 140.164C294.75 140.622 294.107 141.143 293.517 141.719C292.874 142.348 292.296 143.039 291.789 143.782C291.331 144.454 290.93 145.165 290.591 145.905C290.289 146.566 290.033 147.247 289.826 147.944C289.648 148.536 289.504 149.138 289.395 149.747Z" fill="#0250AF"/>
<path fill-rule="evenodd" clip-rule="evenodd" d="M311.322 117.467L310.518 113.423C309.888 110.259 307.514 107.729 304.397 106.9L300.413 105.841C300.27 105.803 300.186 105.657 300.224 105.515C300.25 105.417 300.329 105.342 300.429 105.322L304.473 104.518C307.636 103.888 310.166 101.514 310.995 98.3967L312.055 94.4123C312.093 94.2702 312.239 94.1856 312.381 94.2234C312.479 94.2495 312.554 94.3292 312.574 94.4288L313.378 98.4725C314.008 101.636 316.382 104.166 319.499 104.995L323.484 106.055C323.626 106.093 323.71 106.239 323.672 106.381C323.646 106.479 323.567 106.554 323.467 106.574L319.423 107.378C316.26 108.007 313.73 110.382 312.901 113.499L311.841 117.483C311.803 117.625 311.657 117.71 311.515 117.672C311.417 117.646 311.342 117.566 311.322 117.467Z" fill="#E5BF2F"/>
<path fill-rule="evenodd" clip-rule="evenodd" d="M215.144 264.735L214.708 262.541C214.366 260.824 213.078 259.451 211.386 259.001L209.224 258.426C209.147 258.405 209.101 258.326 209.121 258.249C209.135 258.196 209.179 258.155 209.233 258.145L211.427 257.708C213.144 257.366 214.517 256.078 214.967 254.386L215.542 252.224C215.562 252.147 215.642 252.101 215.719 252.122C215.772 252.136 215.813 252.179 215.823 252.233L216.26 254.428C216.602 256.144 217.89 257.517 219.582 257.967L221.744 258.542C221.821 258.563 221.867 258.642 221.846 258.719C221.832 258.772 221.789 258.813 221.735 258.824L219.54 259.26C217.824 259.602 216.451 260.89 216.001 262.582L215.426 264.744C215.405 264.821 215.326 264.867 215.249 264.847C215.195 264.832 215.155 264.789 215.144 264.735Z" fill="#E5BF2F"/>
<path fill-rule="evenodd" clip-rule="evenodd" d="M430.144 121.735L429.708 119.541C429.366 117.824 428.078 116.451 426.386 116.001L424.224 115.426C424.147 115.405 424.101 115.326 424.121 115.249C424.135 115.196 424.179 115.155 424.233 115.145L426.427 114.708C428.144 114.366 429.517 113.078 429.967 111.386L430.542 109.224C430.562 109.147 430.642 109.101 430.719 109.122C430.772 109.136 430.813 109.179 430.823 109.233L431.26 111.428C431.602 113.144 432.89 114.517 434.582 114.967L436.744 115.542C436.821 115.563 436.867 115.642 436.846 115.719C436.832 115.772 436.789 115.813 436.735 115.824L434.54 116.26C432.824 116.602 431.451 117.89 431.001 119.582L430.426 121.744C430.405 121.821 430.326 121.867 430.249 121.847C430.195 121.832 430.155 121.789 430.144 121.735Z" fill="#E5BF2F"/>
<path fill-rule="evenodd" clip-rule="evenodd" d="M411.945 268.733L411.611 267.055C411.35 265.743 410.366 264.694 409.073 264.35L407.42 263.911C407.361 263.895 407.326 263.835 407.342 263.776C407.353 263.735 407.386 263.704 407.427 263.696L409.104 263.362C410.416 263.101 411.466 262.116 411.81 260.823L412.249 259.171C412.265 259.112 412.325 259.077 412.384 259.093C412.425 259.103 412.456 259.137 412.464 259.178L412.798 260.855C413.059 262.167 414.044 263.216 415.336 263.56L416.989 264C417.048 264.015 417.083 264.076 417.067 264.135C417.056 264.176 417.023 264.207 416.982 264.215L415.305 264.548C413.993 264.809 412.944 265.794 412.6 267.087L412.16 268.739C412.145 268.798 412.084 268.833 412.025 268.818C411.984 268.807 411.953 268.774 411.945 268.733Z" fill="#E5BF2F"/>
<path fill-rule="evenodd" clip-rule="evenodd" d="M518.597 265.817L517.986 262.747C517.508 260.345 515.706 258.424 513.339 257.795L510.314 256.99C510.206 256.962 510.142 256.851 510.17 256.743C510.19 256.668 510.251 256.612 510.326 256.597L513.396 255.986C515.798 255.508 517.719 253.705 518.349 251.339L519.153 248.313C519.182 248.206 519.293 248.141 519.401 248.17C519.475 248.19 519.532 248.25 519.547 248.326L520.158 251.396C520.636 253.798 522.438 255.719 524.805 256.348L527.83 257.153C527.938 257.182 528.002 257.293 527.973 257.4C527.954 257.475 527.893 257.532 527.818 257.547L524.747 258.158C522.346 258.635 520.425 260.438 519.795 262.805L518.991 265.83C518.962 265.938 518.851 266.002 518.743 265.973C518.669 265.953 518.612 265.893 518.597 265.817Z" fill="#E5BF2F"/>
<path fill-rule="evenodd" clip-rule="evenodd" d="M340.597 258.817L339.986 255.747C339.508 253.345 337.706 251.424 335.339 250.795L332.314 249.99C332.206 249.962 332.142 249.851 332.17 249.743C332.19 249.668 332.251 249.612 332.326 249.597L335.396 248.986C337.798 248.508 339.719 246.705 340.349 244.339L341.153 241.313C341.182 241.206 341.293 241.141 341.401 241.17C341.475 241.19 341.532 241.25 341.547 241.326L342.158 244.396C342.636 246.798 344.438 248.719 346.805 249.348L349.83 250.153C349.938 250.182 350.002 250.293 349.973 250.4C349.954 250.475 349.893 250.532 349.818 250.547L346.747 251.158C344.346 251.635 342.425 253.438 341.795 255.805L340.991 258.83C340.962 258.938 340.851 259.002 340.743 258.973C340.669 258.953 340.612 258.893 340.597 258.817Z" fill="#E5BF2F"/>
<path fill-rule="evenodd" clip-rule="evenodd" d="M118.278 298.067L119.698 298.381C120.81 298.626 121.687 299.489 121.959 300.607L122.307 302.036C122.32 302.087 122.371 302.118 122.421 302.105C122.456 302.097 122.483 302.069 122.49 302.033L122.8 300.595C123.042 299.47 123.895 298.583 124.999 298.307L126.411 297.954C126.461 297.942 126.492 297.89 126.48 297.839C126.471 297.804 126.443 297.777 126.408 297.769L124.988 297.456C123.876 297.211 122.999 296.347 122.727 295.23L122.379 293.801C122.366 293.75 122.315 293.719 122.265 293.731C122.23 293.74 122.203 293.768 122.196 293.803L121.886 295.241C121.644 296.366 120.791 297.254 119.687 297.53L118.275 297.882C118.225 297.895 118.194 297.946 118.206 297.997C118.215 298.032 118.243 298.06 118.278 298.067Z" fill="#E5BF2F"/>
<path fill-rule="evenodd" clip-rule="evenodd" d="M149.8 304.338L152.932 305.028C155.381 305.568 157.314 307.472 157.914 309.936L158.682 313.084C158.709 313.197 158.821 313.265 158.932 313.238C159.009 313.219 159.068 313.157 159.085 313.079L159.767 309.91C160.301 307.43 162.181 305.474 164.615 304.866L167.726 304.089C167.837 304.062 167.905 303.948 167.878 303.836C167.859 303.758 167.798 303.698 167.721 303.681L164.59 302.991C162.14 302.451 160.207 300.547 159.607 298.084L158.839 294.935C158.812 294.822 158.7 294.754 158.589 294.782C158.512 294.801 158.453 294.862 158.436 294.94L157.754 298.109C157.221 300.589 155.34 302.545 152.906 303.153L149.795 303.93C149.684 303.958 149.616 304.071 149.644 304.183C149.662 304.261 149.723 304.321 149.8 304.338Z" fill="#E5BF2F"/>
<path fill-rule="evenodd" clip-rule="evenodd" d="M39.6674 325.375L41.7984 325.845C43.4655 326.213 44.7809 327.508 45.1895 329.185L45.7119 331.328C45.7305 331.405 45.8068 331.451 45.8824 331.432C45.9345 331.419 45.9748 331.377 45.9863 331.324L46.4504 329.167C46.8136 327.48 48.0935 326.149 49.75 325.735L51.8675 325.206C51.943 325.187 51.9891 325.11 51.9705 325.034C51.9576 324.981 51.9162 324.94 51.8637 324.928L49.7327 324.459C48.0656 324.091 46.7502 322.796 46.3415 321.119L45.8191 318.976C45.8005 318.899 45.7242 318.853 45.6486 318.871C45.5965 318.884 45.5562 318.926 45.5448 318.979L45.0806 321.136C44.7175 322.824 43.4376 324.155 41.7811 324.569L39.6637 325.098C39.5881 325.116 39.542 325.194 39.5606 325.27C39.5735 325.323 39.6149 325.364 39.6674 325.375Z" fill="#E5BF2F"/>
<path fill-rule="evenodd" clip-rule="evenodd" d="M58.284 291.82L60.0599 292.211C61.4491 292.518 62.5453 293.597 62.8858 294.995L63.3211 296.781C63.3366 296.844 63.4002 296.883 63.4632 296.867C63.5066 296.857 63.5402 296.822 63.5498 296.777L63.9366 294.98C64.2392 293.574 65.3058 292.464 66.6862 292.12L68.4507 291.679C68.5137 291.663 68.5521 291.599 68.5366 291.535C68.5259 291.491 68.4914 291.457 68.4476 291.448L66.6718 291.056C65.2825 290.75 64.1864 289.67 63.8458 288.273L63.4105 286.487C63.395 286.423 63.3313 286.384 63.2684 286.4C63.2249 286.411 63.1914 286.446 63.1818 286.49L62.795 288.287C62.4924 289.694 61.4259 290.803 60.0454 291.148L58.2809 291.588C58.218 291.604 58.1795 291.669 58.1951 291.732C58.2058 291.776 58.2403 291.81 58.284 291.82Z" fill="#E5BF2F"/>
<path fill-rule="evenodd" clip-rule="evenodd" d="M118.323 329.565L120.454 330.035C122.121 330.402 123.436 331.698 123.845 333.374L124.367 335.518C124.386 335.594 124.462 335.641 124.538 335.622C124.59 335.609 124.63 335.567 124.642 335.514L125.106 333.357C125.469 331.669 126.749 330.338 128.405 329.924L130.523 329.396C130.598 329.377 130.644 329.299 130.626 329.223C130.613 329.17 130.571 329.129 130.519 329.118L128.388 328.648C126.721 328.28 125.405 326.985 124.997 325.308L124.474 323.165C124.456 323.089 124.379 323.042 124.304 323.061C124.252 323.074 124.211 323.116 124.2 323.169L123.736 325.326C123.373 327.013 122.093 328.345 120.436 328.758L118.319 329.287C118.243 329.306 118.197 329.383 118.216 329.46C118.229 329.512 118.27 329.553 118.323 329.565Z" fill="#E5BF2F"/>
<path d="M86.2409 65.8663L91.4034 131.921C91.5222 133.292 91.9127 134.624 92.5519 135.842C93.1911 137.059 94.0663 138.138 95.1265 139.013C96.1866 139.889 97.4106 140.545 98.7269 140.943C100.043 141.342 101.426 141.474 102.793 141.332C104.161 141.19 105.487 140.777 106.694 140.118C107.901 139.459 108.964 138.566 109.822 137.491C110.68 136.416 111.316 135.182 111.692 133.859C112.068 132.536 112.177 131.152 112.013 129.786L98.3928 63.7078C98.2794 62.3327 97.8925 60.9941 97.2548 59.7706C96.6171 58.5471 95.7414 57.4633 94.6791 56.5828C94.4485 56.5828 95.7691 55.0429 94.4485 54.6433C93.1278 54.2436 96.8104 54.1118 95.4382 54.2556C94.0659 54.3994 92.7362 54.8158 91.5271 55.4805C90.318 56.1452 89.2538 57.0447 88.3971 58.1262C87.5404 59.2078 86.9083 60.4495 86.538 61.7787C86.1678 63.1078 86.0667 64.4975 86.2409 65.8663Z" fill="#0250AF"/>
<path d="M141.664 56.5973L61.4876 36.7785C54.9064 35.1776 47.959 36.2507 42.1675 39.7626C36.376 43.2745 32.2127 48.9389 30.5897 55.5146C28.9667 62.0904 30.0164 69.0414 33.5087 74.8447C37.0011 80.648 42.6514 84.8304 49.2217 86.4755L129.408 106.354C132.681 107.177 136.085 107.345 139.423 106.849C142.762 106.353 145.969 105.202 148.862 103.463C151.754 101.723 154.274 99.4292 156.278 96.7128C158.281 93.9963 159.728 90.9109 160.535 87.6336C161.342 84.3563 161.494 80.9519 160.982 77.6158C160.469 74.2796 159.303 71.0776 157.549 68.1937C155.796 65.3097 153.49 62.8006 150.764 60.8106C148.037 58.8205 144.945 57.3887 141.664 56.5973Z" fill="#006AE6"/>
<path d="M40.0204 82.1234L40.0377 82.1364C40.7233 82.6505 41.4305 83.1273 42.1594 83.5666C43.6157 84.4449 45.1568 85.1746 46.7592 85.7446C47.5628 86.0307 48.3834 86.2778 49.221 86.486L62.3846 89.7483C62.9565 89.8903 63.531 90.0124 64.1083 90.1145C64.6855 90.2166 65.2655 90.2987 65.8481 90.3609C66.4292 90.4233 67.012 90.4656 67.5962 90.4877C68.1805 90.5098 68.7639 90.5124 69.3463 90.4956C69.0961 90.3571 68.8466 90.2134 68.5979 90.0643C68.3492 89.9153 68.1028 89.7622 67.8589 89.6051C67.6141 89.4473 67.3715 89.2848 67.1313 89.1176C66.891 88.9503 66.6535 88.7787 66.4186 88.6025L66.4 88.5886C65.7384 88.0924 65.1048 87.5675 64.4992 87.0139C63.8936 86.4602 63.3158 85.8816 62.7658 85.2779C62.2175 84.6703 61.6983 84.0367 61.2083 83.3772C60.7182 82.7178 60.2614 82.0347 59.8377 81.328C59.4068 80.6173 59.0138 79.8896 58.6585 79.1452C58.3033 78.4007 57.984 77.6444 57.7007 76.8764C57.4187 76.1067 57.1743 75.3238 56.9675 74.5278C56.7607 73.7319 56.591 72.9243 56.4584 72.1052C56.3227 71.265 56.2291 70.4186 56.1779 69.569C56.1265 68.7199 56.118 67.8686 56.1524 67.0186C56.188 66.1693 56.2662 65.3223 56.3867 64.4809C56.5055 63.6332 56.6697 62.7905 56.8793 61.9527C57.0889 61.115 57.3352 60.2938 57.6182 59.4891C57.9026 58.6871 58.2271 57.9 58.5903 57.1305C58.9532 56.3628 59.3544 55.6138 59.7925 54.8864C60.2312 54.1585 60.7071 53.4506 61.2202 52.763C61.7164 52.1013 62.2411 51.4663 62.7943 50.8578C63.3475 50.2493 63.9279 49.6709 64.5355 49.1226C65.1429 48.5728 65.7767 48.0525 66.4368 47.5616C67.0969 47.0708 67.7878 46.6069 68.5096 46.17C69.2197 45.7399 69.9463 45.3474 70.6893 44.9923C71.4324 44.6373 72.1883 44.3185 72.9572 44.0358C73.7269 43.7537 74.5095 43.5097 75.3048 43.3038C76.1001 43.0978 76.9044 42.9308 77.7175 42.8028C77.9811 42.7614 78.246 42.7236 78.512 42.6892C78.7781 42.6549 79.0459 42.6244 79.3153 42.5977C79.5807 42.5694 79.8479 42.5482 80.1169 42.5341C80.3859 42.52 80.6546 42.5064 80.9229 42.4931C80.4306 42.2208 79.9297 41.9653 79.42 41.7266C78.9104 41.4878 78.3926 41.2668 77.8666 41.0636C77.3433 40.8586 76.8129 40.6707 76.2753 40.5002C75.7378 40.3297 75.1954 40.1768 74.6481 40.0416L61.4901 36.7873C60.6527 36.5806 59.8115 36.4162 58.9663 36.2941C56.4358 35.9286 53.8646 35.9477 51.3397 36.3506C50.5233 36.4813 49.7166 36.6516 48.9196 36.8615C48.1226 37.0714 47.3412 37.3156 46.5754 37.5942C45.8063 37.8754 45.0507 38.1938 44.3085 38.5495C43.5663 38.9051 42.8404 39.2976 42.1309 39.7268C41.4207 40.1569 40.7344 40.6171 40.072 41.1076C39.4097 41.598 38.7755 42.118 38.1695 42.6676C37.5621 43.2174 36.9824 43.7957 36.4305 44.4025C35.8785 45.0094 35.3551 45.6435 34.8604 46.3049C33.3281 48.3504 32.1145 50.6161 31.2609 53.0251C30.9756 53.8294 30.7291 54.6517 30.5214 55.4922C30.3137 56.3326 30.15 57.1738 30.0303 58.0157C29.6647 60.5458 29.6834 63.1167 30.0856 65.6412C30.2157 66.4585 30.3854 67.2661 30.5947 68.0639C30.8039 68.8617 31.048 69.6443 31.3267 70.4115C31.6087 71.1812 31.9276 71.9371 32.2832 72.6793C32.6389 73.4215 33.0315 74.1489 33.4612 74.8613C33.8888 75.5696 34.3456 76.2527 34.8317 76.9105C35.3178 77.5683 35.8366 78.2016 36.388 78.8102C36.9364 79.4178 37.5136 79.998 38.1199 80.5508C38.7261 81.1036 39.3596 81.6278 40.0204 82.1234Z" fill="#0250AF"/>
<path d="M57.0295 226.384C57.0295 226.384 92.9286 334.154 105.085 334.62C117.242 335.087 157.055 219.926 157.055 219.926L106.081 217.97L57.0295 226.384Z" fill="url(#paint0_radial)"/>
<path d="M76.5515 172.833V225.472C76.5388 231.223 78.5153 236.802 82.1459 241.262C85.7765 245.722 90.8378 248.789 96.4717 249.944C102.106 251.099 107.966 250.27 113.058 247.597C118.15 244.925 122.162 240.574 124.413 235.281C125.71 232.218 126.376 228.924 126.371 225.598V172.923C126.378 167.174 124.396 161.598 120.763 157.142C117.129 152.686 112.066 149.624 106.432 148.474C100.798 147.324 94.9404 148.158 89.8509 150.833C84.7615 153.509 80.7537 157.862 78.5069 163.155C77.2118 166.217 76.5468 169.509 76.5515 172.833Z" fill="#0250AF"/>
<path d="M40.602 195.743C43.8824 208.935 52.2638 220.287 63.9061 227.305C75.5484 234.323 89.5 236.435 102.698 233.176L127.763 226.998C140.875 223.639 152.126 215.228 159.059 203.602C165.992 191.977 168.044 178.081 164.768 164.948C161.491 151.814 153.152 140.511 141.571 133.504C129.99 126.497 116.107 124.357 102.954 127.55L77.905 133.752C71.3787 135.362 65.2343 138.244 59.8245 142.233C54.4146 146.223 49.8458 151.241 46.38 157.001C42.9142 162.76 40.6197 169.147 39.6282 175.796C38.6367 182.444 38.9676 189.223 40.602 195.743Z" fill="#006AE6"/>
<path d="M110.745 231.404C132.761 223.054 147.945 153.21 106.19 132.713" stroke="#0250AF"/>
<path d="M82.6558 132.596C82.9047 133.943 92.934 135.278 103.322 133.358C113.711 131.439 122.381 127.87 122.132 126.523C116.818 125.763 112.782 125.524 102.394 127.443C92.0056 129.363 92.5249 128.8 82.6558 132.596Z" fill="#0250AF"/>
<path fill-rule="evenodd" clip-rule="evenodd" d="M224.649 161.615C224.967 161.43 225.325 161.234 225.718 161.036C226.438 160.675 227.177 160.354 227.932 160.076C228.82 159.747 229.729 159.481 230.654 159.28C231.689 159.054 232.742 158.916 233.801 158.868C234.97 158.815 236.141 158.877 237.298 159.055C238.36 159.219 239.404 159.482 240.418 159.839C241.655 160.276 242.843 160.842 243.963 161.527C245.311 162.353 246.565 163.324 247.702 164.422C249.087 165.762 250.329 167.241 251.409 168.836C251.89 169.536 252.224 170.326 252.393 171.158C252.597 172.181 252.547 173.238 252.247 174.236C251.948 175.235 251.408 176.145 250.675 176.887C249.942 177.628 249.038 178.179 248.043 178.49C247.048 178.801 245.991 178.863 244.966 178.671C244.145 178.52 243.362 178.207 242.662 177.752C241.962 177.297 241.359 176.708 240.887 176.019C240.475 175.412 240.025 174.832 239.54 174.282C239.123 173.806 238.666 173.367 238.174 172.968C237.749 172.622 237.286 172.324 236.794 172.081C236.354 171.865 235.886 171.711 235.403 171.626C234.831 171.531 234.246 171.531 233.674 171.626C233.164 171.709 232.665 171.846 232.185 172.036C231.817 172.181 231.459 172.351 231.115 172.545C230.961 172.632 230.839 172.706 230.757 172.758C230.708 172.816 230.614 172.928 230.492 173.091C230.256 173.406 230.042 173.736 229.853 174.081C229.599 174.543 229.396 175.031 229.248 175.537C229.08 176.11 229.009 176.707 229.039 177.302C229.07 177.791 229.17 178.272 229.337 178.732C229.524 179.247 229.768 179.739 230.065 180.199C230.407 180.731 230.793 181.233 231.22 181.7C231.713 182.243 232.24 182.754 232.798 183.23C233.964 184.232 234.726 185.625 234.94 187.148C235.154 188.67 234.806 190.219 233.962 191.504L233.846 191.682L233.72 191.853L233.588 192.021L233.451 192.186C232.346 193.463 230.779 194.249 229.095 194.371C228.262 194.434 227.424 194.332 226.631 194.071C225.837 193.809 225.104 193.394 224.471 192.848C223.007 191.6 221.675 190.203 220.497 188.682C219.531 187.431 218.703 186.078 218.03 184.647C217.474 183.461 217.045 182.22 216.749 180.945C216.506 179.9 216.36 178.834 216.315 177.762C216.242 175.94 216.448 174.119 216.927 172.36C217.331 170.88 217.903 169.452 218.634 168.103C219.179 167.09 219.807 166.123 220.51 165.212C220.858 164.756 221.232 164.32 221.629 163.906C221.871 163.659 222.13 163.433 222.405 163.231C222.56 163.07 222.724 162.916 222.896 162.77L222.898 162.769C222.96 162.721 223.069 162.639 223.22 162.53C223.373 162.42 223.57 162.284 223.81 162.129C224.05 161.974 224.33 161.801 224.649 161.615Z" fill="#0250AF"/>
<path d="M107.622 91.0349C108.934 91.2805 110.281 91.265 111.587 90.9893C112.893 90.7136 114.132 90.183 115.233 89.428C116.334 88.673 117.275 87.7084 118.002 86.5893C118.729 85.4702 119.229 84.2186 119.472 82.9062L100.234 78.3001L100.178 78.6881L100.152 78.7969C99.4964 81.3718 99.8897 84.1017 101.246 86.3867C102.602 88.6717 104.81 90.3247 107.384 90.9825L107.622 91.0349ZM97.2322 71.779C97.8754 68.9419 97.442 65.967 96.0161 63.4313C94.5902 60.8957 92.2734 58.9799 89.515 58.0556C86.7566 57.1313 83.7533 57.2644 81.0875 58.429C78.4217 59.5937 76.2834 61.7068 75.0873 64.3587C73.8913 67.0106 73.7228 70.0122 74.6144 72.7813C75.506 75.5504 77.3943 77.8896 79.913 79.3454C82.4317 80.8012 85.4012 81.2696 88.2457 80.66C91.0902 80.0503 93.607 78.4059 95.3078 76.0458C96.2287 74.7669 96.8831 73.3159 97.2322 71.779ZM147.73 83.3469C148.372 80.5095 147.938 77.5346 146.512 74.9991C145.085 72.4636 142.768 70.5482 140.009 69.6243C137.251 68.7004 134.247 68.8339 131.581 69.9988C128.916 71.1638 126.777 73.2772 125.581 75.9292C124.385 78.5812 124.217 81.5829 125.108 84.3522C126 87.1214 127.888 89.4609 130.407 90.917C132.925 92.373 135.895 92.8419 138.74 92.2326C141.585 91.6234 144.102 89.9794 145.803 87.6195C146.725 86.3389 147.381 84.8859 147.73 83.3469Z" fill="#4B9DFF"/>
<path d="M121.37 29.7563L113.238 27.598L107.769 48.2242L115.901 50.3859L121.37 29.7563Z" fill="#035DC6"/>
<path d="M121.449 13.064C118.741 12.3529 115.865 12.673 113.38 13.9622C110.894 15.2514 108.976 17.4179 107.998 20.0412C107.019 22.6646 107.05 25.5579 108.084 28.1598C109.118 30.7618 111.082 32.8869 113.594 34.1229C116.107 35.3589 118.988 35.6177 121.681 34.849C124.373 34.0804 126.684 32.3392 128.165 29.9631C129.646 27.5871 130.192 24.7455 129.697 21.9898C129.201 19.2341 127.7 16.7606 125.484 15.0492C124.286 14.1237 122.913 13.4486 121.449 13.064Z" fill="#006AE6"/>
<path opacity="0.636" d="M59.3071 151.125C57.2599 151.191 55.3138 152.03 53.8598 153.473C51.9718 155.3 50.4608 157.48 49.4126 159.889C48.0371 162.932 47.0308 166.128 46.4153 169.41C45.6727 173.252 45.3045 177.158 45.3159 181.072C45.3046 184.987 45.6728 188.894 46.4153 192.739C47.0314 196.026 48.0382 199.227 49.4142 202.275C50.4628 204.689 51.9736 206.874 53.8613 208.708C55.3139 210.156 57.2594 211.001 59.3086 211.076C61.3552 211.012 63.3015 210.175 64.7559 208.733C66.6446 206.907 68.1561 204.727 69.2046 202.318C70.5818 199.274 71.5891 196.076 72.205 192.791C72.948 188.947 73.3161 185.04 73.3044 181.125C73.316 177.208 72.9478 173.299 72.205 169.453C71.5883 166.167 70.581 162.967 69.2046 159.92C68.1556 157.507 66.6443 155.322 64.7559 153.49C63.3027 152.043 61.3565 151.198 59.3071 151.125Z" fill="#0250AF"/>
<path d="M38.6451 270.763C39.9387 269.848 40.8549 268.493 41.2228 266.951C41.5906 265.41 41.3849 263.787 40.644 262.386C38.3536 258.084 36.3884 253.617 34.7649 249.021C33.3164 244.927 32.2562 240.705 31.5982 236.412C31.0006 232.504 30.8493 228.541 31.1472 224.598C31.4382 220.86 32.2022 217.173 33.4209 213.626C35.0339 209.001 37.3779 204.663 40.3639 200.779C42.8876 197.493 45.7765 194.503 48.975 191.869C51.2921 189.948 53.7539 188.209 56.3385 186.667C58.2617 185.525 59.4897 184.962 59.5366 184.941C60.5232 184.498 61.3847 183.818 62.0443 182.961C62.704 182.104 63.1412 181.097 63.3169 180.03C63.4926 178.963 63.4014 177.869 63.0514 176.846C62.7015 175.823 62.1036 174.902 61.3112 174.166C60.3661 173.288 59.1832 172.707 57.9101 172.498C56.6371 172.288 55.3304 172.458 54.1535 172.986C52.6545 173.687 51.1935 174.465 49.7764 175.319C46.5036 177.263 43.3903 179.464 40.466 181.902C36.4663 185.215 32.8605 188.977 29.7194 193.114C25.9858 198.031 23.0521 203.508 21.0266 209.341C19.5083 213.747 18.5313 218.322 18.1169 222.964C17.6974 227.769 17.8211 232.606 18.4858 237.384C19.2105 242.551 20.4321 247.637 22.1337 252.57C24.018 258.038 26.3294 263.349 29.0463 268.454C29.8549 269.994 31.2415 271.15 32.9018 271.668C34.562 272.186 36.36 272.025 37.901 271.218L38.0946 271.112L38.2846 271L38.4696 270.883L38.6451 270.763Z" fill="#006AE6"/>
<path fill-rule="evenodd" clip-rule="evenodd" d="M36.3247 288.154C35.884 288.81 35.3271 289.379 34.6813 289.835L34.508 289.947L34.3231 290.064L34.1331 290.176L33.939 290.281C32.3982 291.087 30.6006 291.248 28.9409 290.73C27.2813 290.211 25.8952 289.055 25.0872 287.516C24.1527 285.765 23.401 283.922 22.8439 282.017C22.389 280.454 22.1054 278.846 21.9983 277.221C21.9101 275.877 21.9628 274.526 22.1556 273.193C22.3156 272.099 22.577 271.023 22.9362 269.978C23.5509 268.207 24.4334 266.54 25.5529 265.036C26.4952 263.771 27.5803 262.619 28.7866 261.603C29.6896 260.837 30.6536 260.147 31.669 259.539C32.1744 259.233 32.6967 258.957 33.2334 258.71C33.5013 258.589 33.7765 258.488 34.057 258.405C34.3217 258.287 34.5947 258.186 34.8743 258.103L34.8812 258.101C34.9587 258.079 35.0922 258.041 35.2745 257.996C35.4623 257.949 35.7022 257.892 35.9902 257.834C36.2782 257.777 36.6112 257.716 36.9871 257.659C37.3629 257.602 37.7787 257.55 38.2296 257.508C39.0551 257.434 39.8842 257.406 40.7128 257.424C41.688 257.445 42.6606 257.533 43.6234 257.69C44.7001 257.865 45.76 258.132 46.7916 258.487C47.9281 258.881 49.0231 259.386 50.0608 259.994C51.0197 260.553 51.9247 261.201 52.7642 261.927C53.784 262.814 54.7086 263.804 55.523 264.882C56.5039 266.185 57.3406 267.59 58.0181 269.073C58.8449 270.88 59.4831 272.768 59.9226 274.706C60.1292 275.551 60.1656 276.428 60.0297 277.287C59.8937 278.147 59.5882 278.97 59.1308 279.71C58.6734 280.45 58.0733 281.091 57.3656 281.597C56.6578 282.102 55.8565 282.462 55.0083 282.655C54.1601 282.847 53.2821 282.869 52.4253 282.719C51.5686 282.569 50.7503 282.25 50.018 281.781C49.2858 281.311 48.6544 280.701 48.1605 279.985C47.6666 279.269 47.3202 278.462 47.1414 277.611C46.9729 276.873 46.7584 276.148 46.4993 275.437C46.2743 274.823 45.998 274.228 45.6734 273.66C45.3973 273.167 45.067 272.707 44.6887 272.287C44.3491 271.913 43.9585 271.589 43.5284 271.324C43.0154 271.017 42.4557 270.797 41.8714 270.671C41.3525 270.558 40.8228 270.501 40.2917 270.502C39.8848 270.501 39.4784 270.529 39.0753 270.585C38.8758 270.612 38.7195 270.639 38.6207 270.66C38.5462 270.7 38.4282 270.767 38.2808 270.86C37.9374 271.074 37.6096 271.312 37.2997 271.572C36.8828 271.919 36.5052 272.311 36.1737 272.74C35.7967 273.225 35.5044 273.771 35.3091 274.353C35.1556 274.833 35.071 275.332 35.0578 275.836C35.0438 276.4 35.0931 276.965 35.2048 277.518C35.3331 278.158 35.5148 278.785 35.748 279.394C36.0156 280.101 36.3271 280.791 36.6808 281.459C37.2326 282.503 37.4909 283.677 37.4282 284.856C37.3655 286.035 36.9841 287.175 36.3247 288.154Z" fill="#0250AF"/>
<rect x="191" y="151" width="295" height="68" rx="34" fill="#015DC9"/>
<rect x="191" y="147" width="295" height="68" rx="34" fill="#006AE6"/>
<path d="M273.792 181.552C273.792 179.888 274.152 178.408 274.872 177.112C275.592 175.8 276.592 174.784 277.872 174.064C279.168 173.328 280.632 172.96 282.264 172.96C284.264 172.96 285.976 173.488 287.4 174.544C288.824 175.6 289.776 177.04 290.256 178.864H285.744C285.408 178.16 284.928 177.624 284.304 177.256C283.696 176.888 283 176.704 282.216 176.704C280.952 176.704 279.928 177.144 279.144 178.024C278.36 178.904 277.968 180.08 277.968 181.552C277.968 183.024 278.36 184.2 279.144 185.08C279.928 185.96 280.952 186.4 282.216 186.4C283 186.4 283.696 186.216 284.304 185.848C284.928 185.48 285.408 184.944 285.744 184.24H290.256C289.776 186.064 288.824 187.504 287.4 188.56C285.976 189.6 284.264 190.12 282.264 190.12C280.632 190.12 279.168 189.76 277.872 189.04C276.592 188.304 275.592 187.288 274.872 185.992C274.152 184.696 273.792 183.216 273.792 181.552ZM296.873 178.84C297.353 178.104 297.953 177.528 298.673 177.112C299.393 176.68 300.193 176.464 301.073 176.464V180.808H299.945C298.921 180.808 298.153 181.032 297.641 181.48C297.129 181.912 296.873 182.68 296.873 183.784V190H292.769V176.608H296.873V178.84ZM315.659 183.088C315.659 183.472 315.635 183.872 315.587 184.288H306.299C306.363 185.12 306.627 185.76 307.091 186.208C307.571 186.64 308.155 186.856 308.843 186.856C309.867 186.856 310.579 186.424 310.979 185.56H315.347C315.123 186.44 314.715 187.232 314.123 187.936C313.547 188.64 312.819 189.192 311.939 189.592C311.059 189.992 310.075 190.192 308.987 190.192C307.675 190.192 306.507 189.912 305.483 189.352C304.459 188.792 303.659 187.992 303.083 186.952C302.507 185.912 302.219 184.696 302.219 183.304C302.219 181.912 302.499 180.696 303.059 179.656C303.635 178.616 304.435 177.816 305.459 177.256C306.483 176.696 307.659 176.416 308.987 176.416C310.283 176.416 311.435 176.688 312.443 177.232C313.451 177.776 314.235 178.552 314.795 179.56C315.371 180.568 315.659 181.744 315.659 183.088ZM311.459 182.008C311.459 181.304 311.219 180.744 310.739 180.328C310.259 179.912 309.659 179.704 308.939 179.704C308.251 179.704 307.667 179.904 307.187 180.304C306.723 180.704 306.435 181.272 306.323 182.008H311.459ZM317.008 183.28C317.008 181.904 317.264 180.696 317.776 179.656C318.304 178.616 319.016 177.816 319.912 177.256C320.808 176.696 321.808 176.416 322.912 176.416C323.856 176.416 324.68 176.608 325.384 176.992C326.104 177.376 326.656 177.88 327.04 178.504V176.608H331.144V190H327.04V188.104C326.64 188.728 326.08 189.232 325.36 189.616C324.656 190 323.832 190.192 322.888 190.192C321.8 190.192 320.808 189.912 319.912 189.352C319.016 188.776 318.304 187.968 317.776 186.928C317.264 185.872 317.008 184.656 317.008 183.28ZM327.04 183.304C327.04 182.28 326.752 181.472 326.176 180.88C325.616 180.288 324.928 179.992 324.112 179.992C323.296 179.992 322.6 180.288 322.024 180.88C321.464 181.456 321.184 182.256 321.184 183.28C321.184 184.304 321.464 185.12 322.024 185.728C322.6 186.32 323.296 186.616 324.112 186.616C324.928 186.616 325.616 186.32 326.176 185.728C326.752 185.136 327.04 184.328 327.04 183.304ZM341.577 186.52V190H339.489C338.001 190 336.841 189.64 336.009 188.92C335.177 188.184 334.761 186.992 334.761 185.344V180.016H333.129V176.608H334.761V173.344H338.865V176.608H341.553V180.016H338.865V185.392C338.865 185.792 338.961 186.08 339.153 186.256C339.345 186.432 339.665 186.52 340.113 186.52H341.577ZM356.487 183.088C356.487 183.472 356.463 183.872 356.415 184.288H347.127C347.191 185.12 347.455 185.76 347.919 186.208C348.399 186.64 348.983 186.856 349.671 186.856C350.695 186.856 351.407 186.424 351.807 185.56H356.175C355.951 186.44 355.543 187.232 354.951 187.936C354.375 188.64 353.647 189.192 352.767 189.592C351.887 189.992 350.903 190.192 349.815 190.192C348.503 190.192 347.335 189.912 346.311 189.352C345.287 188.792 344.487 187.992 343.911 186.952C343.335 185.912 343.047 184.696 343.047 183.304C343.047 181.912 343.327 180.696 343.887 179.656C344.463 178.616 345.263 177.816 346.287 177.256C347.311 176.696 348.487 176.416 349.815 176.416C351.111 176.416 352.263 176.688 353.271 177.232C354.279 177.776 355.063 178.552 355.623 179.56C356.199 180.568 356.487 181.744 356.487 183.088ZM352.287 182.008C352.287 181.304 352.047 180.744 351.567 180.328C351.087 179.912 350.487 179.704 349.767 179.704C349.079 179.704 348.495 179.904 348.015 180.304C347.551 180.704 347.263 181.272 347.151 182.008H352.287ZM362.922 183.28C362.922 181.904 363.178 180.696 363.69 179.656C364.218 178.616 364.93 177.816 365.826 177.256C366.722 176.696 367.722 176.416 368.826 176.416C369.77 176.416 370.594 176.608 371.298 176.992C372.018 177.376 372.57 177.88 372.954 178.504V176.608H377.058V190H372.954V188.104C372.554 188.728 371.994 189.232 371.274 189.616C370.57 190 369.746 190.192 368.802 190.192C367.714 190.192 366.722 189.912 365.826 189.352C364.93 188.776 364.218 187.968 363.69 186.928C363.178 185.872 362.922 184.656 362.922 183.28ZM372.954 183.304C372.954 182.28 372.666 181.472 372.09 180.88C371.53 180.288 370.842 179.992 370.026 179.992C369.21 179.992 368.514 180.288 367.938 180.88C367.378 181.456 367.098 182.256 367.098 183.28C367.098 184.304 367.378 185.12 367.938 185.728C368.514 186.32 369.21 186.616 370.026 186.616C370.842 186.616 371.53 186.32 372.09 185.728C372.666 185.136 372.954 184.328 372.954 183.304ZM384.417 181.552C384.417 179.888 384.777 178.408 385.497 177.112C386.217 175.8 387.217 174.784 388.497 174.064C389.793 173.328 391.257 172.96 392.889 172.96C394.889 172.96 396.601 173.488 398.025 174.544C399.449 175.6 400.401 177.04 400.881 178.864H396.369C396.033 178.16 395.553 177.624 394.929 177.256C394.321 176.888 393.625 176.704 392.841 176.704C391.577 176.704 390.553 177.144 389.769 178.024C388.985 178.904 388.593 180.08 388.593 181.552C388.593 183.024 388.985 184.2 389.769 185.08C390.553 185.96 391.577 186.4 392.841 186.4C393.625 186.4 394.321 186.216 394.929 185.848C395.553 185.48 396.033 184.944 396.369 184.24H400.881C400.401 186.064 399.449 187.504 398.025 188.56C396.601 189.6 394.889 190.12 392.889 190.12C391.257 190.12 389.793 189.76 388.497 189.04C387.217 188.304 386.217 187.288 385.497 185.992C384.777 184.696 384.417 183.216 384.417 181.552ZM411.626 176.464C413.162 176.464 414.394 176.976 415.322 178C416.25 179.008 416.714 180.4 416.714 182.176V190H412.634V182.728C412.634 181.832 412.402 181.136 411.938 180.64C411.474 180.144 410.85 179.896 410.066 179.896C409.282 179.896 408.658 180.144 408.194 180.64C407.73 181.136 407.498 181.832 407.498 182.728V190H403.394V172.24H407.498V178.408C407.914 177.816 408.482 177.344 409.202 176.992C409.922 176.64 410.73 176.464 411.626 176.464ZM418.75 183.28C418.75 181.904 419.006 180.696 419.518 179.656C420.046 178.616 420.758 177.816 421.654 177.256C422.55 176.696 423.55 176.416 424.654 176.416C425.598 176.416 426.422 176.608 427.126 176.992C427.846 177.376 428.398 177.88 428.782 178.504V176.608H432.886V190H428.782V188.104C428.382 188.728 427.822 189.232 427.102 189.616C426.398 190 425.574 190.192 424.63 190.192C423.542 190.192 422.55 189.912 421.654 189.352C420.758 188.776 420.046 187.968 419.518 186.928C419.006 185.872 418.75 184.656 418.75 183.28ZM428.782 183.304C428.782 182.28 428.494 181.472 427.918 180.88C427.358 180.288 426.67 179.992 425.854 179.992C425.038 179.992 424.342 180.288 423.766 180.88C423.206 181.456 422.926 182.256 422.926 183.28C422.926 184.304 423.206 185.12 423.766 185.728C424.342 186.32 425.038 186.616 425.854 186.616C426.67 186.616 427.358 186.32 427.918 185.728C428.494 185.136 428.782 184.328 428.782 183.304ZM443.319 186.52V190H441.231C439.743 190 438.583 189.64 437.751 188.92C436.919 188.184 436.503 186.992 436.503 185.344V180.016H434.871V176.608H436.503V173.344H440.607V176.608H443.295V180.016H440.607V185.392C440.607 185.792 440.703 186.08 440.895 186.256C441.087 186.432 441.407 186.52 441.855 186.52H443.319Z" fill="white"/>
<path d="M228.278 202.6C222.637 202.593 217.229 200.347 213.24 196.354C209.251 192.361 207.007 186.947 207 181.3C207.007 175.653 209.251 170.239 213.24 166.246C217.229 162.253 222.637 160.007 228.278 160C233.92 160.007 239.328 162.253 243.317 166.246C247.306 170.239 249.55 175.653 249.557 181.3C249.551 186.947 247.307 192.361 243.318 196.355C239.328 200.348 233.92 202.594 228.278 202.6ZM227.424 176.42H220.189C218.573 176.423 217.024 177.067 215.881 178.211C214.738 179.355 214.095 180.907 214.093 182.525C214.095 184.143 214.738 185.694 215.881 186.838C217.024 187.982 218.573 188.625 220.189 188.627H236.503C238.119 188.625 239.668 187.982 240.811 186.838C241.954 185.694 242.597 184.143 242.599 182.525C242.597 180.907 241.954 179.355 240.811 178.211C239.668 177.067 238.119 176.423 236.503 176.42H229.271V172.981C229.731 172.796 230.126 172.477 230.403 172.066C230.681 171.654 230.829 171.169 230.828 170.673C230.828 170.014 230.566 169.382 230.101 168.916C229.635 168.45 229.004 168.188 228.346 168.188C227.687 168.188 227.056 168.45 226.59 168.916C226.124 169.382 225.864 170.014 225.864 170.673C225.862 171.17 226.01 171.656 226.288 172.067C226.566 172.479 226.962 172.797 227.424 172.981V176.42ZM228.326 186.657H228.266C227.937 186.644 227.614 186.566 227.316 186.427C227.017 186.288 226.749 186.092 226.527 185.849C226.303 185.608 226.129 185.325 226.015 185.016C225.902 184.707 225.851 184.379 225.865 184.05L230.74 184.002L230.729 184.097V184.126C230.738 184.45 230.684 184.773 230.568 185.075C230.451 185.378 230.276 185.654 230.052 185.888C229.829 186.125 229.562 186.315 229.265 186.448C228.969 186.58 228.649 186.652 228.324 186.659L228.326 186.657ZM234.726 185.509C233.955 185.508 233.214 185.201 232.669 184.655C232.123 184.11 231.817 183.37 231.816 182.597C231.817 181.825 232.123 181.085 232.669 180.539C233.214 179.994 233.955 179.687 234.726 179.687C235.497 179.687 236.237 179.994 236.782 180.539C237.328 181.085 237.634 181.825 237.635 182.597C237.635 183.37 237.328 184.111 236.782 184.657C236.236 185.203 235.495 185.51 234.723 185.51L234.726 185.509ZM221.959 185.509C221.188 185.507 220.45 185.2 219.905 184.654C219.361 184.108 219.054 183.369 219.054 182.597C219.054 181.826 219.36 181.086 219.905 180.54C220.45 179.995 221.188 179.688 221.959 179.687C222.73 179.687 223.47 179.994 224.015 180.539C224.561 181.085 224.868 181.825 224.869 182.597C224.868 183.37 224.561 184.11 224.016 184.656C223.471 185.202 222.732 185.509 221.96 185.51L221.959 185.509Z" fill="white"/>
<path d="M316.673 145.079C316.794 145.336 316.898 145.577 316.985 145.799C317.073 146.02 317.146 146.219 317.206 146.393C317.267 146.567 317.312 146.715 317.346 146.831C317.38 146.948 317.402 147.034 317.415 147.082C317.629 148.116 317.437 149.192 316.878 150.088C316.319 150.983 315.436 151.628 314.414 151.889C313.391 152.15 312.307 152.006 311.387 151.488C310.468 150.97 309.783 150.117 309.477 149.107C309.472 149.076 309.428 148.952 309.353 148.769C309.256 148.533 309.142 148.305 309.013 148.085C308.845 147.797 308.647 147.529 308.421 147.284C308.168 147.008 307.872 146.775 307.544 146.595C307.265 146.447 306.966 146.338 306.657 146.273C306.311 146.2 305.957 146.167 305.603 146.173C305.195 146.18 304.788 146.221 304.387 146.296C303.922 146.382 303.463 146.497 303.012 146.641C302.499 146.803 301.958 146.861 301.422 146.814C300.885 146.766 300.364 146.612 299.887 146.362C299.29 146.052 298.779 145.6 298.398 145.045C298.017 144.491 297.777 143.852 297.701 143.184C297.624 142.516 297.713 141.839 297.958 141.213C298.204 140.587 298.6 140.031 299.11 139.594C299.527 139.239 300.011 138.971 300.534 138.808C301.717 138.428 302.936 138.172 304.172 138.044C305.186 137.94 306.209 137.946 307.222 138.064C308.062 138.162 308.89 138.348 309.692 138.619C310.349 138.841 310.983 139.124 311.588 139.463C312.245 139.834 312.864 140.269 313.436 140.761C313.954 141.207 314.433 141.696 314.869 142.223C315.258 142.693 315.613 143.19 315.932 143.71C316.205 144.152 316.452 144.609 316.673 145.079Z" fill="#0250AF"/>
<defs>
<radialGradient id="paint0_radial" cx="0" cy="0" r="1" gradientUnits="userSpaceOnUse" gradientTransform="translate(103.563 253.337) rotate(85.7684) scale(41.4145 16.3893)">
<stop offset="0.213542" stop-color="#E5BD2F"/>
<stop offset="0.518316" stop-color="#E5BF2F" stop-opacity="0.61"/>
<stop offset="0.994792" stop-color="#E5BF2F" stop-opacity="0"/>
</radialGradient>
</defs>
</svg>
