<svg width="24" height="24" viewBox="0 0 24 24" fill="none" xmlns="http://www.w3.org/2000/svg">
<path fill-rule="evenodd" clip-rule="evenodd" d="M12 24C18.6274 24 24 18.6274 24 12C24 5.37258 18.6274 0 12 0C5.37258 0 0 5.37258 0 12C0 18.6274 5.37258 24 12 24ZM16.2426 8.24264C16.6332 8.63316 16.6332 9.26633 16.2426 9.65685L13.4142 12.4853L16.2426 15.3137C16.6332 15.7042 16.6332 16.3374 16.2426 16.7279C15.8521 17.1184 15.219 17.1184 14.8284 16.7279L12 13.8995L9.17157 16.7279C8.78105 17.1184 8.14788 17.1184 7.75736 16.7279C7.36683 16.3374 7.36684 15.7042 7.75736 15.3137L10.5858 12.4853L7.75736 9.65685C7.36684 9.26633 7.36684 8.63316 7.75736 8.24264C8.14788 7.85212 8.78105 7.85212 9.17157 8.24264L12 11.0711L14.8284 8.24264C15.219 7.85212 15.8521 7.85212 16.2426 8.24264Z" fill="#D5D5D5"/>
</svg>
