<svg xmlns="http://www.w3.org/2000/svg" width="39.955" height="44.4" viewBox="0 0 39.955 44.4">
  <path id="Path_19863" data-name="Path 19863" d="M43.874,15.09,42.6,16.376A18.451,18.451,0,0,1,29.108,45.859q-.632.041-1.254.041a18.378,18.378,0,0,1-13.7-6.083,1.144,1.144,0,0,1,1.7-1.533A16.166,16.166,0,1,0,40.2,17.011a1.144,1.144,0,0,1,.062-1.55l2-2a.81.81,0,0,0-1.144-1.144L39.04,14.394a1.144,1.144,0,0,1-1.5.105,16.117,16.117,0,0,0-7.864-3.122,1.144,1.144,0,0,1-1.021-1.135V6.553A1.144,1.144,0,0,1,29.8,5.391h1.048a.81.81,0,0,0,0-1.62H24.846a.81.81,0,0,0,0,1.62h1.048a1.144,1.144,0,0,1,1.144,1.144v3.708a1.144,1.144,0,0,1-1.016,1.135,16.185,16.185,0,0,0-9.74,4.774,1.147,1.147,0,1,1-1.639-1.607,18.5,18.5,0,0,1,10.107-5.3V7.679a3.1,3.1,0,0,1,.1-6.179h6.005a3.1,3.1,0,0,1,.1,6.179V9.231A18.419,18.419,0,0,1,38.1,12.074L39.475,10.7a3.1,3.1,0,1,1,4.385,4.38ZM6.34,21.581a1.144,1.144,0,0,0,1.144,1.144h7.946a1.144,1.144,0,1,0,0-2.289H7.489a1.144,1.144,0,0,0-1.144,1.14Zm13.009,5.548A1.144,1.144,0,0,0,18.2,25.984H10.263a1.144,1.144,0,1,0,0,2.289H18.2A1.144,1.144,0,0,0,19.349,27.128Zm-11.86,6.7h7.942a1.144,1.144,0,0,0,0-2.289H7.489a1.144,1.144,0,0,0,0,2.289ZM34.2,22.711l-2.934,2.934a3.868,3.868,0,1,1-1.62-1.62l2.934-2.934a1.146,1.146,0,1,1,1.62,1.62Zm-4.779,4.733a1.57,1.57,0,1,0-1.57,1.57,1.57,1.57,0,0,0,1.57-1.57Zm-1.57,13.617a13.622,13.622,0,1,0-9.612-23.253,1.146,1.146,0,0,0,1.62,1.62,11.338,11.338,0,1,1,0,16.021,1.146,1.146,0,1,0-1.62,1.62,13.585,13.585,0,0,0,9.612,3.991Z" transform="translate(-6.34 -1.5)" fill="#6548e2"/>
</svg>
