<svg xmlns="http://www.w3.org/2000/svg" width="11.269" height="9.154" viewBox="0 0 11.269 9.154">
  <g id="twitter-logo-silhouette" transform="translate(-0.001 -57.441)">
    <g id="Group_11298" data-name="Group 11298" transform="translate(0.001 57.441)">
      <path id="Path_19835" data-name="Path 19835" d="M11.27,58.524a4.616,4.616,0,0,1-1.327.364,2.321,2.321,0,0,0,1.016-1.278,4.66,4.66,0,0,1-1.469.561,2.314,2.314,0,0,0-3.939,2.108A6.563,6.563,0,0,1,.786,57.863,2.314,2.314,0,0,0,1.5,60.949a2.312,2.312,0,0,1-1.047-.29v.029a2.314,2.314,0,0,0,1.854,2.267,2.341,2.341,0,0,1-.609.081,2.218,2.218,0,0,1-.435-.043A2.313,2.313,0,0,0,3.423,64.6a4.638,4.638,0,0,1-2.871.988A4.912,4.912,0,0,1,0,65.555a6.534,6.534,0,0,0,3.543,1.04,6.532,6.532,0,0,0,6.577-6.577l-.008-.3A4.616,4.616,0,0,0,11.27,58.524Z" transform="translate(-0.001 -57.441)" fill="#fff"/>
    </g>
  </g>
</svg>
