<svg xmlns="http://www.w3.org/2000/svg" width="45.001" height="45.001" viewBox="0 0 45.001 45.001">
  <g id="Component_248_3" data-name="Component 248 – 3" transform="translate(0.5 0.5)">
    <path id="Subtraction_72" data-name="Subtraction 72" d="M1857.818-15103h-24.663a9.68,9.68,0,0,1-9.671-9.667v-24.663a9.681,9.681,0,0,1,9.671-9.671h24.663a9.6,9.6,0,0,1,6.836,2.832,9.61,9.61,0,0,1,2.831,6.839v24.663A9.678,9.678,0,0,1,1857.818-15103Zm-24.195-14.791h0a14.328,14.328,0,0,0,7.739,2.269,14.554,14.554,0,0,0,6.162-1.306,13.582,13.582,0,0,0,4.5-3.374,14.856,14.856,0,0,0,3.7-9.683l-.019-.653a9.989,9.989,0,0,0,2.524-2.607,10.026,10.026,0,0,1-2.9.794,5.063,5.063,0,0,0,2.22-2.79,10.107,10.107,0,0,1-3.208,1.224,5.068,5.068,0,0,0-3.684-1.593,5.054,5.054,0,0,0-5.048,5.049,4.967,4.967,0,0,0,.129,1.147,14.374,14.374,0,0,1-10.4-5.272,5.026,5.026,0,0,0-.68,2.536,5.041,5.041,0,0,0,2.243,4.2,5.075,5.075,0,0,1-2.285-.631v.061a5.06,5.06,0,0,0,4.048,4.949,5.117,5.117,0,0,1-1.331.179,4.913,4.913,0,0,1-.95-.095,5.039,5.039,0,0,0,4.714,3.5,10.065,10.065,0,0,1-6.269,2.159A11.372,11.372,0,0,1,1833.623-15117.791Z" transform="translate(-1823.484 15147.001)" fill="#9ba7b3" stroke="rgba(0,0,0,0)" stroke-miterlimit="10" stroke-width="1"/>
  </g>
</svg>
