<svg id="menu" xmlns="http://www.w3.org/2000/svg" width="26.52" height="26.52" viewBox="0 0 26.52 26.52">
  <path id="Path_21692" data-name="Path 21692" d="M9.013,12.431H3.419A3.422,3.422,0,0,1,0,9.013V3.419A3.422,3.422,0,0,1,3.419,0H9.013a3.422,3.422,0,0,1,3.419,3.419V9.013A3.422,3.422,0,0,1,9.013,12.431ZM3.419,1.658A1.763,1.763,0,0,0,1.658,3.419V9.013a1.763,1.763,0,0,0,1.761,1.761H9.013a1.763,1.763,0,0,0,1.761-1.761V3.419A1.763,1.763,0,0,0,9.013,1.658Z" fill="#9ba7b3"/>
  <path id="Path_21693" data-name="Path 21693" d="M281.013,12.431h-5.594A3.422,3.422,0,0,1,272,9.013V3.419A3.422,3.422,0,0,1,275.419,0h5.594a3.422,3.422,0,0,1,3.419,3.419V9.013A3.422,3.422,0,0,1,281.013,12.431ZM275.419,1.658a1.763,1.763,0,0,0-1.761,1.761V9.013a1.763,1.763,0,0,0,1.761,1.761h5.594a1.763,1.763,0,0,0,1.761-1.761V3.419a1.763,1.763,0,0,0-1.761-1.761Z" transform="translate(-257.911)" fill="#9ba7b3"/>
  <path id="Path_21694" data-name="Path 21694" d="M278.216,284.431a6.216,6.216,0,1,1,6.216-6.216A6.223,6.223,0,0,1,278.216,284.431Zm0-10.774a4.558,4.558,0,1,0,4.558,4.558A4.563,4.563,0,0,0,278.216,273.658Z" transform="translate(-257.911 -257.911)" fill="#9ba7b3"/>
  <path id="Path_21695" data-name="Path 21695" d="M9.013,284.431H3.419A3.422,3.422,0,0,1,0,281.013v-5.594A3.422,3.422,0,0,1,3.419,272H9.013a3.422,3.422,0,0,1,3.419,3.419v5.594A3.422,3.422,0,0,1,9.013,284.431ZM3.419,273.658a1.763,1.763,0,0,0-1.761,1.761v5.594a1.763,1.763,0,0,0,1.761,1.761H9.013a1.763,1.763,0,0,0,1.761-1.761v-5.594a1.763,1.763,0,0,0-1.761-1.761Z" transform="translate(0 -257.911)" fill="#9ba7b3"/>
</svg>
